STARTFONT 2.3
FONT -FontForge-Bungee Shade-Book-R-Normal--18-180-72-72-P-154-ISO10646-1
SIZE 18 72 72  4
FONTBOUNDINGBOX 46 47 -11 -17
COMMENT "Generated by fontforge, http://fontforge.sourceforge.net"
COMMENT "Copyright 2008 The Bungee Project Authors (david@djr.com)"
STARTPROPERTIES 40
FOUNDRY "FontForge"
FAMILY_NAME "Bungee Shade"
WEIGHT_NAME "Book"
SLANT "R"
SETWIDTH_NAME "Normal"
ADD_STYLE_NAME ""
PIXEL_SIZE 18
POINT_SIZE 180
RESOLUTION_X 72
RESOLUTION_Y 72
SPACING "P"
AVERAGE_WIDTH 154
CHARSET_REGISTRY "ISO10646"
CHARSET_ENCODING "1"
FONTNAME_REGISTRY ""
CHARSET_COLLECTIONS "ISO8859-2 ISO8859-9 ISO8859-4 ISO10646-1"
BITS_PER_PIXEL 4
FONT_NAME "BungeeShade-Regular"
FACE_NAME "Bungee Shade"
COPYRIGHT "Copyright 2008 The Bungee Project Authors (david@djr.com)"
FONT_VERSION "1.000;PS 1.0;hotconv 1.0.72;makeotf.lib2.5.5900"
FONT_ASCENT 15
FONT_DESCENT 3
UNDERLINE_POSITION 0
UNDERLINE_THICKNESS 0
X_HEIGHT 13
CAP_HEIGHT 13
RAW_ASCENT 860
RAW_DESCENT 140
NORM_SPACE 6
RELATIVE_WEIGHT 40
RELATIVE_SETWIDTH 50
SUPERSCRIPT_X 0
SUPERSCRIPT_Y 6
SUPERSCRIPT_SIZE 10
SUBSCRIPT_X 0
SUBSCRIPT_Y 1
SUBSCRIPT_SIZE 10
AVG_LOWERCASE_WIDTH 147
AVG_UPPERCASE_WIDTH 150
ENDPROPERTIES
CHARS 1065
STARTCHAR space
ENCODING 32
SWIDTH 325 0
DWIDTH 6 0
BBX 1 1 0 0
BITMAP
00
ENDCHAR
STARTCHAR exclam
ENCODING 33
SWIDTH 524 0
DWIDTH 9 0
BBX 8 16 1 -2
BITMAP
01633332
1B900003
CF903003
EFA03003
DFB03003
DFB03003
CFC03003
CFC01003
BFF98881
AFE99931
5E900003
7F902003
DF900003
EFC33332
EFFFFE40
BFFFE300
ENDCHAR
STARTCHAR quotedbl
ENCODING 34
SWIDTH 746 0
DWIDTH 13 0
BBX 14 10 0 4
BITMAP
00733334633340
09E0000A800021
8FE0030B803020
9FF0030C803030
8FF0030C903030
8FF1020C902030
7FF2000DB00030
7FFFFFFFFFFE40
6FFFF7CFFFD200
03442023431000
ENDCHAR
STARTCHAR numbersign
ENCODING 35
SWIDTH 850 0
DWIDTH 15 0
BBX 16 16 0 -2
BITMAP
0000163340633400
0002D5003B900300
000B923059412230
0095003000020012
0BF5035333353112
2FF9203033030351
2FFFA032FD030D30
1FE9503297030420
04A0011000030030
4EB0253333352030
CFB0030000200020
CFFB0309B2307700
CFFD000EF1006000
4CFE435FF5332000
0AFFFD9FFFE40000
09FFC26FFD300000
ENDCHAR
STARTCHAR dollar
ENCODING 36
SWIDTH 750 0
DWIDTH 14 0
BBX 14 20 0 -4
BITMAP
00000143330000
00001C20002000
00027300203330
00140000200030
01C20233432030
0CF00300000030
5FF0120CFFFA00
8FF00201468300
8FF20222100030
8FF80000222021
6FFFA520002103
1EFFFFFFB01103
02C76666403003
07F01333432022
6FF00000200050
8FF64400207910
8FFFFF2000A100
5FFFFF74441000
0006FFFFD20000
0004FFFC100000
ENDCHAR
STARTCHAR percent
ENCODING 37
SWIDTH 1131 0
DWIDTH 20 0
BBX 21 16 0 -2
BITMAP
0003333330153340000000
0091233213C20030000000
1BD030030BD02030000000
7FC038920CA03210000000
AFC038A20C612300000000
AFC034530C330323333100
AFE023320C030620000400
AFFA20029B032A03332120
6FFFFFFEF7125912B63030
0AFFFE6DF4309920C63030
0013301FF030C920C63030
0000004FB021F912003020
0000008F8004FD03332200
000000BFA55BFFB5446200
000000EFFF8BFFFFFD3000
000001EFF702BEFEA20000
ENDCHAR
STARTCHAR ampersand
ENCODING 38
SWIDTH 866 0
DWIDTH 16 0
BBX 16 16 0 -2
BITMAP
0000243333340000
0004600000020000
006F102333120000
03FE012000000000
07FF0201FF900000
08FF312078000000
07FE624304500001
04F4210008A03203
2ED0302ABEA03003
8FB0303EEF803063
BFB0300000003030
BFD0033333331030
AFF5000000000200
7FFF853333346100
1EFFFFFFFFFC1000
02BFFFFFFD810000
ENDCHAR
STARTCHAR quotesingle
ENCODING 39
SWIDTH 456 0
DWIDTH 8 0
BBX 8 10 0 4
BITMAP
00543334
07F20003
5FF20303
6FF20303
6FF30303
5FF30203
5FF50003
4FFFFFB1
3FFFF900
03443000
ENDCHAR
STARTCHAR parenleft
ENCODING 40
SWIDTH 529 0
DWIDTH 10 0
BBX 10 19 0 -3
BITMAP
0000133330
0003200002
0076033102
08F1030022
3FE0210D70
7FE0210500
8FE0210300
8FE0210300
8FE0210300
8FE0210300
8FE0210300
8FE0210300
8FE0210300
8FF0120330
8FF3030002
8FFB013102
5FFFC74451
1DFFFFFE40
018DFFC200
ENDCHAR
STARTCHAR parenright
ENCODING 41
SWIDTH 529 0
DWIDTH 10 0
BBX 10 19 0 -3
BITMAP
0023333000
03C0000320
4FD0133040
9FE1003030
9FFFB03011
9FFFC03012
14DFC03012
00AFC03012
00AFC03012
00AFC03012
00AFC03012
00AFC03012
00AFC03012
00A5303021
05C0003040
6FD0131140
9FE4447400
9FFFFE4000
7FFDA20000
ENDCHAR
STARTCHAR asterisk
ENCODING 42
SWIDTH 818 0
DWIDTH 15 0
BBX 15 14 0 0
BITMAP
0000007333400000
000009F000300000
00036EF230323200
005A006330410300
05F6022030130300
0CF5001373200220
1FFFFC22231BE500
4FFFF60302145000
014A802090203000
003EA104F6005000
01DFFD4CFE470000
01DFFFAFFF800000
0019F709D4000000
0000100010000000
ENDCHAR
STARTCHAR plus
ENCODING 43
SWIDTH 834 0
DWIDTH 15 0
BBX 15 14 0 -1
BITMAP
0000002333200000
000003C000300000
00003EE020300000
00009FE030300000
0003698030333310
00A5000030000030
0BF5033353331030
2FF6000030000120
3FFFFFE0308FF700
2FFFFFE0308F5000
0344AFE000420000
00009FF433400000
00009FFFF9000000
00007FFF70000000
ENDCHAR
STARTCHAR comma
ENCODING 44
SWIDTH 484 0
DWIDTH 9 0
BBX 9 11 0 -5
BITMAP
0013333300
01C1000020
2DF1233030
6FF1003030
7FF2003030
7FFEC73210
5FF5231300
0BF8446200
3FFFFD2000
2FFFA10000
0010000000
ENDCHAR
STARTCHAR hyphen
ENCODING 45
SWIDTH 520 0
DWIDTH 9 0
BBX 10 7 0 3
BITMAP
0023333340
03B0000021
4EC0233111
BFC0000011
BFE4444440
BFFFFFFD20
9FFFFFC100
ENDCHAR
STARTCHAR period
ENCODING 46
SWIDTH 484 0
DWIDTH 9 0
BBX 9 8 0 -2
BITMAP
0013333300
02C1000020
2DF1020030
6FF1030030
7FF1000030
7FF5333410
7FFFFFE300
4FFFFC2000
ENDCHAR
STARTCHAR slash
ENCODING 47
SWIDTH 487 0
DWIDTH 9 0
BBX 9 20 0 -4
BITMAP
0000233330
0005A00030
006F803030
00CF603030
00EF403030
02FF212020
04FE030210
06FC030300
08FA030300
0AF8030300
0CF6030300
0EF4030300
2FF2020300
4FE0202100
6FC0303000
8FA0103000
AFA0004000
CFFFFC1000
EFFFA00000
2443000000
ENDCHAR
STARTCHAR zero
ENCODING 48
SWIDTH 827 0
DWIDTH 15 0
BBX 15 16 0 -2
BITMAP
0000233333333000
0004103333300300
0095040000040210
0AF30307CA012030
2FF2030CFF103030
5FF2030CFF103030
6FF20309FF103030
6FF20309FF103030
6FF20309FF103030
6FF20308FD012030
6FF3040000040030
6FF5003333300210
4FFD200000001400
1EFFEA6444586000
06FFFFFFFFF50000
0039DEFEC9200000
ENDCHAR
STARTCHAR one
ENCODING 49
SWIDTH 701 0
DWIDTH 13 0
BBX 13 16 0 -2
BITMAP
00263333340000
02D40000030000
1DF40334030000
3FF50003030000
3FFDA603030000
3FFFF903030000
078EF903030000
000EF903030000
000EF903030000
000EF903030000
00299503023310
04D00003000030
4FE01334331030
8FF43333333430
8FFFFFFFFFF700
6FFFFFFFFE4000
ENDCHAR
STARTCHAR two
ENCODING 50
SWIDTH 739 0
DWIDTH 13 0
BBX 13 16 0 -2
BITMAP
00163333333300
02D70000000120
0DF70333331030
0FFA4444103030
0FFFFFFF603030
0DFFFC72003030
00033001221030
00730222000210
08E02000027300
4FC02007CD2000
9FC02019943320
AFC02333333030
BFC00000000030
BFE43333333350
BFFFFFFFFFFC10
8FFFFFFFFF9000
ENDCHAR
STARTCHAR three
ENCODING 51
SWIDTH 737 0
DWIDTH 13 0
BBX 13 16 0 -2
BITMAP
00543333333000
07E00000000300
6FE01333310300
8FF32220030300
8FFFFFF9030300
7FFFA442030200
024D6023432320
01EF6000003030
01FFD999603030
01FFFFFFB03030
00D10000003030
0AE01333331020
7FE00000000030
8FF43333346500
8FFFFFFFFF6000
6FFFFFFEB30000
ENDCHAR
STARTCHAR four
ENCODING 52
SWIDTH 809 0
DWIDTH 15 0
BBX 14 16 0 -2
BITMAP
00353333063333
04E30003B80003
2FF3030AF80303
4FF3030BF80303
4FF3030BF80303
4FF3030BF80303
4FF30305950303
4FF30300000303
4FF50133333403
4FFA0000000303
1FFFA544420303
0AFFFFFFF80303
01AEFFFFF80003
0000000FFB3334
0000000FFFFFA0
0000000CFFF800
ENDCHAR
STARTCHAR five
ENCODING 53
SWIDTH 747 0
DWIDTH 13 0
BBX 14 16 0 -2
BITMAP
00353333333320
04E40000000030
2FF40333332030
4FF40300000130
4FF4030AFFF900
4FF40302334310
4FF40333332030
4FF40000003021
4FFC9999703012
4FFFFFFFC03012
17E30000003012
09F11333332031
6FF10000000030
7FF63333346600
7FFFFFFFFF7000
5FFFFFFEC40000
ENDCHAR
STARTCHAR six
ENCODING 54
SWIDTH 793 0
DWIDTH 14 0
BBX 14 16 0 -2
BITMAP
00003333333330
00061133332030
00A60300000030
0AF30300111130
3FF2030AFFF900
5FF20305444330
6FF20433333013
6FF20600000303
6FF2030AF70303
6FF2030CF90303
6FF30304730303
6FF50300000303
4FFD2033333022
1FFFE964446830
06FFFFFFFFD200
004ADEFEC71000
ENDCHAR
STARTCHAR seven
ENCODING 55
SWIDTH 727 0
DWIDTH 13 0
BBX 13 16 0 -2
BITMAP
00633333333330
09B00000000030
9FB02333332030
BFC00000003030
BFFFFFFF503030
AFFFFFFE403030
13444640003020
00016000331020
002C3033000300
00CF1030277000
04FF1030B70000
06FF1030300000
07FF1000300000
07FF6334300000
07FFFFF6000000
04FFFE40000000
ENDCHAR
STARTCHAR eight
ENCODING 56
SWIDTH 811 0
DWIDTH 15 0
BBX 15 16 0 -2
BITMAP
0000132233332000
0005203333203100
007D031000120300
06FC0308F7030300
0AFD0309F8030300
0BFF531131134000
09FA006535600400
04F2040000040210
1DE0211DFD021030
7FE0301FFF112030
9FE0200453011030
9FF2040000040210
8FFA013333301400
5FFFD85444686000
0BFFFFFFFFF50000
005BDFFEC8200000
ENDCHAR
STARTCHAR nine
ENCODING 57
SWIDTH 793 0
DWIDTH 14 0
BBX 14 16 0 -2
BITMAP
00003333333310
00150133332031
01C20400002303
1DF02105710303
6FE0210FF60303
8FE0210DF50303
9FF10300001503
9FF60123333303
7FFE7311220303
2EFFFFFFF60303
03AE8333301203
006F4033333004
02FF4000000031
03FF8333345720
03FFFFFFFFB100
02EFFFFEC70000
ENDCHAR
STARTCHAR colon
ENCODING 58
SWIDTH 484 0
DWIDTH 9 0
BBX 9 15 0 -2
BITMAP
0013333300
01C1000020
2DF1000030
6FF1030030
7FF1020030
7FF1000120
7FFDCCB400
6FFA997300
06F1000020
2EF1020030
6FF1030030
7FF1000030
7FF5333410
7FFFFFE300
4FFFFC2000
ENDCHAR
STARTCHAR semicolon
ENCODING 59
SWIDTH 484 0
DWIDTH 9 0
BBX 9 18 0 -5
BITMAP
0013333300
01C1000020
2DF1000030
6FF1030030
7FF1020030
7FF1000120
7FFDCCB400
6FFA997300
05E1000020
2EF1233030
6FF1003030
7FF2003030
7FFEC73210
5FF5231300
0BF8446200
3FFFFD2000
2FFFA10000
0010000000
ENDCHAR
STARTCHAR less
ENCODING 60
SWIDTH 814 0
DWIDTH 15 0
BBX 13 14 1 -2
BITMAP
00000000233330
00001333100030
00042000232030
01801332000230
2D80300159D600
BF80308FFD4000
EF803002532000
FFC01331000220
EFFA2002332030
BFFFFC84000030
2BFFFFFFEA6230
0027BFFFFFFA00
00000149DF7000
00000000010000
ENDCHAR
STARTCHAR equal
ENCODING 61
SWIDTH 834 0
DWIDTH 15 0
BBX 15 12 0 0
BITMAP
0004333333333310
0095000000000030
0AF5033333331030
2FF5000000000030
3FFDAAAAAAAAA700
2FFFFFFFFFFFA000
078A666666660000
01C5000000000030
1DF5033333331030
3FF9333333333420
3FFFFFFFFFFFE400
1EFFFFFFFFFD3000
ENDCHAR
STARTCHAR greater
ENCODING 62
SWIDTH 814 0
DWIDTH 15 0
BBX 13 14 1 -1
BITMAP
00AEA610000000
1CC37BFC730000
BFA023259DD500
CFA00023323B40
CFD20000013060
BFFFD951003030
16AEFFFF803020
0029EA62032010
04C30133300120
6FA02200000400
CFA00004881000
CFB26AD9400000
CFFB7300000000
45100000000000
ENDCHAR
STARTCHAR question
ENCODING 63
SWIDTH 756 0
DWIDTH 14 0
BBX 14 16 0 -2
BITMAP
00633333333410
08D00000000050
7FD01333332022
9FE10000003003
9FFFFFFFD02003
9FFFC753102003
134C5000233011
01CF8033100010
02FFA001357400
00FFD89BCF5000
00CF5000230000
00CF5020110000
03FF5000110000
03FF9333400000
03FFFFFC200000
01EFFFB1000000
ENDCHAR
STARTCHAR at
ENCODING 64
SWIDTH 967 0
DWIDTH 17 0
BBX 17 20 0 -4
BITMAP
000000233333320000
000033000000013200
000613BFFFFFE92220
01B63CFFFFFFFF9230
0AF3365677777AB330
2FF33460333325C330
5FF33F23022035C330
5FF33F031FB035C330
5FF33F031FB035C330
5FF33F031FB035C330
5FF33F031EB035B330
5FF33F130000323330
5FF33F613333433220
5FF43EE74444447400
5FF836FFFFFFFE4000
2FFF63268899950000
0CFFFA864333321000
02DFFFFFFFFFF50000
0018DFFFFFFE400000
000001334441000000
ENDCHAR
STARTCHAR A
ENCODING 65
SWIDTH 830 0
DWIDTH 15 0
BBX 15 16 0 -2
BITMAP
0000043333341000
0000A10000003000
0009B01333103000
004F502020201200
00AE0011F4110300
01F90106F8010300
06F5010AFD010120
0CF2020000002030
2FF1143333333030
5FF1120000003030
7FF1120444103030
7FF1120FFF303030
7FF1010FFF301030
7FF53357FF733430
7FFFFE55FFFFF500
5FFFC203EFFE4000
ENDCHAR
STARTCHAR B
ENCODING 66
SWIDTH 825 0
DWIDTH 15 0
BBX 15 16 0 -2
BITMAP
0026333333332000
03E5000000002100
1EF5033333300300
3FF5030AF7120300
3FF5030AF7030200
3FF5030010124100
3FF5043333530310
3FF5030000003030
3FF5030AFF403030
3FF5030AFF503030
3FF5030233003030
3FF5033333330030
3FF5000000000110
3FF8333333346200
3FFFFFFFFFFD2000
1EFFFFFFFD910000
ENDCHAR
STARTCHAR C
ENCODING 67
SWIDTH 728 0
DWIDTH 13 0
BBX 13 16 0 -2
BITMAP
00003333333340
00051000000030
00950133333030
09F20300000030
2FF20309FFFC10
5FF2030CFFB100
6FF20305430000
6FF20303000000
6FF20303000000
6FF20303000000
6FF20303333320
6FF50133333030
4FFD1000000030
1EFFE843333350
06FFFFFFFFFB10
005BEFFFFF8000
ENDCHAR
STARTCHAR D
ENCODING 68
SWIDTH 846 0
DWIDTH 15 0
BBX 15 16 0 -2
BITMAP
0026333333334100
03E5000000000310
1EF5033333330030
3FF5030000022030
3FF50307BA203030
3FF50309FF603030
3FF50308FF603030
3FF50305FF603030
3FF50304FF603030
3FF50304FF603030
3FF5030498112030
3FF5033333330030
3FF5000000000310
3FF8333333457100
3FFFFFFFFFFA1000
1EFFFFFFEC600000
ENDCHAR
STARTCHAR E
ENCODING 69
SWIDTH 754 0
DWIDTH 14 0
BBX 14 16 0 -2
BITMAP
00263333333341
03E50000000012
1EF50333333112
3FF50301222241
3FF5030AFFFE30
3FF50303555500
3FF50433320300
3FF50300000300
3FF50304666600
3FF5030AFFB100
3FF50306993330
3FF50333333112
3FF50000000012
3FF83333333351
3FFFFFFFFFFE40
1EFFFFFFFFC200
ENDCHAR
STARTCHAR F
ENCODING 70
SWIDTH 718 0
DWIDTH 13 0
BBX 13 16 0 -2
BITMAP
00263333333340
03E50000000030
1EF50333333030
3FF50300000030
3FF50309FFFC20
3FF50309EED100
3FF50300000300
3FF50433320300
3FF50300000300
3FF50302444200
3FF50309FE4000
3FF50309D30000
3FF50103000000
3FF83334000000
3FFFFF90000000
1EFFE600000000
ENDCHAR
STARTCHAR G
ENCODING 71
SWIDTH 808 0
DWIDTH 15 0
BBX 15 16 0 -2
BITMAP
0000333333334000
0005100000003000
0095013333303000
09F2030000003000
2FF20309FFFD2000
5FF2030CFFC10000
6FF2030546333300
6FF203035B000210
6FF20309FC020210
6FF20308DA030210
6FF2040000030210
6FF5013333340210
4FFD100000000210
1EFFE84333333500
06FFFFFFFFFFD200
005BEFFFFFFB1000
ENDCHAR
STARTCHAR H
ENCODING 72
SWIDTH 859 0
DWIDTH 15 0
BBX 15 16 0 -2
BITMAP
0026333302633330
03E500034E600030
1EF50304FF603030
3FF50304FF603030
3FF5030399403030
3FF5030000003030
3FF5030000003030
3FF5043333334030
3FF5030000003030
3FF50309FF603030
3FF50309FF603030
3FF50305FF603030
3FF50004FF600030
3FF83335FF933340
3FFFFF81FFFFF900
1EFFE600EFFF7000
ENDCHAR
STARTCHAR I
ENCODING 73
SWIDTH 705 0
DWIDTH 13 0
BBX 13 16 0 -2
BITMAP
00443333333410
05F00000000030
4FF01334331030
7FF10003000120
7FFCB50304B500
7FFFF703067000
278FF703030000
001FF703030000
001FF703030000
001FF703030000
002A9403023300
03D11334331020
3EF00000000030
7FF53333333520
7FFFFFFFFFE400
5FFFFFFFFC2000
ENDCHAR
STARTCHAR J
ENCODING 74
SWIDTH 788 0
DWIDTH 14 0
BBX 14 16 0 -2
BITMAP
00000000353333
00000004E30003
0000003FF30303
0000005FF30303
0000005FF30303
0000005FF30303
0023337FF30303
04C0004FF30303
5FC0204FF30303
AFC0302CC10303
AFD01300003103
AFF10133331003
9FF90000000040
5FFFD854457700
0BFFFFFFFF8000
006BEFEDA40000
ENDCHAR
STARTCHAR K
ENCODING 75
SWIDTH 846 0
DWIDTH 15 0
BBX 15 16 0 -2
BITMAP
0026333303433330
03E500034A000210
1EF50306E5030300
3FF50309E0211200
3FF5030980303000
3FF5030520304200
3FF5030003000220
3FF5043334330030
3FF5030000003030
3FF50308DD303030
3FF50309FF503030
3FF50306FF503030
3FF50005FF500030
3FF83336FF933340
3FFFFF82FFFFF800
1EFFE601EFFF6000
ENDCHAR
STARTCHAR L
ENCODING 76
SWIDTH 795 0
DWIDTH 14 0
BBX 14 16 0 -2
BITMAP
00263333000000
03E50003000000
1EF50303000000
3FF50303000000
3FF50303000000
3FF50303000000
3FF50303023333
3FF503035C0003
3FF50307FD0203
3FF50308EC0303
3FF50300000303
3FF50333333403
3FF50000000003
3FF83333333335
3FFFFFFFFFFFC1
1EFFFFFFFFFA10
ENDCHAR
STARTCHAR M
ENCODING 77
SWIDTH 949 0
DWIDTH 17 0
BBX 17 16 0 -2
BITMAP
002633330004333320
03E500012065000030
1EF5033026D0240030
3FF503220D60321030
3FF503030303021030
3FF503003021021030
3FF503021321021030
3FF503080008121030
3FF5030B702E121030
3FF5030BFEFF121030
3FF5030BEAFF121030
3FF5030527FF121030
3FF5000307FF100030
3FF8334307FF533420
3FFFFF6007FFFFE400
1EFFE40005FFFD3000
ENDCHAR
STARTCHAR N
ENCODING 78
SWIDTH 853 0
DWIDTH 15 0
BBX 15 16 0 -2
BITMAP
0026333101633330
03E500032D600030
1EF505109F603030
3FF503300C603030
3FF5030402403030
3FF5030040003030
3FF5030013003030
3FF5030601203030
3FF5030A80223030
3FF5030AF5034030
3FF5030AFE203030
3FF5030AFF603030
3FF50009FF600030
3FF83345FF933330
3FFFFF72FFFFF700
1EFFE501EFFE5000
ENDCHAR
STARTCHAR O
ENCODING 79
SWIDTH 837 0
DWIDTH 15 0
BBX 15 16 0 -2
BITMAP
0000233333333000
0004103333310400
0095030000030030
0AF30307CA103030
2FF2030CFF303030
5FF2030BFF303030
6FF20307FF303030
6FF20307FF303030
6FF20307FF303030
6FF20306FD203030
6FF3030000030030
6FF5003333310030
4FFD200000000500
1EFFFA6444588000
05FFFFFFFFF70000
0039DEFED9300000
ENDCHAR
STARTCHAR P
ENCODING 80
SWIDTH 782 0
DWIDTH 14 0
BBX 14 16 0 -2
BITMAP
00263333333320
03E50000000013
1EF50333333003
3FF50300000403
3FF5030AFA0303
3FF5030AFC0303
3FF50308D80303
3FF50300000403
3FF50433333004
3FF50300001440
3FF50309FFF600
3FF50309FD4000
3FF50004200000
3FF83333000000
3FFFFF80000000
1EFFE600000000
ENDCHAR
STARTCHAR Q
ENCODING 81
SWIDTH 837 0
DWIDTH 15 0
BBX 15 18 0 -4
BITMAP
0000233333333000
0004100000000400
0076003333310120
08F3030000030030
2FF20309FD203030
5FF2030CFF303030
6FF2030AFF303030
6FF20307FF303030
6FF20307FF303030
6FF20307FF303030
6FF20306DC103020
6FF4030000030030
5FFB003343310310
2FFFB40030025200
0AFFFFA0004C1000
01AFFFC444510000
0002DFFFFB100000
0000AFFFA0000000
ENDCHAR
STARTCHAR R
ENCODING 82
SWIDTH 843 0
DWIDTH 15 0
BBX 15 16 0 -2
BITMAP
0026333333333000
03E5000000001200
1EF5033333300300
3FF5030461120300
3FF50309F7030300
3FF50309F6030300
3FF5030000132300
3FF5042223520030
3FF5030000003030
3FF5030243103030
3FF50309FF803030
3FF50309FF903030
3FF50103EF901030
3FF83334EFB33340
3FFFFF90EFFFFB10
1EFFE600BFFF9000
ENDCHAR
STARTCHAR S
ENCODING 83
SWIDTH 750 0
DWIDTH 14 0
BBX 14 16 0 -2
BITMAP
00003333333330
00160000000030
02D30233332030
0CF00300000030
6FF0120CFFFA00
8FF00201468300
8FF20222100130
8FF80000222021
6FFFA520002103
1EFFFFFFB01103
02C76666403003
07F01333332022
6FF00000000040
8FF53333346710
8FFFFFFFFF8000
5FFFFFFEB40000
ENDCHAR
STARTCHAR T
ENCODING 84
SWIDTH 756 0
DWIDTH 14 0
BBX 14 16 0 -2
BITMAP
00633333333333
1B900000000003
BF902334333203
EFA00002100003
EFFFFD0210EFA0
DFFFFD0210E900
244BFD02105000
000AFD02103000
000AFD02103000
000AFD02103000
000AFD02103000
000AFD02103000
000AFD00003000
000AFE43342000
000AFFFFE40000
0007FFFD200000
ENDCHAR
STARTCHAR U
ENCODING 85
SWIDTH 846 0
DWIDTH 15 0
BBX 15 16 0 -2
BITMAP
0035333302633330
04E301034E501030
3FF30305FF503030
4FF30306FF503030
4FF30306FF503030
4FF30306FF503030
4FF30306FF503030
4FF30306FF503030
4FF30306FF503030
4FF30303BA203030
4FF4031000031030
4FF7002333310030
2FFE300000000400
0DFFFA6444587000
04EFFFFFFFF70000
0028CEFEDA300000
ENDCHAR
STARTCHAR V
ENCODING 86
SWIDTH 830 0
DWIDTH 15 0
BBX 15 16 0 -2
BITMAP
0054333204533330
06F100036F200030
5FF10307FF203030
7FF10309FF203030
7FF10309FF203030
7FF10309FF203030
7FF10308FE002030
7FF40304FA030020
7FF90210E5030300
4FFE103040220300
0EFF603000301100
08FFB00333103000
02FFF20000003000
00CFFA3333340000
006FFFFFFFB10000
001DFFFFF9000000
ENDCHAR
STARTCHAR W
ENCODING 87
SWIDTH 931 0
DWIDTH 17 0
BBX 17 16 0 -2
BITMAP
003533320006433410
05F20103008F000120
3FF2030307FF021120
5FF2030308FF021120
5FF2030336CF021120
5FF20308201E021120
5FF203080008021120
5FF203021322021120
5FF203003030030120
5FF403031403030210
5FF703030F12130300
4FFC01304F50320300
1FFF20008F90001100
0BFFA334DFE4334000
05FFFFF5EFFFFA0000
01CFFE408FFF800000
ENDCHAR
STARTCHAR X
ENCODING 88
SWIDTH 837 0
DWIDTH 15 0
BBX 15 16 0 -2
BITMAP
0035333203533330
05F200034E300030
3FF20305FF203030
5FF50303FA021030
5FFC012041030300
4FFF902100302100
0CFFF20434203000
02EF902100302100
007D103010120300
00C60302E7030030
08F3030AFF103030
2FF2030CFF303030
5FF2000AFF300030
5FF73347FF733420
5FFFFF54FFFFF500
3EFFE302EFFE4000
ENDCHAR
STARTCHAR Y
ENCODING 89
SWIDTH 805 0
DWIDTH 14 0
BBX 15 16 0 -2
BITMAP
0063334105433410
08D000128F000120
7FD03018FF021120
9FD0301AFF021120
9FD0210BFC020120
9FE00305F4030210
9FF6012020210400
8FFE203001202100
3FFFC00242012000
08FFF90030030000
00CFFF3030300000
002EFF5030300000
0006FF5000300000
0003FF9333300000
0003FFFFF9000000
0001EFFF70000000
ENDCHAR
STARTCHAR Z
ENCODING 90
SWIDTH 760 0
DWIDTH 14 0
BBX 14 16 0 -2
BITMAP
00353333333340
04E30000000030
2EF30333333030
4FF50000003030
4FFFFFF5021030
3FFFFF80120120
03447B00300300
0001B103003000
000B2030021000
00950210120000
06E01200433331
3FD00333333103
9FD00000000003
9FF43333333343
9FFFFFFFFFFF60
7FFFFFFFFFD300
ENDCHAR
STARTCHAR bracketleft
ENCODING 91
SWIDTH 529 0
DWIDTH 10 0
BBX 10 19 0 -3
BITMAP
0023333330
03D0000002
3EE0243102
8FE0210022
8FE0210E70
8FE0210500
8FE0210300
8FE0210300
8FE0210300
8FE0210300
8FE0210300
8FE0210300
8FE0210300
8FE0210430
8FE0210002
8FE0133102
8FF4444451
8FFFFFFE40
6FFFFFC200
ENDCHAR
STARTCHAR backslash
ENCODING 92
SWIDTH 487 0
DWIDTH 9 0
BBX 9 20 0 -4
BITMAP
0033332000
0790003000
9FB0303000
EFD0303000
CFF0211100
AFF2030300
8FF4030300
5FF6030300
3FF9030300
1FFB030300
0EFD030300
0CFF021110
0AFF203030
08FF403030
05FF703030
03FF901030
01FFC00040
00EFFFFD30
00BFFFC100
0013430000
ENDCHAR
STARTCHAR bracketright
ENCODING 93
SWIDTH 529 0
DWIDTH 10 0
BBX 10 19 0 -3
BITMAP
0023333330
03C0000011
4FD0235012
9FE1003012
9FFFC03012
9FFFC03012
13BFC03012
00AFC03012
00AFC03012
00AFC03012
00AFC03012
00AFC03012
00AFC03012
00A5403012
05C0003012
6FD0134012
9FE4444451
9FFFFFFD30
7FFFFFC100
ENDCHAR
STARTCHAR asciicircum
ENCODING 94
SWIDTH 814 0
DWIDTH 15 0
BBX 14 13 0 1
BITMAP
00000333333000
00006413320300
0007D030021300
003F8030203110
00AF4113A03030
00EF1306D03030
03FC030AF22130
07F8030EF60312
0BF4122FF90303
0EE0005FFD0003
4FE4444EFF5444
8FFFF80BFFFFB1
8FFF6005FFFA00
ENDCHAR
STARTCHAR underscore
ENCODING 95
SWIDTH 834 0
DWIDTH 15 0
BBX 15 7 0 -4
BITMAP
0003333333333310
0095000000000030
0AF5033333331030
2FF5000000000030
3FF9444444444410
3FFFFFFFFFFFD200
1EFFFFFFFFFD2000
ENDCHAR
STARTCHAR grave
ENCODING 96
SWIDTH 600 0
DWIDTH 11 0
BBX 11 7 0 11
BITMAP
002333100000
03B000133320
5FC023332030
BFE531000030
BFFFFFECA820
6DFFFFFFD300
000245781000
ENDCHAR
STARTCHAR a
ENCODING 97
SWIDTH 830 0
DWIDTH 15 0
BBX 15 16 0 -2
BITMAP
0000043333341000
0000A10000003000
0009B01333103000
004F502020201200
00AE0011F4110300
01F90106F8010300
06F5010AFD010120
0CF2020000002030
2FF1143333333030
5FF1120000003030
7FF1120444103030
7FF1120FFF303030
7FF1010FFF301030
7FF53357FF733430
7FFFFE55FFFFF500
5FFFC203EFFE4000
ENDCHAR
STARTCHAR b
ENCODING 98
SWIDTH 825 0
DWIDTH 15 0
BBX 15 16 0 -2
BITMAP
0026333333332000
03E5000000002100
1EF5033333300300
3FF5030AF7120300
3FF5030AF7030200
3FF5030010124100
3FF5043333530310
3FF5030000003030
3FF5030AFF403030
3FF5030AFF503030
3FF5030233003030
3FF5033333330030
3FF5000000000110
3FF8333333346200
3FFFFFFFFFFD2000
1EFFFFFFFD910000
ENDCHAR
STARTCHAR c
ENCODING 99
SWIDTH 728 0
DWIDTH 13 0
BBX 13 16 0 -2
BITMAP
00003333333340
00051000000030
00950133333030
09F20300000030
2FF20309FFFC10
5FF2030CFFB100
6FF20305430000
6FF20303000000
6FF20303000000
6FF20303000000
6FF20303333320
6FF50133333030
4FFD1000000030
1EFFE843333350
06FFFFFFFFFB10
005BEFFFFF8000
ENDCHAR
STARTCHAR d
ENCODING 100
SWIDTH 846 0
DWIDTH 15 0
BBX 15 16 0 -2
BITMAP
0026333333334100
03E5000000000310
1EF5033333330030
3FF5030000022030
3FF50307BA203030
3FF50309FF603030
3FF50308FF603030
3FF50305FF603030
3FF50304FF603030
3FF50304FF603030
3FF5030498112030
3FF5033333330030
3FF5000000000310
3FF8333333457100
3FFFFFFFFFFA1000
1EFFFFFFEC600000
ENDCHAR
STARTCHAR e
ENCODING 101
SWIDTH 754 0
DWIDTH 14 0
BBX 14 16 0 -2
BITMAP
00263333333341
03E50000000012
1EF50333333112
3FF50301222241
3FF5030AFFFE30
3FF50303555500
3FF50433320300
3FF50300000300
3FF50304666600
3FF5030AFFB100
3FF50306993330
3FF50333333112
3FF50000000012
3FF83333333351
3FFFFFFFFFFE40
1EFFFFFFFFC200
ENDCHAR
STARTCHAR f
ENCODING 102
SWIDTH 718 0
DWIDTH 13 0
BBX 13 16 0 -2
BITMAP
00263333333340
03E50000000030
1EF50333333030
3FF50300000030
3FF50309FFFC20
3FF50309EED100
3FF50300000300
3FF50433320300
3FF50300000300
3FF50302444200
3FF50309FE4000
3FF50309D30000
3FF50103000000
3FF83334000000
3FFFFF90000000
1EFFE600000000
ENDCHAR
STARTCHAR g
ENCODING 103
SWIDTH 808 0
DWIDTH 15 0
BBX 15 16 0 -2
BITMAP
0000333333334000
0005100000003000
0095013333303000
09F2030000003000
2FF20309FFFD2000
5FF2030CFFC10000
6FF2030546333300
6FF203035B000210
6FF20309FC020210
6FF20308DA030210
6FF2040000030210
6FF5013333340210
4FFD100000000210
1EFFE84333333500
06FFFFFFFFFFD200
005BEFFFFFFB1000
ENDCHAR
STARTCHAR h
ENCODING 104
SWIDTH 859 0
DWIDTH 15 0
BBX 15 16 0 -2
BITMAP
0026333302633330
03E500034E600030
1EF50304FF603030
3FF50304FF603030
3FF5030399403030
3FF5030000003030
3FF5030000003030
3FF5043333334030
3FF5030000003030
3FF50309FF603030
3FF50309FF603030
3FF50305FF603030
3FF50004FF600030
3FF83335FF933340
3FFFFF81FFFFF900
1EFFE600EFFF7000
ENDCHAR
STARTCHAR i
ENCODING 105
SWIDTH 705 0
DWIDTH 13 0
BBX 13 16 0 -2
BITMAP
00443333333410
05F00000000030
4FF01334331030
7FF10003000120
7FFCB50304B500
7FFFF703067000
278FF703030000
001FF703030000
001FF703030000
001FF703030000
002A9403023300
03D11334331020
3EF00000000030
7FF53333333520
7FFFFFFFFFE400
5FFFFFFFFC2000
ENDCHAR
STARTCHAR j
ENCODING 106
SWIDTH 788 0
DWIDTH 14 0
BBX 14 16 0 -2
BITMAP
00000000353333
00000004E30003
0000003FF30303
0000005FF30303
0000005FF30303
0000005FF30303
0023337FF30303
04C0004FF30303
5FC0204FF30303
AFC0302CC10303
AFD01300003103
AFF10133331003
9FF90000000040
5FFFD854457700
0BFFFFFFFF8000
006BEFEDA40000
ENDCHAR
STARTCHAR k
ENCODING 107
SWIDTH 846 0
DWIDTH 15 0
BBX 15 16 0 -2
BITMAP
0026333303433330
03E500034A000210
1EF50306E5030300
3FF50309E0211200
3FF5030980303000
3FF5030520304200
3FF5030003000220
3FF5043334330030
3FF5030000003030
3FF50308DD303030
3FF50309FF503030
3FF50306FF503030
3FF50005FF500030
3FF83336FF933340
3FFFFF82FFFFF800
1EFFE601EFFF6000
ENDCHAR
STARTCHAR l
ENCODING 108
SWIDTH 795 0
DWIDTH 14 0
BBX 14 16 0 -2
BITMAP
00263333000000
03E50003000000
1EF50303000000
3FF50303000000
3FF50303000000
3FF50303000000
3FF50303023333
3FF503035C0003
3FF50307FD0203
3FF50308EC0303
3FF50300000303
3FF50333333403
3FF50000000003
3FF83333333335
3FFFFFFFFFFFC1
1EFFFFFFFFFA10
ENDCHAR
STARTCHAR m
ENCODING 109
SWIDTH 949 0
DWIDTH 17 0
BBX 17 16 0 -2
BITMAP
002633330004333320
03E500012065000030
1EF5033026D0240030
3FF503220D60321030
3FF503030303021030
3FF503003021021030
3FF503021321021030
3FF503080008121030
3FF5030B702E121030
3FF5030BFEFF121030
3FF5030BEAFF121030
3FF5030527FF121030
3FF5000307FF100030
3FF8334307FF533420
3FFFFF6007FFFFE400
1EFFE40005FFFD3000
ENDCHAR
STARTCHAR n
ENCODING 110
SWIDTH 853 0
DWIDTH 15 0
BBX 15 16 0 -2
BITMAP
0026333101633330
03E500032D600030
1EF505109F603030
3FF503300C603030
3FF5030402403030
3FF5030040003030
3FF5030013003030
3FF5030601203030
3FF5030A80223030
3FF5030AF5034030
3FF5030AFE203030
3FF5030AFF603030
3FF50009FF600030
3FF83345FF933330
3FFFFF72FFFFF700
1EFFE501EFFE5000
ENDCHAR
STARTCHAR o
ENCODING 111
SWIDTH 837 0
DWIDTH 15 0
BBX 15 16 0 -2
BITMAP
0000233333333000
0004103333310400
0095030000030030
0AF30307CA103030
2FF2030CFF303030
5FF2030BFF303030
6FF20307FF303030
6FF20307FF303030
6FF20307FF303030
6FF20306FD203030
6FF3030000030030
6FF5003333310030
4FFD200000000500
1EFFFA6444588000
05FFFFFFFFF70000
0039DEFED9300000
ENDCHAR
STARTCHAR p
ENCODING 112
SWIDTH 782 0
DWIDTH 14 0
BBX 14 16 0 -2
BITMAP
00263333333320
03E50000000013
1EF50333333003
3FF50300000403
3FF5030AFA0303
3FF5030AFC0303
3FF50308D80303
3FF50300000403
3FF50433333004
3FF50300001440
3FF50309FFF600
3FF50309FD4000
3FF50004200000
3FF83333000000
3FFFFF80000000
1EFFE600000000
ENDCHAR
STARTCHAR q
ENCODING 113
SWIDTH 837 0
DWIDTH 15 0
BBX 15 18 0 -4
BITMAP
0000233333333000
0004100000000400
0076003333310120
08F3030000030030
2FF20309FD203030
5FF2030CFF303030
6FF2030AFF303030
6FF20307FF303030
6FF20307FF303030
6FF20307FF303030
6FF20306DC103020
6FF4030000030030
5FFB003343310310
2FFFB40030025200
0AFFFFA0004C1000
01AFFFC444510000
0002DFFFFB100000
0000AFFFA0000000
ENDCHAR
STARTCHAR r
ENCODING 114
SWIDTH 843 0
DWIDTH 15 0
BBX 15 16 0 -2
BITMAP
0026333333333000
03E5000000001200
1EF5033333300300
3FF5030461120300
3FF50309F7030300
3FF50309F6030300
3FF5030000132300
3FF5042223520030
3FF5030000003030
3FF5030243103030
3FF50309FF803030
3FF50309FF903030
3FF50103EF901030
3FF83334EFB33340
3FFFFF90EFFFFB10
1EFFE600BFFF9000
ENDCHAR
STARTCHAR s
ENCODING 115
SWIDTH 750 0
DWIDTH 14 0
BBX 14 16 0 -2
BITMAP
00003333333330
00160000000030
02D30233332030
0CF00300000030
6FF0120CFFFA00
8FF00201468300
8FF20222100130
8FF80000222021
6FFFA520002103
1EFFFFFFB01103
02C76666403003
07F01333332022
6FF00000000040
8FF53333346710
8FFFFFFFFF8000
5FFFFFFEB40000
ENDCHAR
STARTCHAR t
ENCODING 116
SWIDTH 756 0
DWIDTH 14 0
BBX 14 16 0 -2
BITMAP
00633333333333
1B900000000003
BF902334333203
EFA00002100003
EFFFFD0210EFA0
DFFFFD0210E900
244BFD02105000
000AFD02103000
000AFD02103000
000AFD02103000
000AFD02103000
000AFD02103000
000AFD00003000
000AFE43342000
000AFFFFE40000
0007FFFD200000
ENDCHAR
STARTCHAR u
ENCODING 117
SWIDTH 846 0
DWIDTH 15 0
BBX 15 16 0 -2
BITMAP
0035333302633330
04E301034E501030
3FF30305FF503030
4FF30306FF503030
4FF30306FF503030
4FF30306FF503030
4FF30306FF503030
4FF30306FF503030
4FF30306FF503030
4FF30303BA203030
4FF4031000031030
4FF7002333310030
2FFE300000000400
0DFFFA6444587000
04EFFFFFFFF70000
0028CEFEDA300000
ENDCHAR
STARTCHAR v
ENCODING 118
SWIDTH 830 0
DWIDTH 15 0
BBX 15 16 0 -2
BITMAP
0054333204533330
06F100036F200030
5FF10307FF203030
7FF10309FF203030
7FF10309FF203030
7FF10309FF203030
7FF10308FE002030
7FF40304FA030020
7FF90210E5030300
4FFE103040220300
0EFF603000301100
08FFB00333103000
02FFF20000003000
00CFFA3333340000
006FFFFFFFB10000
001DFFFFF9000000
ENDCHAR
STARTCHAR w
ENCODING 119
SWIDTH 931 0
DWIDTH 17 0
BBX 17 16 0 -2
BITMAP
003533320006433410
05F20103008F000120
3FF2030307FF021120
5FF2030308FF021120
5FF2030336CF021120
5FF20308201E021120
5FF203080008021120
5FF203021322021120
5FF203003030030120
5FF403031403030210
5FF703030F12130300
4FFC01304F50320300
1FFF20008F90001100
0BFFA334DFE4334000
05FFFFF5EFFFFA0000
01CFFE408FFF800000
ENDCHAR
STARTCHAR x
ENCODING 120
SWIDTH 837 0
DWIDTH 15 0
BBX 15 16 0 -2
BITMAP
0035333203533330
05F200034E300030
3FF20305FF203030
5FF50303FA021030
5FFC012041030300
4FFF902100302100
0CFFF20434203000
02EF902100302100
007D103010120300
00C60302E7030030
08F3030AFF103030
2FF2030CFF303030
5FF2000AFF300030
5FF73347FF733420
5FFFFF54FFFFF500
3EFFE302EFFE4000
ENDCHAR
STARTCHAR y
ENCODING 121
SWIDTH 805 0
DWIDTH 14 0
BBX 15 16 0 -2
BITMAP
0063334105433410
08D000128F000120
7FD03018FF021120
9FD0301AFF021120
9FD0210BFC020120
9FE00305F4030210
9FF6012020210400
8FFE203001202100
3FFFC00242012000
08FFF90030030000
00CFFF3030300000
002EFF5030300000
0006FF5000300000
0003FF9333300000
0003FFFFF9000000
0001EFFF70000000
ENDCHAR
STARTCHAR z
ENCODING 122
SWIDTH 760 0
DWIDTH 14 0
BBX 14 16 0 -2
BITMAP
00353333333340
04E30000000030
2EF30333333030
4FF50000003030
4FFFFFF5021030
3FFFFF80120120
03447B00300300
0001B103003000
000B2030021000
00950210120000
06E01200433331
3FD00333333103
9FD00000000003
9FF43333333343
9FFFFFFFFFFF60
7FFFFFFFFFD300
ENDCHAR
STARTCHAR braceleft
ENCODING 123
SWIDTH 555 0
DWIDTH 10 0
BBX 11 19 -1 -3
BITMAP
000000233320
000004100030
0001A1143030
001CB0300030
008F90303C10
00CF90303000
00EF80303000
00EB02203000
01E703073000
0BF703024000
1FFD30303000
1FFF90303000
0AFF90303000
00EFA0301320
00EFC0210030
00DFF6032030
00BFFFA54440
005FFFFFFA10
0004BEFF7000
ENDCHAR
STARTCHAR bar
ENCODING 124
SWIDTH 447 0
DWIDTH 8 0
BBX 8 20 0 -4
BITMAP
00043331
01B40003
1CF40303
4FF40303
4FF40303
4FF40303
4FF40303
4FF40303
4FF40303
4FF40303
4FF40303
4FF40303
4FF40303
4FF40303
4FF40303
4FF40103
4FF50013
4FFFFF80
3FFFF600
03442000
ENDCHAR
STARTCHAR braceright
ENCODING 125
SWIDTH 555 0
DWIDTH 10 0
BBX 11 19 0 -3
BITMAP
002333300000
03C000031000
4FD013204000
9FE100303000
9FFF80303000
9FFFA0303000
14EFA0302100
00DFA0120300
00DFFB230110
00CFC1030200
004FA0301300
00AFA0303000
00DF90303000
00C520303000
04D000304000
5FD013023000
9FE445730000
9FFFFD300000
7FFD91000000
ENDCHAR
STARTCHAR asciitilde
ENCODING 126
SWIDTH 834 0
DWIDTH 15 0
BBX 15 8 0 2
BITMAP
0000333332003300
0015000000220030
02D5033332101030
1EF5000000220120
3FF96ABA86436500
3FFFFFFFFFFF6000
1EB88ACEFFC50000
0000000010000000
ENDCHAR
STARTCHAR uni00A0
ENCODING 160
SWIDTH 325 0
DWIDTH 6 0
BBX 1 1 0 0
BITMAP
00
ENDCHAR
STARTCHAR exclamdown
ENCODING 161
SWIDTH 523 0
DWIDTH 9 0
BBX 8 16 1 -2
BITMAP
00633332
1C900003
CF902003
EFA00003
EFFFFF90
DFE32231
2DC01003
9FB03003
AFB03003
BFA03003
CFA03003
CF903003
DF900003
DFB33343
EFFFFF60
CFFFE400
ENDCHAR
STARTCHAR cent
ENCODING 162
SWIDTH 728 0
DWIDTH 13 0
BBX 13 18 0 -3
BITMAP
00000023333000
00000460102330
00002000300030
00010133432030
00940300000030
09F20301344430
2FF2030BFFF800
5FF2030CFF7000
6FF20303000000
6FF20303000000
6FF20303333320
6FF40300000030
4FFB0133433030
2FFF8100300030
0AFFFF90006B20
00AFFFC4447200
0002DFFFFA1000
0000AFFF800000
ENDCHAR
STARTCHAR sterling
ENCODING 163
SWIDTH 795 0
DWIDTH 14 0
BBX 15 16 -1 -2
BITMAP
0000023333334000
0000420000003000
0005900333313000
005F603000003000
00DF50306FFE4000
01FD30305AE30000
03F7003002300000
08F7003001333330
1FF9103015C00030
1FFF50309FD02030
0BFF503034403030
03FF503333334030
03FF500000000030
03FF833333333350
03FFFFFFFFFFFC10
01EFFFFFFFFFA100
ENDCHAR
STARTCHAR currency
ENCODING 164
SWIDTH 921 0
DWIDTH 17 0
BBX 17 16 0 -3
BITMAP
000233100000133100
005500223332400310
06F203013331030220
4FFD20410001402200
5FFFC0202520203000
06FFC030DFE0303000
00BFC030EFF0303000
00AFC030EFF0303000
00AFC030BFC0303000
00AF70520001503000
00A802133333120400
02D101131113110220
2DFC11CFFFFFC11300
7FFFCCFFFDFFFD3000
0AFE3011009FE30000
006200000006200000
ENDCHAR
STARTCHAR yen
ENCODING 165
SWIDTH 803 0
DWIDTH 14 0
BBX 15 16 0 -2
BITMAP
0063334105433410
09D000128F000120
8FD03018FF021120
AFD0201AFF030110
AFE00309F9030200
9FF4021191220300
8FFD103001302200
2EFF900343003000
05FF910030033100
01EC023353310300
0AFC000030000300
0BFFCC50307CA100
0BFFFF60009B1000
0499FFA333600000
0002FFFFF8000000
0001EFFF60000000
ENDCHAR
STARTCHAR brokenbar
ENCODING 166
SWIDTH 447 0
DWIDTH 8 0
BBX 8 20 0 -4
BITMAP
00043331
01B40003
1DF40303
4FF40303
4FF40303
4FF40303
4FF40103
4FF50003
4FFFEE90
3FFC9831
03E40003
1DF40303
4FF40303
4FF40303
4FF40303
4FF40103
4FF50013
4FFFFF80
3FFFF600
03442000
ENDCHAR
STARTCHAR section
ENCODING 167
SWIDTH 750 0
DWIDTH 14 0
BBX 14 16 0 -2
BITMAP
00003333333330
00061133332030
00A40400000030
0BF1120CFFFB10
3FF02100013300
7FF02434331040
7FF1110FE11121
8FF30202400203
7FFB0023333303
5FFFA310000303
1EFFFFFFD00313
03D40000002230
07F31333332040
4FF73333347500
5FFFFFFFFF5000
3EFFFFFEA30000
ENDCHAR
STARTCHAR dieresis
ENCODING 168
SWIDTH 600 0
DWIDTH 11 0
BBX 12 7 -1 11
BITMAP
000333313332
0095000D0003
0BF5020E0203
2FF7001F1004
2FFFFFFFFFE3
1FFFFBFFFD20
034420444100
ENDCHAR
STARTCHAR copyright
ENCODING 169
SWIDTH 967 0
DWIDTH 17 0
BBX 17 20 0 -4
BITMAP
000000233333320000
000033000000013200
000613BFFFFFE92220
01B64CFFCAAABF9230
0AF3349222220DB330
2FF33D8210000DC330
5FF33F6309FFFFC330
5FF33F530BF7BFC330
5FF33F530520BFC330
5FF33F530300BFC330
5FF33F6303337FC330
5FF33F9210000DC330
5FF32FF643330DB330
5FF43BFFFFFFFF7330
5FF8318CEFF9860330
3FFF64000000024400
0DFFFB854334688100
03EFFFFFFFFFF80000
0018DFFFFFEB400000
000001333200000000
ENDCHAR
STARTCHAR ordfeminine
ENCODING 170
SWIDTH 620 0
DWIDTH 11 0
BBX 11 16 0 -2
BITMAP
000253333200
003D03330300
02EA02102210
08F520A23030
0DF020E61130
3FC020210230
8FB043333330
BFB021210230
CFB025FC0230
CFB005FC0030
CFE99CFE9950
BFE977999830
2DB022222130
AFD433333360
CFFFFFFFFD30
9FFFFFFFB100
ENDCHAR
STARTCHAR guillemotleft
ENCODING 171
SWIDTH 912 0
DWIDTH 16 0
BBX 16 12 0 -1
BITMAP
0000013332002333
0001320003331003
0044023108102303
06F121003A030004
3FF0304DF9030A80
7FF030049A030232
8FF213310B023203
8FFC20010D810003
5FFFFB730EFEA613
0AFFFFFFDFFFFFD3
0027CFF7049DFC20
0000013000002000
ENDCHAR
STARTCHAR logicalnot
ENCODING 172
SWIDTH 834 0
DWIDTH 15 0
BBX 15 11 0 -1
BITMAP
0003333333333310
00A5000000000030
0BF5033333332030
2FF6000000003030
3FFFFFFFFF803030
2FFFFFFFFF803030
03444444FF803030
00000000FF800030
00000000FFB33410
00000000FFFFE300
00000000DFFD2000
ENDCHAR
STARTCHAR uni00AD
ENCODING 173
SWIDTH 520 0
DWIDTH 9 0
BBX 10 7 0 3
BITMAP
0023333340
03B0000021
4EC0233111
BFC0000011
BFE4444440
BFFFFFFD20
9FFFFFC100
ENDCHAR
STARTCHAR registered
ENCODING 174
SWIDTH 660 0
DWIDTH 12 0
BBX 12 13 0 1
BITMAP
000176666730
00385DEFD761
05E5B5666F33
2FF4B3753F43
5FF4B3344C43
6FF4B36A3743
6FF4B28D2833
6FF48FFFFB33
6FF722342152
5FFE85334730
1EFFFFFFE400
03CFFFFB2000
000122100000
ENDCHAR
STARTCHAR macron
ENCODING 175
SWIDTH 600 0
DWIDTH 11 0
BBX 11 7 0 11
BITMAP
002333333320
03B000000030
3EC023332030
BFD000000030
BFFFFFFFF900
AFFFFFFF8000
144444430000
ENDCHAR
STARTCHAR degree
ENCODING 176
SWIDTH 583 0
DWIDTH 11 0
BBX 11 11 0 3
BITMAP
000333333200
008213331300
0AD030003120
6FD036F43120
9FD037F53120
9FD033923120
9FF123331300
9FFC53236400
5FFFFFFE4000
08FFFFC30000
000231000000
ENDCHAR
STARTCHAR plusminus
ENCODING 177
SWIDTH 834 0
DWIDTH 15 0
BBX 15 16 0 -2
BITMAP
0000005333300000
000006D000300000
00005FE030300000
00009FE030300000
0003698030333310
00A5033353331030
0CF5000030000030
2FFC888030588A20
3FFFFFE0308FF600
2FFFFFE0208E4000
0126798000443300
01A5000000000030
1CF5033333331030
3FF8333333333420
3FFFFFFFFFFFE400
1EFFFFFFFFFD3000
ENDCHAR
STARTCHAR twosuperior
ENCODING 178
SWIDTH 585 0
DWIDTH 11 0
BBX 11 13 0 1
BITMAP
003633333200
04E423331300
2FF733203300
3FFFFE903200
3FFD51121300
018222101300
08D030496000
5FC032973300
AFC033332210
BFD000000310
BFFFFFFFF600
AFFFFFFE4000
144444420000
ENDCHAR
STARTCHAR threesuperior
ENCODING 179
SWIDTH 584 0
DWIDTH 11 0
BBX 11 13 0 1
BITMAP
006333333000
07E023321200
5FF000030300
8FFEEE420300
8FFF22033200
27DF12331310
06FFFFF22030
07F333203030
09E023332120
6FF100002500
8FFFFFFF8000
8FFFFFE50000
134443100000
ENDCHAR
STARTCHAR acute
ENCODING 180
SWIDTH 600 0
DWIDTH 11 0
BBX 11 7 0 11
BITMAP
000000133310
003333100030
06C023332030
7FC000013530
BFE9ACEFE500
BFFFFFEB3000
486431000000
ENDCHAR
STARTCHAR mu
ENCODING 181
SWIDTH 813 0
DWIDTH 15 0
BBX 15 16 0 -4
BITMAP
0004333101333300
01B300031A000210
1CF30003AD000210
5FF3030AFD030210
5FF3030BFD030210
5FF3030BFD030210
5FF3030BFD030210
5FF30309FA030210
5FF3060000030200
5FF3032333300100
5FF3030000000000
5FF3030000021000
5FF3000ADDD30000
5FFECCCEC8100000
5FFFFA0000000000
1777600000000000
ENDCHAR
STARTCHAR paragraph
ENCODING 182
SWIDTH 782 0
DWIDTH 14 0
BBX 14 16 0 -2
BITMAP
00013333333332
00250000000003
03D00333333303
2EC03000000303
9FB03000000303
BFB03000000303
CFB03000000303
CFD03000000303
CFF30334333403
AFFD4003000303
5FFFF703290303
07EFF7033B0303
001FF7003B0003
001FFA337D4342
001FFFFFFFFE40
000DFFBAFFD300
ENDCHAR
STARTCHAR periodcentered
ENCODING 183
SWIDTH 464 0
DWIDTH 8 0
BBX 8 8 0 2
BITMAP
00233333
03C00003
4ED00203
9FD00303
9FD00003
9FE43335
9FFFFFC1
7FFFFA10
ENDCHAR
STARTCHAR cedilla
ENCODING 184
SWIDTH 600 0
DWIDTH 11 0
BBX 8 8 1 -5
BITMAP
00002110
00075013
009E1303
02FA0303
07F40013
0DF54460
3FFFFB10
6FFF9000
ENDCHAR
STARTCHAR onesuperior
ENCODING 185
SWIDTH 557 0
DWIDTH 10 0
BBX 10 13 0 1
BITMAP
0045333400
04F3232210
3FF3002210
5FFEC02210
4FFFD02210
04BFD02210
00AFD02210
00A9702132
06E0223213
6FE0000003
8FFFFFFFE3
8FFFFFFC20
1344443100
ENDCHAR
STARTCHAR ordmasculine
ENCODING 186
SWIDTH 625 0
DWIDTH 11 0
BBX 11 16 0 -2
BITMAP
000233333310
005213332030
07D030001230
5FC022EA0230
AFC023FC0230
BFC023FC0230
BFC023FC0230
BFC031961230
BFD012222030
BFF500000030
9FFFB7668500
2EF999997330
09C022222130
8FD433333360
BFFFFFFFFD30
9FFFFFFFB100
ENDCHAR
STARTCHAR guillemotright
ENCODING 187
SWIDTH 912 0
DWIDTH 16 0
BBX 16 12 0 -1
BITMAP
0057663019665200
07F20026D9000461
4FF2132049023104
5FF600030C100213
5FFFE8030DFB2023
2EFB51030D830123
01D303311A013303
1CF21002B9010042
5FF327BFFA048C40
5FFFFE6DFFEFD200
5FFB710DFEA50000
1410000430000000
ENDCHAR
STARTCHAR onequarter
ENCODING 188
SWIDTH 1303 0
DWIDTH 23 0
BBX 23 16 0 -2
BITMAP
004533340005333300000000
07F32322106B000200000000
4FF3002216F9031100000000
5FFEC0221BF6032433223330
3CEFD0221DF42165005C0030
00AFD0222FF1309530BE0330
00AFD0224FD030B530BE0330
00A970215CB030E530BE0330
06E02232168032F530460330
6FE00000075124F621000330
8FFFFFFFFF3307F903333330
8FFFFFFEFF030AFF74430330
13444435FC000CFFFFFE0130
00000007FC4343ACCEFE4340
0000000AFFFE300009FFFD20
0000000AFFD2000007FFC100
ENDCHAR
STARTCHAR onehalf
ENCODING 189
SWIDTH 1260 0
DWIDTH 23 0
BBX 23 16 0 -2
BITMAP
004533340005333300000000
05F32322106B000300000000
3FF3002216F9031200000000
5FFEC0221BF6032333333100
4FFFD0221DF4215600000300
03BFD0222FF1309613331110
00AFD0224FD030B933303030
00A970215CB030EFFEA03020
06E022321680319D51122200
6FE000000751239423102400
8FFFFFFFFF3307F0304A7000
8FFFFFFEFF030AE021983310
13444435FC000CE032222030
00000007FC434FF433333430
0000000AFFFECFFFFFFFF600
0000000AFFD27FFFFFFD3000
ENDCHAR
STARTCHAR threequarters
ENCODING 190
SWIDTH 1313 0
DWIDTH 24 0
BBX 24 16 0 -2
BITMAP
007333334003433300000000
09E02332034E000300000000
7FF0000306FC030300000000
8FFE65120AF9031433213331
7FFF00032AF60237003C1003
02DF156521F42168118F1303
07FFFFF220E13098118F1303
07F3332030D030B8118F1303
09E0233322B030E811381303
6FF100002B8031F802000303
8FFFFFFFFF5124FB02333403
8FFFFFE8EF3207FF94440303
13444312FF0009FFFFFF1103
00000004FE43438BCDFF5331
00000007FFFF500006FFFE30
00000007FFE4000005FFD200
ENDCHAR
STARTCHAR questiondown
ENCODING 191
SWIDTH 756 0
DWIDTH 14 0
BBX 14 16 0 -2
BITMAP
00000044333400
000004F0000300
00003FF0020300
00007FF1000300
00007FFA999500
00007FEC976400
00065100000300
00A30222320300
0BE01200000300
6FD012079BB200
9FD00308994331
9FF00333333103
9FF60000000003
8FFFA543333342
2EFFFFFFFFFE50
03AEFFFFFFD300
ENDCHAR
STARTCHAR Agrave
ENCODING 192
SWIDTH 830 0
DWIDTH 15 0
BBX 15 20 0 -2
BITMAP
00008BBBA8640000
001AD01344576000
009FD00002203000
00AFF53100002000
009FFC8875331000
0027E30000003000
0009C01333103000
004F602020202100
00AF1011F4110300
01FA0106F8010300
06F5010AFD010120
0CF2020000002030
2FF1143333333030
5FF1120000003030
7FF1120444103030
7FF1120FFF303030
7FF1010FFF301030
7FF53357FF733430
7FFFFE55FFFFF600
5FFFC203EFFE4000
ENDCHAR
STARTCHAR Aacute
ENCODING 193
SWIDTH 830 0
DWIDTH 15 0
BBX 15 21 0 -2
BITMAP
0000000001341000
000018ACEFDB7000
0003D87643203000
004ED00000001000
00AFD00001333000
00AFF32023341000
009FF10000003000
001CB01333103000
004F502020201200
00AE0011F4110300
01F90106F8010300
06F5010AFD010120
0CF2020000002030
2FF1143333333030
5FF1120000003030
7FF1120444103030
7FF1120FFF303030
7FF1010FFF301030
7FF53357FF733430
7FFFFE55FFFFF500
5FFFC203EFFE4000
ENDCHAR
STARTCHAR Acircumflex
ENCODING 194
SWIDTH 830 0
DWIDTH 15 0
BBX 15 21 0 -2
BITMAP
0000000333100000
0000033000231000
0001A01333103000
001CD01000103000
009FE37BEC843000
00AFFD88888A1000
009FF30000003000
002BC01333103000
004F602020202100
00AF1011F4110300
01FA0106F8010300
06F6010AFD010120
0CF2020000002030
2FF1143333333030
5FF1120000003030
7FF1120444103030
7FF1120FFF303030
7FF1010FFF301030
7FF53357FF733430
7FFFFE55FFFFF600
5FFFC203EFFE4000
ENDCHAR
STARTCHAR Atilde
ENCODING 195
SWIDTH 830 0
DWIDTH 15 0
BBX 15 21 0 -2
BITMAP
0000033333253000
0000610000203000
0007D02332103000
006FD00002202000
00AFE36742042000
00AFFD9999970000
009FF30000003000
001AD01333103000
004F702020202100
00AF1011F4110300
01FB0106F8010300
06F6010AFD010220
0CF2020000002030
2FF1143333333030
5FF1120000003030
7FF1120444103030
7FF1120FFF303030
7FF1010FFF301030
7FF53357FF733430
7FFFFE55FFFFF600
5FFFC203EFFE4000
ENDCHAR
STARTCHAR Adieresis
ENCODING 196
SWIDTH 830 0
DWIDTH 15 0
BBX 15 21 0 -2
BITMAP
0000333313333000
00067000C2003000
006F6020D1203000
01FF6000D1003000
01FF8001E3003000
01FFFECCCCCD3000
00FFF40000012000
002BD01333103000
004F702020202000
00AF2011F4110300
01FB0106F8010300
06F6010AFD010210
0CF2020000002030
2FF1143333333030
5FF1120000003030
7FF1120444103030
7FF1120FFF303030
7FF1010FFF301030
7FF53357FF733430
7FFFFE55FFFFF600
5FFFC203EFFE4000
ENDCHAR
STARTCHAR Aring
ENCODING 197
SWIDTH 830 0
DWIDTH 15 0
BBX 15 21 0 -2
BITMAP
0000003333310000
0000241333222000
0003C04000313000
003EB034F9033000
00AFB035FA033000
00BFE03031313000
00BFF21333303000
009FC01333103000
006F602020202100
00BF1011F4110300
02FA0106F8010300
07F5010AFD010120
0CF2020000002030
2FF1143333333030
5FF1120000003030
7FF1120444103030
7FF1120FFF303030
7FF1010FFF301030
7FF53357FF733430
7FFFFE55FFFFF600
5FFFC203EFFE4000
ENDCHAR
STARTCHAR AE
ENCODING 198
SWIDTH 1105 0
DWIDTH 20 0
BBX 20 16 0 -2
BITMAP
00002533333333333332
0002C000000000000003
002E9023333343333203
008F4030340120444443
00DD0121FF0120EFFF60
04F80306FF0120333500
09F4030BFF0143330300
0EF21200000120000300
3FF114333333209AAB00
6FF11100000120EFE300
7FF11104430120895331
7FF1110FFF0043333203
7FF1000FFF0000000003
7FF53359FF5333333343
7FFFFE48FFFFFFFFFF70
5FFFC206FFFFFFFFE500
ENDCHAR
STARTCHAR Ccedilla
ENCODING 199
SWIDTH 728 0
DWIDTH 13 0
BBX 13 19 0 -5
BITMAP
00003333333340
00051133333030
00A50300000030
0AF20301344440
2FF2030BFFFA00
5FF2030CFF8000
6FF20303000000
6FF20303000000
6FF20303000000
6FF20303000000
6FF30303333320
5FF80133343030
4FFE5000210030
0DFFFD70305870
05FFFF7000CB10
003AEF40038000
0000EFFFE50000
0004FFFD300000
00003431000000
ENDCHAR
STARTCHAR Egrave
ENCODING 200
SWIDTH 754 0
DWIDTH 14 0
BBX 14 21 0 -2
BITMAP
00004420000000
0009CCEFDBA500
01BF3033576900
05FF3000000300
05FF8420000100
04F83333113141
01D50000000012
1DF50333333112
3FF50301222241
3FF5030AFFFE30
3FF50303555500
3FF50433320300
3FF50300000300
3FF50304666600
3FF5030AFFB100
3FF50306993330
3FF50333333112
3FF50000000012
3FF83333333351
3FFFFFFFFFFE40
1EFFFFFFFFC200
ENDCHAR
STARTCHAR Eacute
ENCODING 201
SWIDTH 754 0
DWIDTH 14 0
BBX 14 21 0 -2
BITMAP
00000000013510
000039BCEEDB60
0004D776432030
006FB000000010
00CFB000012410
00C82320233341
03E50000000012
1EF50333333112
3FF50301222241
3FF5030AFFFE30
3FF50303555500
3FF50433320300
3FF50300000300
3FF50304666600
3FF5030AFFB100
3FF50306993330
3FF50333333112
3FF50000000012
3FF83333333351
3FFFFFFFFFFE40
1EFFFFFFFFC200
ENDCHAR
STARTCHAR Ecircumflex
ENCODING 202
SWIDTH 754 0
DWIDTH 14 0
BBX 14 21 0 -2
BITMAP
00000023330000
00002320014400
00066023330210
009F5000100210
02FF86BFFC7400
02F83333333341
03F50000000012
1DF50333333112
3FF50301222241
3FF5030AFFFE30
3FF50303555500
3FF50433320300
3FF50300000300
3FF50304666600
3FF5030AFFB100
3FF50306993330
3FF50333333112
3FF50000000012
3FF83333333351
3FFFFFFFFFFE40
1EFFFFFFFFC200
ENDCHAR
STARTCHAR Edieresis
ENCODING 203
SWIDTH 754 0
DWIDTH 14 0
BBX 14 21 0 -2
BITMAP
00003333233320
000B2003B00030
00AF2213C02030
05FF2003C00030
06FF3005D00010
06FECCCCCCCCB1
05F50000000012
0AF50333333112
3FF50301222231
3FF5030AFFFE30
3FF50303555500
3FF50433320300
3FF50300000300
3FF50304666600
3FF5030AFFB100
3FF50306993330
3FF50333333112
3FF50000000012
3FF83333333351
3FFFFFFFFFFE40
1EFFFFFFFFC200
ENDCHAR
STARTCHAR Igrave
ENCODING 204
SWIDTH 705 0
DWIDTH 13 0
BBX 13 21 0 -2
BITMAP
00015310000000
003DBDEECB8200
04EB0234677600
0CFB0000000300
0CFD5310000000
0BF53332023310
04F00000000030
3EF01334331030
7FF10003000120
7FFCB50304B500
7FFFF703067000
278FF703030000
001FF703030000
001FF703030000
001FF703030000
002A9403023300
03D11334331020
3EF00000000030
7FF53333333520
7FFFFFFFFFE400
5FFFFFFFFC2000
ENDCHAR
STARTCHAR Iacute
ENCODING 205
SWIDTH 705 0
DWIDTH 13 0
BBX 13 21 0 -2
BITMAP
00000000134100
00029BCEEDB600
004D7764320300
06FB0000000100
0CFB0000124100
0CF43202333410
0BF00000000030
2DF01334331030
7FF10003000120
7FFCB50304B500
7FFFF703067000
278FF703030000
001FF703030000
001FF703030000
001FF703030000
002A9403023300
03D11334331020
3EF00000000030
7FF53333333520
7FFFFFFFFFE400
5FFFFFFFFC2000
ENDCHAR
STARTCHAR Icircumflex
ENCODING 206
SWIDTH 705 0
DWIDTH 13 0
BBX 13 21 0 -2
BITMAP
00000033310000
00013200034100
00290133310300
03DB0001000300
0BFC59EFD95200
0CF53333333410
0CF00000000030
2DF01334331030
7FF10003000120
7FFCB50304B500
7FFFF703067000
278FF703030000
001FF703030000
001FF703030000
001FF703030000
002A9403023300
03D11334331020
3EF00000000030
7FF53333333520
7FFFFFFFFFE400
5FFFFFFFFC2000
ENDCHAR
STARTCHAR Idieresis
ENCODING 207
SWIDTH 705 0
DWIDTH 13 0
BBX 13 21 0 -2
BITMAP
00033331333200
0085000D000300
08F4020E020300
2FF4000E000300
3FF6002F100100
3FFDCCCCCCCB10
2FF10000000130
2DF01334331030
7FF10003000120
7FFCB50304B500
7FFFF703067000
278FF703030000
001FF703030000
001FF703030000
001FF703030000
002A9403023300
03D11334331020
3EF00000000030
7FF53333333520
7FFFFFFFFFE400
5FFFFFFFFC2000
ENDCHAR
STARTCHAR Eth
ENCODING 208
SWIDTH 856 0
DWIDTH 15 0
BBX 16 16 -1 -2
BITMAP
0001633333333320
001C700000000032
00CF703333333004
00FF703000001303
00FF70307FF60303
00FD40304BF80303
00F7003002F80303
08F7035311F80303
1FF9103015F80303
1FFF70306FF80303
0BFF703024410303
00FF703333333003
00FF700000000022
00FFA33333345720
00FFFFFFFFFFC200
00DFFFFFFFD81000
ENDCHAR
STARTCHAR Ntilde
ENCODING 209
SWIDTH 853 0
DWIDTH 15 0
BBX 15 21 0 -2
BITMAP
0000023333244000
0000630000103000
0006F11332103000
004FF10001302000
007FF46752021000
0078337FFF933330
02D50007FF600030
1EF505109F603030
3FF503300C603030
3FF5030402403030
3FF5030040003030
3FF5030013003030
3FF5030601203030
3FF5030A80223030
3FF5030AF5034030
3FF5030AFE203030
3FF5030AFF603030
3FF50009FF600030
3FF83345FF933330
3FFFFF72FFFFF700
1EFFE501EFFE5000
ENDCHAR
STARTCHAR Ograve
ENCODING 210
SWIDTH 837 0
DWIDTH 15 0
BBX 15 21 0 -2
BITMAP
00003A9753100000
0005EBDFFFFE6000
005FE00246778000
009FE00000003000
009FF51577633000
004C600012460300
0026003333310210
03E4030000030030
1EF20307CA103030
4FF2030CFF303030
6FF2030BFF303030
6FF20307FF303030
6FF20307FF303030
6FF20307FF303030
6FF20306FD203030
6FF3030000030030
6FF6003333310120
4FFE300000000400
1EFFFA6444587000
05FFFFFFFFF60000
0029DEFED9300000
ENDCHAR
STARTCHAR Oacute
ENCODING 211
SWIDTH 837 0
DWIDTH 15 0
BBX 15 21 0 -2
BITMAP
00000013579B5000
00005EFFFFEB9000
0008F87643103000
007FE00000013000
009FE14776352000
009F665310002300
0058003333310110
03E4030000030030
0DF20307CA103030
4FF2030CFF303030
6FF2030BFF303030
6FF20307FF303030
6FF20307FF303030
6FF20307FF303030
6FF20306FD203030
6FF3030000030030
6FF6003333310120
4FFE300000000400
1EFFFA6444586000
05FFFFFFFFF60000
0029DEFED9300000
ENDCHAR
STARTCHAR Ocircumflex
ENCODING 212
SWIDTH 837 0
DWIDTH 15 0
BBX 15 21 0 -2
BITMAP
0000000233200000
0000101333222000
0003C01000103000
004EE37CFD944000
009FFA6434584000
009E300000000300
0066003333310120
03E3030000030030
0DF20307CA103030
4FF2030CFF303030
6FF2030BFF303030
6FF20307FF303030
6FF20307FF303030
6FF20307FF303030
6FF20306FD203030
6FF3030000030030
6FF6003333310120
4FFE300000001300
1EFFFA6444586000
05FFFFFFFFF60000
0029DEFED9300000
ENDCHAR
STARTCHAR Otilde
ENCODING 213
SWIDTH 837 0
DWIDTH 15 0
BBX 15 21 0 -2
BITMAP
0000033333243000
0000810000203000
000AE02332103000
007FE00001203000
009FE36742031000
009FEA6434564000
005D203333310400
03E5030000030020
0DF30307CA103030
4FF2030CFF303030
6FF2030BFF303030
6FF20307FF303030
6FF20307FF303030
6FF20307FF303030
6FF20306FD203030
6FF3030000030030
6FF5003333310030
4FFD200000000500
1EFFFA6444588000
05FFFFFFFFF70000
0029DEFED9300000
ENDCHAR
STARTCHAR Odieresis
ENCODING 214
SWIDTH 837 0
DWIDTH 15 0
BBX 15 21 0 -2
BITMAP
0000333313333000
00077000B2003000
009F7020C2113000
00FF7000C2003000
00FF9001E4003000
00FFFDA8789B5000
006E503333312400
03D7030000030120
0DF30307CA103030
4FF2030CFF303030
5FF2030BFF303030
6FF20307FF303030
6FF20307FF303030
6FF20307FF303030
6FF20306FD203030
6FF2030000030030
6FF5003333310030
4FFD200000000500
1EFFEA6444588100
05FFFFFFFFF80000
0029DEFED9300000
ENDCHAR
STARTCHAR multiply
ENCODING 215
SWIDTH 834 0
DWIDTH 15 0
BBX 13 13 1 -1
BITMAP
00021200021200
00420030420030
06B00106201040
5FF70310031220
DFFF6031312300
3EFFF206104000
04FF6031312300
00770310031230
02A0000A301040
2DE300AFE20020
BFFE37FFFD2100
7FFF908FFE5000
07F60007D30000
ENDCHAR
STARTCHAR Oslash
ENCODING 216
SWIDTH 837 0
DWIDTH 15 0
BBX 15 20 0 -4
BITMAP
0000000000333300
0000000005100300
0000233333010300
0004103333510300
0095040000321030
0AF2121CA1103030
2FF2212F53003030
5FF2212D12303030
6FF2212831803030
6FF2212237903030
6FF221020D903030
6FF212034F703030
6FF3042112032030
6FF7005333310130
5FFE303000000400
1FFF300244587000
08FF433DFFF70000
03FFFFFED9300000
07FFE40000000000
0011000000000000
ENDCHAR
STARTCHAR Ugrave
ENCODING 217
SWIDTH 846 0
DWIDTH 15 0
BBX 15 21 0 -2
BITMAP
0000153100000000
0002CBDEEDB92000
003ED01346777000
00AFC00000003000
00AFE53100000000
0097333CEC432330
04E30106CF501030
3FF30305FF503030
4FF30306FF503030
4FF30306FF503030
4FF30306FF503030
4FF30306FF503030
4FF30306FF503030
4FF30306FF503030
4FF30303BA203030
4FF4031000031030
4FF7002333310030
2FFE300000000400
0DFFFA6444587000
04EFFFFFFFF70000
0028CEFEDA300000
ENDCHAR
STARTCHAR Uacute
ENCODING 218
SWIDTH 846 0
DWIDTH 15 0
BBX 15 21 0 -2
BITMAP
0000000000243000
000007ACDFECB000
0001BA6753303000
001DF30000001000
005FF30000205000
00573129DF833330
04E301046E501030
3FF30305FF503030
4FF30306FF503030
4FF30306FF503030
4FF30306FF503030
4FF30306FF503030
4FF30306FF503030
4FF30306FF503030
4FF30303BA203030
4FF4031000031030
4FF7002333310030
2FFE300000000400
0DFFFA6444587000
04EFFFFFFFF70000
0028CEFEDA300000
ENDCHAR
STARTCHAR Ucircumflex
ENCODING 219
SWIDTH 846 0
DWIDTH 15 0
BBX 15 21 0 -2
BITMAP
0000000233100000
0000012333211000
0001C01100202000
002DF01598303000
007FFDFFFFFE7000
0087333CFF833330
04E30004AF501030
3FF30304FF503030
4FF30306FF503030
4FF30306FF503030
4FF30306FF503030
4FF30306FF503030
4FF30306FF503030
4FF30306FF503030
4FF30305FE303030
4FF4031000031030
4FF7002333310030
2FFE300000000400
0DFFFA6444587000
04EFFFFFFFF70000
0028CEFEDA300000
ENDCHAR
STARTCHAR Udieresis
ENCODING 220
SWIDTH 846 0
DWIDTH 15 0
BBX 15 21 0 -2
BITMAP
0000333314333000
00069000A4002100
008F9020B4021100
00EF9000B4001100
00EFA000C5001000
00EDCCCFFFECCC50
08F4000AFF500030
4FF30204CF502030
4FF30306FF503030
4FF30306FF503030
4FF30306FF503030
4FF30306FF503030
4FF30306FF503030
4FF30306FF503030
4FF30304CB203030
4FF4031000031030
4FF7002333310030
2FFE300000000400
0DFFFA6444587000
04EFFFFFFFF70000
0028CEFEDA300000
ENDCHAR
STARTCHAR Yacute
ENCODING 221
SWIDTH 805 0
DWIDTH 14 0
BBX 15 21 0 -2
BITMAP
0000000001351000
000028ACEFDB7000
0004D77643203000
005FC00000001000
00AFC00001232000
00B4330CEF433410
09D000159F000120
7FD03018FF021120
9FD0301AFF021120
9FD0210BFC020120
9FE00305F4030210
9FF6012020210400
8FFE203001202100
3FFFC00242012000
08FFF90030030000
00CFFF3030300000
002EFF5030300000
0006FF5000300000
0003FF9333300000
0003FFFFF9000000
0001EFFF70000000
ENDCHAR
STARTCHAR Thorn
ENCODING 222
SWIDTH 792 0
DWIDTH 14 0
BBX 14 16 0 -2
BITMAP
00263333000000
03E50003000000
1EF50302333320
3FF50533333013
3FF50300000303
3FF50300000303
3FF5030AFA0303
3FF5030AFC0303
3FF50308D80303
3FF50300000303
3FF50533333013
3FF50302334730
3FF50009FFE300
3FF8333CD92000
3FFFFF70000000
1EFFE500000000
ENDCHAR
STARTCHAR germandbls
ENCODING 223
SWIDTH 859 0
DWIDTH 15 0
BBX 16 16 0 -2
BITMAP
0026333333344000
03E5000000001300
1EF5033333300300
3FF5030010030300
3FF50309F2210200
3FF50309E0301310
3FF50309B0332030
3FF5030980002102
3FF50309ECB00203
3FF50309FFE00203
3FF5030990002103
3FF5020970332012
3FF5000970000030
3FF8333CB3335610
3FFFFFFFFFFF9000
1EFFE6DFFEC60000
ENDCHAR
STARTCHAR agrave
ENCODING 224
SWIDTH 830 0
DWIDTH 15 0
BBX 15 20 0 -2
BITMAP
00008BBBA8640000
001AD01344576000
009FD00002203000
00AFF53100002000
009FFC8875331000
0027E30000003000
0009C01333103000
004F602020202100
00AF1011F4110300
01FA0106F8010300
06F5010AFD010120
0CF2020000002030
2FF1143333333030
5FF1120000003030
7FF1120444103030
7FF1120FFF303030
7FF1010FFF301030
7FF53357FF733430
7FFFFE55FFFFF600
5FFFC203EFFE4000
ENDCHAR
STARTCHAR aacute
ENCODING 225
SWIDTH 830 0
DWIDTH 15 0
BBX 15 21 0 -2
BITMAP
0000000001341000
000018ACEFDB7000
0003D87643203000
004ED00000001000
00AFD00001333000
00AFF32023341000
009FF10000003000
001CB01333103000
004F502020201200
00AE0011F4110300
01F90106F8010300
06F5010AFD010120
0CF2020000002030
2FF1143333333030
5FF1120000003030
7FF1120444103030
7FF1120FFF303030
7FF1010FFF301030
7FF53357FF733430
7FFFFE55FFFFF500
5FFFC203EFFE4000
ENDCHAR
STARTCHAR acircumflex
ENCODING 226
SWIDTH 830 0
DWIDTH 15 0
BBX 15 21 0 -2
BITMAP
0000000333100000
0000033000231000
0001A01333103000
001CD01000103000
009FE37BEC843000
00AFFD88888A1000
009FF30000003000
002BC01333103000
004F602020202100
00AF1011F4110300
01FA0106F8010300
06F6010AFD010120
0CF2020000002030
2FF1143333333030
5FF1120000003030
7FF1120444103030
7FF1120FFF303030
7FF1010FFF301030
7FF53357FF733430
7FFFFE55FFFFF600
5FFFC203EFFE4000
ENDCHAR
STARTCHAR atilde
ENCODING 227
SWIDTH 830 0
DWIDTH 15 0
BBX 15 21 0 -2
BITMAP
0000033333253000
0000610000203000
0007D02332103000
006FD00002202000
00AFE36742042000
00AFFD9999970000
009FF30000003000
001AD01333103000
004F702020202100
00AF1011F4110300
01FB0106F8010300
06F6010AFD010220
0CF2020000002030
2FF1143333333030
5FF1120000003030
7FF1120444103030
7FF1120FFF303030
7FF1010FFF301030
7FF53357FF733430
7FFFFE55FFFFF600
5FFFC203EFFE4000
ENDCHAR
STARTCHAR adieresis
ENCODING 228
SWIDTH 830 0
DWIDTH 15 0
BBX 15 21 0 -2
BITMAP
0000333313333000
00067000C2003000
006F6020D1203000
01FF6000D1003000
01FF8001E3003000
01FFFECCCCCD3000
00FFF40000012000
002BD01333103000
004F702020202000
00AF2011F4110300
01FB0106F8010300
06F6010AFD010210
0CF2020000002030
2FF1143333333030
5FF1120000003030
7FF1120444103030
7FF1120FFF303030
7FF1010FFF301030
7FF53357FF733430
7FFFFE55FFFFF600
5FFFC203EFFE4000
ENDCHAR
STARTCHAR aring
ENCODING 229
SWIDTH 830 0
DWIDTH 15 0
BBX 15 21 0 -2
BITMAP
0000003333310000
0000241333222000
0003C04000313000
003EB034F9033000
00AFB035FA033000
00BFE03031313000
00BFF21333303000
009FC01333103000
006F602020202100
00BF1011F4110300
02FA0106F8010300
07F5010AFD010120
0CF2020000002030
2FF1143333333030
5FF1120000003030
7FF1120444103030
7FF1120FFF303030
7FF1010FFF301030
7FF53357FF733430
7FFFFE55FFFFF600
5FFFC203EFFE4000
ENDCHAR
STARTCHAR ae
ENCODING 230
SWIDTH 1105 0
DWIDTH 20 0
BBX 20 16 0 -2
BITMAP
00002533333333333332
0002C000000000000003
002E9023333343333203
008F4030340120444443
00DD0121FF0120EFFF60
04F80306FF0120333500
09F4030BFF0143330300
0EF21200000120000300
3FF114333333209AAB00
6FF11100000120EFE300
7FF11104430120895331
7FF1110FFF0043333203
7FF1000FFF0000000003
7FF53359FF5333333343
7FFFFE48FFFFFFFFFF70
5FFFC206FFFFFFFFE500
ENDCHAR
STARTCHAR ccedilla
ENCODING 231
SWIDTH 728 0
DWIDTH 13 0
BBX 13 19 0 -5
BITMAP
00003333333340
00051133333030
00A50300000030
0AF20301344440
2FF2030BFFFA00
5FF2030CFF8000
6FF20303000000
6FF20303000000
6FF20303000000
6FF20303000000
6FF30303333320
5FF80133343030
4FFE5000210030
0DFFFD70305870
05FFFF7000CB10
003AEF40038000
0000EFFFE50000
0004FFFD300000
00003431000000
ENDCHAR
STARTCHAR egrave
ENCODING 232
SWIDTH 754 0
DWIDTH 14 0
BBX 14 21 0 -2
BITMAP
00004420000000
0009CCEFDBA500
01BF3033576900
05FF3000000300
05FF8420000100
04F83333113141
01D50000000012
1DF50333333112
3FF50301222241
3FF5030AFFFE30
3FF50303555500
3FF50433320300
3FF50300000300
3FF50304666600
3FF5030AFFB100
3FF50306993330
3FF50333333112
3FF50000000012
3FF83333333351
3FFFFFFFFFFE40
1EFFFFFFFFC200
ENDCHAR
STARTCHAR eacute
ENCODING 233
SWIDTH 754 0
DWIDTH 14 0
BBX 14 21 0 -2
BITMAP
00000000013510
000039BCEEDB60
0004D776432030
006FB000000010
00CFB000012410
00C82320233341
03E50000000012
1EF50333333112
3FF50301222241
3FF5030AFFFE30
3FF50303555500
3FF50433320300
3FF50300000300
3FF50304666600
3FF5030AFFB100
3FF50306993330
3FF50333333112
3FF50000000012
3FF83333333351
3FFFFFFFFFFE40
1EFFFFFFFFC200
ENDCHAR
STARTCHAR ecircumflex
ENCODING 234
SWIDTH 754 0
DWIDTH 14 0
BBX 14 21 0 -2
BITMAP
00000023330000
00002320014400
00066023330210
009F5000100210
02FF86BFFC7400
02F83333333341
03F50000000012
1DF50333333112
3FF50301222241
3FF5030AFFFE30
3FF50303555500
3FF50433320300
3FF50300000300
3FF50304666600
3FF5030AFFB100
3FF50306993330
3FF50333333112
3FF50000000012
3FF83333333351
3FFFFFFFFFFE40
1EFFFFFFFFC200
ENDCHAR
STARTCHAR edieresis
ENCODING 235
SWIDTH 754 0
DWIDTH 14 0
BBX 14 21 0 -2
BITMAP
00003333233320
000B2003B00030
00AF2213C02030
05FF2003C00030
06FF3005D00010
06FECCCCCCCCB1
05F50000000012
0AF50333333112
3FF50301222231
3FF5030AFFFE30
3FF50303555500
3FF50433320300
3FF50300000300
3FF50304666600
3FF5030AFFB100
3FF50306993330
3FF50333333112
3FF50000000012
3FF83333333351
3FFFFFFFFFFE40
1EFFFFFFFFC200
ENDCHAR
STARTCHAR igrave
ENCODING 236
SWIDTH 705 0
DWIDTH 13 0
BBX 13 21 0 -2
BITMAP
00015310000000
003DBDEECB8200
04EB0234677600
0CFB0000000300
0CFD5310000000
0BF53332023310
04F00000000030
3EF01334331030
7FF10003000120
7FFCB50304B500
7FFFF703067000
278FF703030000
001FF703030000
001FF703030000
001FF703030000
002A9403023300
03D11334331020
3EF00000000030
7FF53333333520
7FFFFFFFFFE400
5FFFFFFFFC2000
ENDCHAR
STARTCHAR iacute
ENCODING 237
SWIDTH 705 0
DWIDTH 13 0
BBX 13 21 0 -2
BITMAP
00000000134100
00029BCEEDB600
004D7764320300
06FB0000000100
0CFB0000124100
0CF43202333410
0BF00000000030
2DF01334331030
7FF10003000120
7FFCB50304B500
7FFFF703067000
278FF703030000
001FF703030000
001FF703030000
001FF703030000
002A9403023300
03D11334331020
3EF00000000030
7FF53333333520
7FFFFFFFFFE400
5FFFFFFFFC2000
ENDCHAR
STARTCHAR icircumflex
ENCODING 238
SWIDTH 705 0
DWIDTH 13 0
BBX 13 21 0 -2
BITMAP
00000033310000
00013200034100
00290133310300
03DB0001000300
0BFC59EFD95200
0CF53333333410
0CF00000000030
2DF01334331030
7FF10003000120
7FFCB50304B500
7FFFF703067000
278FF703030000
001FF703030000
001FF703030000
001FF703030000
002A9403023300
03D11334331020
3EF00000000030
7FF53333333520
7FFFFFFFFFE400
5FFFFFFFFC2000
ENDCHAR
STARTCHAR idieresis
ENCODING 239
SWIDTH 705 0
DWIDTH 13 0
BBX 13 21 0 -2
BITMAP
00033331333200
0085000D000300
08F4020E020300
2FF4000E000300
3FF6002F100100
3FFDCCCCCCCB10
2FF10000000130
2DF01334331030
7FF10003000120
7FFCB50304B500
7FFFF703067000
278FF703030000
001FF703030000
001FF703030000
001FF703030000
002A9403023300
03D11334331020
3EF00000000030
7FF53333333520
7FFFFFFFFFE400
5FFFFFFFFC2000
ENDCHAR
STARTCHAR eth
ENCODING 240
SWIDTH 856 0
DWIDTH 15 0
BBX 16 16 -1 -2
BITMAP
0001633333333320
001C700000000032
00CF703333333004
00FF703000001303
00FF70307FF60303
00FD40304BF80303
00F7003002F80303
08F7035311F80303
1FF9103015F80303
1FFF70306FF80303
0BFF703024410303
00FF703333333003
00FF700000000022
00FFA33333345720
00FFFFFFFFFFC200
00DFFFFFFFD81000
ENDCHAR
STARTCHAR ntilde
ENCODING 241
SWIDTH 853 0
DWIDTH 15 0
BBX 15 21 0 -2
BITMAP
0000023333244000
0000630000103000
0006F11332103000
004FF10001302000
007FF46752021000
0078337FFF933330
02D50007FF600030
1EF505109F603030
3FF503300C603030
3FF5030402403030
3FF5030040003030
3FF5030013003030
3FF5030601203030
3FF5030A80223030
3FF5030AF5034030
3FF5030AFE203030
3FF5030AFF603030
3FF50009FF600030
3FF83345FF933330
3FFFFF72FFFFF700
1EFFE501EFFE5000
ENDCHAR
STARTCHAR ograve
ENCODING 242
SWIDTH 837 0
DWIDTH 15 0
BBX 15 21 0 -2
BITMAP
00003A9753100000
0005EBDFFFFE6000
005FE00246778000
009FE00000003000
009FF51577633000
004C600012460300
0026003333310210
03E4030000030030
1EF20307CA103030
4FF2030CFF303030
6FF2030BFF303030
6FF20307FF303030
6FF20307FF303030
6FF20307FF303030
6FF20306FD203030
6FF3030000030030
6FF6003333310120
4FFE300000000400
1EFFFA6444587000
05FFFFFFFFF60000
0029DEFED9300000
ENDCHAR
STARTCHAR oacute
ENCODING 243
SWIDTH 837 0
DWIDTH 15 0
BBX 15 21 0 -2
BITMAP
00000013579B5000
00005EFFFFEB9000
0008F87643103000
007FE00000013000
009FE14776352000
009F665310002300
0058003333310110
03E4030000030030
0DF20307CA103030
4FF2030CFF303030
6FF2030BFF303030
6FF20307FF303030
6FF20307FF303030
6FF20307FF303030
6FF20306FD203030
6FF3030000030030
6FF6003333310120
4FFE300000000400
1EFFFA6444586000
05FFFFFFFFF60000
0029DEFED9300000
ENDCHAR
STARTCHAR ocircumflex
ENCODING 244
SWIDTH 837 0
DWIDTH 15 0
BBX 15 21 0 -2
BITMAP
0000000233200000
0000101333222000
0003C01000103000
004EE37CFD944000
009FFA6434584000
009E300000000300
0066003333310120
03E3030000030030
0DF20307CA103030
4FF2030CFF303030
6FF2030BFF303030
6FF20307FF303030
6FF20307FF303030
6FF20307FF303030
6FF20306FD203030
6FF3030000030030
6FF6003333310120
4FFE300000001300
1EFFFA6444586000
05FFFFFFFFF60000
0029DEFED9300000
ENDCHAR
STARTCHAR otilde
ENCODING 245
SWIDTH 837 0
DWIDTH 15 0
BBX 15 21 0 -2
BITMAP
0000033333243000
0000810000203000
000AE02332103000
007FE00001203000
009FE36742031000
009FEA6434564000
005D203333310400
03E5030000030020
0DF30307CA103030
4FF2030CFF303030
6FF2030BFF303030
6FF20307FF303030
6FF20307FF303030
6FF20307FF303030
6FF20306FD203030
6FF3030000030030
6FF5003333310030
4FFD200000000500
1EFFFA6444588000
05FFFFFFFFF70000
0029DEFED9300000
ENDCHAR
STARTCHAR odieresis
ENCODING 246
SWIDTH 837 0
DWIDTH 15 0
BBX 15 21 0 -2
BITMAP
0000333313333000
00077000B2003000
009F7020C2113000
00FF7000C2003000
00FF9001E4003000
00FFFDA8789B5000
006E503333312400
03D7030000030120
0DF30307CA103030
4FF2030CFF303030
5FF2030BFF303030
6FF20307FF303030
6FF20307FF303030
6FF20307FF303030
6FF20306FD203030
6FF2030000030030
6FF5003333310030
4FFD200000000500
1EFFEA6444588100
05FFFFFFFFF80000
0029DEFED9300000
ENDCHAR
STARTCHAR divide
ENCODING 247
SWIDTH 834 0
DWIDTH 15 0
BBX 15 15 0 -1
BITMAP
0000003333300000
0000058000300000
00005F8020300000
0000DF8000300000
0000EFB222400000
0004999999533300
02B5033333331030
1EF5000000000030
3FFFDDDBBBDDD800
2FFFFF90004E5000
01229F8020310000
0000EF8000300000
0000EFB333300000
0000EFFFFA000000
0000CFFFA0000000
ENDCHAR
STARTCHAR oslash
ENCODING 248
SWIDTH 837 0
DWIDTH 15 0
BBX 15 20 0 -4
BITMAP
0000000000333300
0000000005100300
0000233333010300
0004103333510300
0095040000321030
0AF2121CA1103030
2FF2212F53003030
5FF2212D12303030
6FF2212831803030
6FF2212237903030
6FF221020D903030
6FF212034F703030
6FF3042112032030
6FF7005333310130
5FFE303000000400
1FFF300244587000
08FF433DFFF70000
03FFFFFED9300000
07FFE40000000000
0011000000000000
ENDCHAR
STARTCHAR ugrave
ENCODING 249
SWIDTH 846 0
DWIDTH 15 0
BBX 15 21 0 -2
BITMAP
0000153100000000
0002CBDEEDB92000
003ED01346777000
00AFC00000003000
00AFE53100000000
0097333CEC432330
04E30106CF501030
3FF30305FF503030
4FF30306FF503030
4FF30306FF503030
4FF30306FF503030
4FF30306FF503030
4FF30306FF503030
4FF30306FF503030
4FF30303BA203030
4FF4031000031030
4FF7002333310030
2FFE300000000400
0DFFFA6444587000
04EFFFFFFFF70000
0028CEFEDA300000
ENDCHAR
STARTCHAR uacute
ENCODING 250
SWIDTH 846 0
DWIDTH 15 0
BBX 15 21 0 -2
BITMAP
0000000000243000
000007ACDFECB000
0001BA6753303000
001DF30000001000
005FF30000205000
00573129DF833330
04E301046E501030
3FF30305FF503030
4FF30306FF503030
4FF30306FF503030
4FF30306FF503030
4FF30306FF503030
4FF30306FF503030
4FF30306FF503030
4FF30303BA203030
4FF4031000031030
4FF7002333310030
2FFE300000000400
0DFFFA6444587000
04EFFFFFFFF70000
0028CEFEDA300000
ENDCHAR
STARTCHAR ucircumflex
ENCODING 251
SWIDTH 846 0
DWIDTH 15 0
BBX 15 21 0 -2
BITMAP
0000000233100000
0000012333211000
0001C01100202000
002DF01598303000
007FFDFFFFFE7000
0087333CFF833330
04E30004AF501030
3FF30304FF503030
4FF30306FF503030
4FF30306FF503030
4FF30306FF503030
4FF30306FF503030
4FF30306FF503030
4FF30306FF503030
4FF30305FE303030
4FF4031000031030
4FF7002333310030
2FFE300000000400
0DFFFA6444587000
04EFFFFFFFF70000
0028CEFEDA300000
ENDCHAR
STARTCHAR udieresis
ENCODING 252
SWIDTH 846 0
DWIDTH 15 0
BBX 15 21 0 -2
BITMAP
0000333314333000
00069000A4002100
008F9020B4021100
00EF9000B4001100
00EFA000C5001000
00EDCCCFFFECCC50
08F4000AFF500030
4FF30204CF502030
4FF30306FF503030
4FF30306FF503030
4FF30306FF503030
4FF30306FF503030
4FF30306FF503030
4FF30306FF503030
4FF30304CB203030
4FF4031000031030
4FF7002333310030
2FFE300000000400
0DFFFA6444587000
04EFFFFFFFF70000
0028CEFEDA300000
ENDCHAR
STARTCHAR yacute
ENCODING 253
SWIDTH 805 0
DWIDTH 14 0
BBX 15 21 0 -2
BITMAP
0000000001351000
000028ACEFDB7000
0004D77643203000
005FC00000001000
00AFC00001232000
00B4330CEF433410
09D000159F000120
7FD03018FF021120
9FD0301AFF021120
9FD0210BFC020120
9FE00305F4030210
9FF6012020210400
8FFE203001202100
3FFFC00242012000
08FFF90030030000
00CFFF3030300000
002EFF5030300000
0006FF5000300000
0003FF9333300000
0003FFFFF9000000
0001EFFF70000000
ENDCHAR
STARTCHAR thorn
ENCODING 254
SWIDTH 792 0
DWIDTH 14 0
BBX 14 16 0 -2
BITMAP
00263333000000
03E50003000000
1EF50302333320
3FF50533333013
3FF50300000303
3FF50300000303
3FF5030AFA0303
3FF5030AFC0303
3FF50308D80303
3FF50300000303
3FF50533333013
3FF50302334730
3FF50009FFE300
3FF8333CD92000
3FFFFF70000000
1EFFE500000000
ENDCHAR
STARTCHAR ydieresis
ENCODING 255
SWIDTH 805 0
DWIDTH 14 0
BBX 15 21 0 -2
BITMAP
0000433323332000
001B3002C0003000
01CF3122D0203000
05FF3002D0002000
05FF5003E1001000
05FCCCDFFFCCCB10
1BE0001FFF000120
8FD02016EF020120
9FD0301AFF021120
9FD0200AFE020120
9FE00307F6030110
9FF4021050210200
8FFE103001201000
2FFFB00242011000
07FFF80030030000
00CFFF3030300000
002EFF5030300000
0006FF5000300000
0003FF9333300000
0003FFFFF9000000
0001EFFF70000000
ENDCHAR
STARTCHAR Amacron
ENCODING 256
SWIDTH 830 0
DWIDTH 15 0
BBX 15 20 0 -2
BITMAP
0000233333332000
0002C02333203000
003ED00000003000
009FE10000003000
00AFFECCCCCB1000
009FF40000012000
000BD01333103000
004F702020202000
00AF2011F4110300
01FB0106F8010300
06F6010AFD010210
0CF2020000002030
2FF1143333333030
5FF1120000003030
7FF1120444103030
7FF1120FFF303030
7FF1010FFF301030
7FF53357FF733430
7FFFFE55FFFFF600
5FFFC203EFFE4000
ENDCHAR
STARTCHAR amacron
ENCODING 257
SWIDTH 830 0
DWIDTH 15 0
BBX 15 20 0 -2
BITMAP
0000233333332000
0002C02333203000
003ED00000003000
009FE10000003000
00AFFECCCCCB1000
009FF40000012000
000BD01333103000
004F702020202000
00AF2011F4110300
01FB0106F8010300
06F6010AFD010210
0CF2020000002030
2FF1143333333030
5FF1120000003030
7FF1120444103030
7FF1120FFF303030
7FF1010FFF301030
7FF53357FF733430
7FFFFE55FFFFF600
5FFFC203EFFE4000
ENDCHAR
STARTCHAR Abreve
ENCODING 258
SWIDTH 830 0
DWIDTH 15 0
BBX 15 21 0 -2
BITMAP
0000233303332000
0004A0037A003000
005FC03021222000
00BFE11333301000
00BFFC4101210000
008FFEAAAAAA1000
001BF30000005000
0008D01333105000
004F702020203200
00AF1011F4110500
01FB0106F8010500
06F6010AFD010220
0CF2020000002030
2FF1143333333030
5FF1120000003030
7FF1120444103030
7FF1120FFF303030
7FF1010FFF301030
7FF53357FF733430
7FFFFE55FFFFF500
5FFFC203EFFE4000
ENDCHAR
STARTCHAR abreve
ENCODING 259
SWIDTH 830 0
DWIDTH 15 0
BBX 15 21 0 -2
BITMAP
0000233303332000
0004A0037A003000
005FC03021222000
00BFE11333301000
00BFFC4101210000
008FFEAAAAAA1000
001BF30000005000
0008D01333105000
004F702020203200
00AF1011F4110500
01FB0106F8010500
06F6010AFD010220
0CF2020000002030
2FF1143333333030
5FF1120000003030
7FF1120444103030
7FF1120FFF303030
7FF1010FFF301030
7FF53357FF733430
7FFFFE55FFFFF500
5FFFC203EFFE4000
ENDCHAR
STARTCHAR Aogonek
ENCODING 260
SWIDTH 830 0
DWIDTH 15 0
BBX 15 20 0 -6
BITMAP
0000043333341000
0000A10000003000
0009B01333103000
004F502020201200
00AE0011F4110300
01F90106F8010300
06F5010AFD010120
0CF2020000002030
2FF1143333333030
5FF1120000003030
7FF1120444103030
7FF1120FFF303030
7FF1010FFF322030
7FF53357FF130320
7FFFFE55FD031420
5FFFC207FC042030
0000000AFF400030
0000000AFFFFFB10
00000004FFFF8000
0000000013430000
ENDCHAR
STARTCHAR aogonek
ENCODING 261
SWIDTH 830 0
DWIDTH 15 0
BBX 15 20 0 -6
BITMAP
0000043333341000
0000A10000003000
0009B01333103000
004F502020201200
00AE0011F4110300
01F90106F8010300
06F5010AFD010120
0CF2020000002030
2FF1143333333030
5FF1120000003030
7FF1120444103030
7FF1120FFF303030
7FF1010FFF322030
7FF53357FF130320
7FFFFE55FD031420
5FFFC207FC042030
0000000AFF400030
0000000AFFFFFB10
00000004FFFF8000
0000000013430000
ENDCHAR
STARTCHAR Cacute
ENCODING 262
SWIDTH 728 0
DWIDTH 13 0
BBX 13 21 0 -2
BITMAP
00000000012420
000017ACEFDB90
0002C977533030
003EF100000010
007FF100002140
007FD210233340
006D1000000030
00450133333030
04E20300000030
1EF20309FFFC10
4FF2030CFFB100
6FF20305430000
6FF20303000000
6FF20303000000
6FF20303000000
6FF20303333320
6FF50133333030
4FFD1000000030
1EFFE843333350
07FFFFFFFFFB10
005CEFFFFF8000
ENDCHAR
STARTCHAR cacute
ENCODING 263
SWIDTH 728 0
DWIDTH 13 0
BBX 13 21 0 -2
BITMAP
00000000012420
000017ACEFDB90
0002C977533030
003EF100000010
007FF100002140
007FD210233340
006D1000000030
00450133333030
04E20300000030
1EF20309FFFC10
4FF2030CFFB100
6FF20305430000
6FF20303000000
6FF20303000000
6FF20303000000
6FF20303333320
6FF50133333030
4FFD1000000030
1EFFE843333350
07FFFFFFFFFB10
005CEFFFFF8000
ENDCHAR
STARTCHAR Ccircumflex
ENCODING 264
SWIDTH 728 0
DWIDTH 13 0
BBX 13 21 0 -2
BITMAP
00000013330000
00001320003400
00047023331030
005F8000100030
00EFA6AEFC8410
00FFD743333340
00FD1000000030
00750133333030
05F20300000030
1EF20309FFFC10
5FF2030CFFB100
6FF20305430000
6FF20303000000
6FF20303000000
6FF20303000000
6FF20303333320
6FF50133333030
4FFD1000000030
1EFFE843333350
07FFFFFFFFFB10
005CEFFFFF8000
ENDCHAR
STARTCHAR ccircumflex
ENCODING 265
SWIDTH 728 0
DWIDTH 13 0
BBX 13 21 0 -2
BITMAP
00000013330000
00001320003400
00047023331030
005F8000100030
00EFA6AEFC8410
00FFD743333340
00FD1000000030
00750133333030
05F20300000030
1EF20309FFFC10
5FF2030CFFB100
6FF20305430000
6FF20303000000
6FF20303000000
6FF20303000000
6FF20303333320
6FF50133333030
4FFD1000000030
1EFFE843333350
07FFFFFFFFFB10
005CEFFFFF8000
ENDCHAR
STARTCHAR Cdotaccent
ENCODING 266
SWIDTH 728 0
DWIDTH 13 0
BBX 13 21 0 -2
BITMAP
00000043332000
00000860003000
0000AF60203000
0001FF60003000
0001FF80001000
0001D743333340
00061000000030
00A50133333030
0AF20300000030
2FF20309FFFC10
5FF2030CFFB100
6FF20305430000
6FF20303000000
6FF20303000000
6FF20303000000
6FF20303333320
6FF50133333030
4FFD1000000030
1EFFE843333350
06FFFFFFFFFB10
005BEFFFFF8000
ENDCHAR
STARTCHAR cdotaccent
ENCODING 267
SWIDTH 728 0
DWIDTH 13 0
BBX 13 21 0 -2
BITMAP
00000043332000
00000860003000
0000AF60203000
0001FF60003000
0001FF80001000
0001D743333340
00061000000030
00A50133333030
0AF20300000030
2FF20309FFFC10
5FF2030CFFB100
6FF20305430000
6FF20303000000
6FF20303000000
6FF20303000000
6FF20303333320
6FF50133333030
4FFD1000000030
1EFFE843333350
06FFFFFFFFFB10
005BEFFFFF8000
ENDCHAR
STARTCHAR Ccaron
ENCODING 268
SWIDTH 728 0
DWIDTH 13 0
BBX 13 21 0 -2
BITMAP
0001BA50002310
002D8024331030
00DF8023321020
00FFA100000110
00FFFE93157100
00CFD743333340
00061000000030
00550133333030
06F20300000030
1FF20309FFFC10
5FF2030CFFB100
6FF20305430000
6FF20303000000
6FF20303000000
6FF20303000000
6FF20303333320
6FF50133333030
4FFD1000000030
1EFFE843333350
07FFFFFFFFFB10
005CEFFFFF8000
ENDCHAR
STARTCHAR ccaron
ENCODING 269
SWIDTH 728 0
DWIDTH 13 0
BBX 13 21 0 -2
BITMAP
0001BA50002310
002D8024331030
00DF8023321020
00FFA100000110
00FFFE93157100
00CFD743333340
00061000000030
00550133333030
06F20300000030
1FF20309FFFC10
5FF2030CFFB100
6FF20305430000
6FF20303000000
6FF20303000000
6FF20303000000
6FF20303333320
6FF50133333030
4FFD1000000030
1EFFE843333350
07FFFFFFFFFB10
005CEFFFFF8000
ENDCHAR
STARTCHAR Dcaron
ENCODING 270
SWIDTH 846 0
DWIDTH 15 0
BBX 15 21 0 -2
BITMAP
00007B8100132000
0008F01433203000
006FF01233202000
007FF40000001000
007FFFC613730000
0058222222234200
02D5000000000310
1EF5033333330030
3FF5030000022020
3FF50307BA203030
3FF50309FF603030
3FF50308FF603030
3FF50305FF603030
3FF50304FF603030
3FF50304FF603030
3FF5030498112030
3FF5033333330030
3FF5000000000300
3FF9333333457100
3FFFFFFFFFFA1000
1EFFFFFFEC600000
ENDCHAR
STARTCHAR dcaron
ENCODING 271
SWIDTH 846 0
DWIDTH 15 0
BBX 15 21 0 -2
BITMAP
00007B8100132000
0008F01433203000
006FF01233202000
007FF40000001000
007FFFC613730000
0058222222234200
02D5000000000310
1EF5033333330030
3FF5030000022020
3FF50307BA203030
3FF50309FF603030
3FF50308FF603030
3FF50305FF603030
3FF50304FF603030
3FF50304FF603030
3FF5030498112030
3FF5033333330030
3FF5000000000300
3FF9333333457100
3FFFFFFFFFFA1000
1EFFFFFFEC600000
ENDCHAR
STARTCHAR Dcroat
ENCODING 272
SWIDTH 856 0
DWIDTH 15 0
BBX 16 16 -1 -2
BITMAP
0001633333333320
001C700000000032
00CF703333333004
00FF703000001303
00FF70307FF60303
00FD40304BF80303
00F7003002F80303
08F7035311F80303
1FF9103015F80303
1FFF70306FF80303
0BFF703024410303
00FF703333333003
00FF700000000022
00FFA33333345720
00FFFFFFFFFFC200
00DFFFFFFFD81000
ENDCHAR
STARTCHAR dcroat
ENCODING 273
SWIDTH 856 0
DWIDTH 15 0
BBX 16 16 -1 -2
BITMAP
0001633333333320
001C700000000032
00CF703333333004
00FF703000001303
00FF70307FF60303
00FD40304BF80303
00F7003002F80303
08F7035311F80303
1FF9103015F80303
1FFF70306FF80303
0BFF703024410303
00FF703333333003
00FF700000000022
00FFA33333345720
00FFFFFFFFFFC200
00DFFFFFFFD81000
ENDCHAR
STARTCHAR Emacron
ENCODING 274
SWIDTH 754 0
DWIDTH 14 0
BBX 14 20 0 -2
BITMAP
00004333333300
00096033331210
00AF5000000210
02FF7000000100
02F83333333341
02F50000000012
0CF50333333112
3FF50301222241
3FF5030AFFFE30
3FF50303555500
3FF50433320300
3FF50300000300
3FF50304666600
3FF5030AFFB100
3FF50306993330
3FF50333333112
3FF50000000012
3FF83333333351
3FFFFFFFFFFE40
1EFFFFFFFFC200
ENDCHAR
STARTCHAR emacron
ENCODING 275
SWIDTH 754 0
DWIDTH 14 0
BBX 14 20 0 -2
BITMAP
00004333333300
00096033331210
00AF5000000210
02FF7000000100
02F83333333341
02F50000000012
0CF50333333112
3FF50301222241
3FF5030AFFFE30
3FF50303555500
3FF50433320300
3FF50300000300
3FF50304666600
3FF5030AFFB100
3FF50306993330
3FF50333333112
3FF50000000012
3FF83333333351
3FFFFFFFFFFE40
1EFFFFFFFFC200
ENDCHAR
STARTCHAR Ebreve
ENCODING 276
SWIDTH 754 0
DWIDTH 14 0
BBX 14 21 0 -2
BITMAP
00004332043310
00096004A50030
00AF7211203020
01FFA033331010
01FFF931012100
00C83333333341
01C50000000012
1DF50333333112
3FF50301222241
3FF5030AFFFE30
3FF50303555500
3FF50433320300
3FF50300000300
3FF50304666600
3FF5030AFFB100
3FF50306993330
3FF50333333112
3FF50000000012
3FF83333333351
3FFFFFFFFFFE40
1EFFFFFFFFC200
ENDCHAR
STARTCHAR ebreve
ENCODING 277
SWIDTH 754 0
DWIDTH 14 0
BBX 14 21 0 -2
BITMAP
00004332043310
00096004A50030
00AF7211203020
01FFA033331010
01FFF931012100
00C83333333341
01C50000000012
1DF50333333112
3FF50301222241
3FF5030AFFFE30
3FF50303555500
3FF50433320300
3FF50300000300
3FF50304666600
3FF5030AFFB100
3FF50306993330
3FF50333333112
3FF50000000012
3FF83333333351
3FFFFFFFFFFE40
1EFFFFFFFFC200
ENDCHAR
STARTCHAR Edotaccent
ENCODING 278
SWIDTH 754 0
DWIDTH 14 0
BBX 14 21 0 -2
BITMAP
00000233330000
00003C00003000
0003ED02003000
0009FD00002000
000AFE10020000
00263333333341
03E50000000012
1EF50333333112
3FF50301222241
3FF5030AFFFE30
3FF50303555500
3FF50433320300
3FF50300000300
3FF50304666600
3FF5030AFFB100
3FF50306993330
3FF50333333112
3FF50000000012
3FF83333333351
3FFFFFFFFFFE40
1EFFFFFFFFC200
ENDCHAR
STARTCHAR edotaccent
ENCODING 279
SWIDTH 754 0
DWIDTH 14 0
BBX 14 21 0 -2
BITMAP
00000233330000
00003C00003000
0003ED02003000
0009FD00002000
000AFE10020000
00263333333341
03E50000000012
1EF50333333112
3FF50301222241
3FF5030AFFFE30
3FF50303555500
3FF50433320300
3FF50300000300
3FF50304666600
3FF5030AFFB100
3FF50306993330
3FF50333333112
3FF50000000012
3FF83333333351
3FFFFFFFFFFE40
1EFFFFFFFFC200
ENDCHAR
STARTCHAR Eogonek
ENCODING 280
SWIDTH 754 0
DWIDTH 14 0
BBX 14 20 0 -6
BITMAP
00253333333341
03E50000000012
1EF50333333112
3FF50301222231
3FF5030AFFFE30
3FF50303555500
3FF50433320300
3FF50300000300
3FF50304666600
3FF5030AFFB100
3FF50306993330
3FF50333334112
3FF50000003012
3FF83333203141
3FFFFFFF903360
1EFFFFFF804112
000000EFD30012
000000FFFFFF70
000000AFFFE500
00000002342000
ENDCHAR
STARTCHAR eogonek
ENCODING 281
SWIDTH 754 0
DWIDTH 14 0
BBX 14 20 0 -6
BITMAP
00253333333341
03E50000000012
1EF50333333112
3FF50301222231
3FF5030AFFFE30
3FF50303555500
3FF50433320300
3FF50300000300
3FF50304666600
3FF5030AFFB100
3FF50306993330
3FF50333334112
3FF50000003012
3FF83333203141
3FFFFFFF903360
1EFFFFFF804112
000000EFD30012
000000FFFFFF70
000000AFFFE500
00000002342000
ENDCHAR
STARTCHAR Ecaron
ENCODING 282
SWIDTH 754 0
DWIDTH 14 0
BBX 14 21 0 -2
BITMAP
0002B940002310
002D7034331030
00DF7023321020
00FFA000000110
00FFFE83167100
00B83333333341
02C50000000012
1DF50333333112
3FF50301222241
3FF5030AFFFE30
3FF50303555500
3FF50433320300
3FF50300000300
3FF50304666600
3FF5030AFFB100
3FF50306993330
3FF50333333112
3FF50000000012
3FF83333333351
3FFFFFFFFFFE40
1EFFFFFFFFC200
ENDCHAR
STARTCHAR ecaron
ENCODING 283
SWIDTH 754 0
DWIDTH 14 0
BBX 14 21 0 -2
BITMAP
0002B940002310
002D7034331030
00DF7023321020
00FFA000000110
00FFFE83167100
00B83333333341
02C50000000012
1DF50333333112
3FF50301222241
3FF5030AFFFE30
3FF50303555500
3FF50433320300
3FF50300000300
3FF50304666600
3FF5030AFFB100
3FF50306993330
3FF50333333112
3FF50000000012
3FF83333333351
3FFFFFFFFFFE40
1EFFFFFFFFC200
ENDCHAR
STARTCHAR Gcircumflex
ENCODING 284
SWIDTH 808 0
DWIDTH 15 0
BBX 15 21 0 -2
BITMAP
0000000233200000
0000033100132000
0000830333203000
0009F20000103000
005FF56AED954000
005FFC9888886000
005E400000003000
0047013333303000
04E3030000004000
1EF20309FFFE3000
4FF2030CFFC20000
6FF2030546333300
6FF203035B000210
6FF20309FC020210
6FF20308DA030210
6FF2040000030210
6FF5013333340210
4FFD100000000210
1EFFD74333333500
07FFFFFFFFFFD200
005CEFFFFFFB1000
ENDCHAR
STARTCHAR gcircumflex
ENCODING 285
SWIDTH 808 0
DWIDTH 15 0
BBX 15 21 0 -2
BITMAP
0000000233200000
0000033100132000
0000830333203000
0009F20000103000
005FF56AED954000
005FFC9888886000
005E400000003000
0047013333303000
04E3030000004000
1EF20309FFFE3000
4FF2030CFFC20000
6FF2030546333300
6FF203035B000210
6FF20309FC020210
6FF20308DA030210
6FF2040000030210
6FF5013333340210
4FFD100000000210
1EFFD74333333500
07FFFFFFFFFFD200
005CEFFFFFFB1000
ENDCHAR
STARTCHAR Gbreve
ENCODING 286
SWIDTH 808 0
DWIDTH 15 0
BBX 15 21 0 -2
BITMAP
0000233402333000
0003C0026C003000
003EE03021132000
009FF31333301000
009FFD5100200000
005FD74333334000
0008100000003000
0055013333303000
06F2030000003000
1EF20309FFFD2000
5FF2030CFFC10000
6FF2030546333300
6FF203035B000210
6FF20309FC020210
6FF20308DA030210
6FF2040000030210
6FF5013333340210
4FFD100000000210
1EFFE84333333500
07FFFFFFFFFFD200
005CEFFFFFFB1000
ENDCHAR
STARTCHAR gbreve
ENCODING 287
SWIDTH 808 0
DWIDTH 15 0
BBX 15 21 0 -2
BITMAP
0000233402333000
0003C0026C003000
003EE03021132000
009FF31333301000
009FFD5100200000
005FD74333334000
0008100000003000
0055013333303000
06F2030000003000
1EF20309FFFD2000
5FF2030CFFC10000
6FF2030546333300
6FF203035B000210
6FF20309FC020210
6FF20308DA030210
6FF2040000030210
6FF5013333340210
4FFD100000000210
1EFFE84333333500
07FFFFFFFFFFD200
005CEFFFFFFB1000
ENDCHAR
STARTCHAR Gdotaccent
ENCODING 288
SWIDTH 808 0
DWIDTH 15 0
BBX 15 21 0 -2
BITMAP
0000002333300000
000003B000210000
00004EB020210000
0000BFB000210000
0000BFD000100000
0000A74333334000
0002000000003000
0075013333303000
07F2030000003000
2FF20309FFFD2000
5FF2030CFFC10000
6FF2030546333300
6FF203035B000210
6FF20309FC020210
6FF20308DA030210
6FF2040000030210
6FF5013333340210
4FFD100000000210
1EFFE84333333500
06FFFFFFFFFFD200
005BEFFFFFFB1000
ENDCHAR
STARTCHAR gdotaccent
ENCODING 289
SWIDTH 808 0
DWIDTH 15 0
BBX 15 21 0 -2
BITMAP
0000002333300000
000003B000210000
00004EB020210000
0000BFB000210000
0000BFD000100000
0000A74333334000
0002000000003000
0075013333303000
07F2030000003000
2FF20309FFFD2000
5FF2030CFFC10000
6FF2030546333300
6FF203035B000210
6FF20309FC020210
6FF20308DA030210
6FF2040000030210
6FF5013333340210
4FFD100000000210
1EFFE84333333500
06FFFFFFFFFFD200
005BEFFFFFFB1000
ENDCHAR
STARTCHAR Gcommaaccent
ENCODING 290
SWIDTH 808 0
DWIDTH 15 0
BBX 15 23 0 -9
BITMAP
0000333333334000
0005113333303000
0095030000003000
09F2030134445000
2FF2030BFFFB1000
5FF2030CFF900000
6FF2030302333300
6FF203035B000210
6FF20309FC020210
6FF20308DA030210
6FF4040000030210
6FFA013333340210
4FFF930000000310
1EFFFFFCCCDEED00
06FFFFB0002FD200
005CEFB1332B1000
00006FB003210000
0000CFFB93210000
0000CFE003300000
0000BFE132400000
00005FFA97100000
00009FFF80000000
0000377300000000
ENDCHAR
STARTCHAR gcommaaccent
ENCODING 291
SWIDTH 808 0
DWIDTH 15 0
BBX 15 23 0 -9
BITMAP
0000333333334000
0005113333303000
0095030000003000
09F2030134445000
2FF2030BFFFB1000
5FF2030CFF900000
6FF2030302333300
6FF203035B000210
6FF20309FC020210
6FF20308DA030210
6FF4040000030210
6FFA013333340210
4FFF930000000310
1EFFFFFCCCDEED00
06FFFFB0002FD200
005CEFB1332B1000
00006FB003210000
0000CFFB93210000
0000CFE003300000
0000BFE132400000
00005FFA97100000
00009FFF80000000
0000377300000000
ENDCHAR
STARTCHAR Hcircumflex
ENCODING 292
SWIDTH 859 0
DWIDTH 15 0
BBX 15 21 0 -2
BITMAP
0000000233200000
0000043100243000
0001A20333203000
001CF20010003000
006FF68CFFB63000
0068333CFF933330
02D500059F600030
1EF50303EF603030
3FF50304FF603030
3FF5030399403030
3FF5030000003030
3FF5030000003030
3FF5043333334030
3FF5030000003030
3FF50309FF603030
3FF50309FF603030
3FF50305FF603030
3FF50004FF600030
3FF83335FF933340
3FFFFF81FFFFF900
1EFFE600EFFF7000
ENDCHAR
STARTCHAR hcircumflex
ENCODING 293
SWIDTH 859 0
DWIDTH 15 0
BBX 15 21 0 -2
BITMAP
0000000233200000
0000043100243000
0001A20333203000
001CF20010003000
006FF68CFFB63000
0068333CFF933330
02D500059F600030
1EF50303EF603030
3FF50304FF603030
3FF5030399403030
3FF5030000003030
3FF5030000003030
3FF5043333334030
3FF5030000003030
3FF50309FF603030
3FF50309FF603030
3FF50305FF603030
3FF50004FF600030
3FF83335FF933340
3FFFFF81FFFFF900
1EFFE600EFFF7000
ENDCHAR
STARTCHAR Hbar
ENCODING 294
SWIDTH 879 0
DWIDTH 16 0
BBX 16 16 0 -2
BITMAP
0016333300633340
01B700031BA00030
0CE4030269603022
0F90030000003003
4F90253333335303
DFB1030122103014
DFF70307FFA03031
DFF7030255303030
2FF7030000003030
0FF7043333334030
0FF7030000003030
0FF70307FFA03030
0FF70007FFA00030
0FFA3335DFC33340
0FFFFF90DFFFFB10
0DFFF700AFFF9000
ENDCHAR
STARTCHAR hbar
ENCODING 295
SWIDTH 879 0
DWIDTH 16 0
BBX 16 16 0 -2
BITMAP
0016333300633340
01B700031BA00030
0CE4030269603022
0F90030000003003
4F90253333335303
DFB1030122103014
DFF70307FFA03031
DFF7030255303030
2FF7030000003030
0FF7043333334030
0FF7030000003030
0FF70307FFA03030
0FF70007FFA00030
0FFA3335DFC33340
0FFFFF90DFFFFB10
0DFFF700AFFF9000
ENDCHAR
STARTCHAR Itilde
ENCODING 296
SWIDTH 705 0
DWIDTH 13 0
BBX 13 21 0 -2
BITMAP
00003333325200
00070000010300
009B0233200300
08FB0000220200
0CFC3764111000
0CF53333333410
0BF00000000030
2DF01334331030
7FF10003000120
7FFCB50304B500
7FFFF703067000
278FF703030000
001FF703030000
001FF703030000
001FF703030000
002A9403023300
03D11334331020
3EF00000000030
7FF53333333520
7FFFFFFFFFE400
5FFFFFFFFC2000
ENDCHAR
STARTCHAR itilde
ENCODING 297
SWIDTH 705 0
DWIDTH 13 0
BBX 13 21 0 -2
BITMAP
00003333325200
00070000010300
009B0233200300
08FB0000220200
0CFC3764111000
0CF53333333410
0BF00000000030
2DF01334331030
7FF10003000120
7FFCB50304B500
7FFFF703067000
278FF703030000
001FF703030000
001FF703030000
001FF703030000
002A9403023300
03D11334331020
3EF00000000030
7FF53333333520
7FFFFFFFFFE400
5FFFFFFFFC2000
ENDCHAR
STARTCHAR Imacron
ENCODING 298
SWIDTH 705 0
DWIDTH 13 0
BBX 13 20 0 -2
BITMAP
00023333333100
004A0233320300
04FB0000000300
0BFC0000001000
0CFDCCCCCCCB10
0BF10000000130
1CF01334331030
7FF10003000120
7FFCB50304B500
7FFFF703067000
278FF703030000
001FF703030000
001FF703030000
001FF703030000
002A9403023300
03D11334331020
3EF00000000030
7FF53333333520
7FFFFFFFFFE400
5FFFFFFFFC2000
ENDCHAR
STARTCHAR imacron
ENCODING 299
SWIDTH 705 0
DWIDTH 13 0
BBX 13 20 0 -2
BITMAP
00023333333100
004A0233320300
04FB0000000300
0BFC0000001000
0CFDCCCCCCCB10
0BF10000000130
1CF01334331030
7FF10003000120
7FFCB50304B500
7FFFF703067000
278FF703030000
001FF703030000
001FF703030000
001FF703030000
002A9403023300
03D11334331020
3EF00000000030
7FF53333333520
7FFFFFFFFFE400
5FFFFFFFFC2000
ENDCHAR
STARTCHAR Ibreve
ENCODING 300
SWIDTH 705 0
DWIDTH 13 0
BBX 13 21 0 -2
BITMAP
00033330433200
00690038800300
07FA0303130200
0EFD0233320100
0DFFB410121000
09F53333333410
04F00000000030
3EF01334331030
7FF10003000120
7FFCB50304B500
7FFFF703067000
278FF703030000
001FF703030000
001FF703030000
001FF703030000
002A9403023300
03D11334331020
3EF00000000030
7FF53333333520
7FFFFFFFFFE400
5FFFFFFFFC2000
ENDCHAR
STARTCHAR ibreve
ENCODING 301
SWIDTH 705 0
DWIDTH 13 0
BBX 13 21 0 -2
BITMAP
00033330433200
00690038800300
07FA0303130200
0EFD0233320100
0DFFB410121000
09F53333333410
04F00000000030
3EF01334331030
7FF10003000120
7FFCB50304B500
7FFFF703067000
278FF703030000
001FF703030000
001FF703030000
001FF703030000
002A9403023300
03D11334331020
3EF00000000030
7FF53333333520
7FFFFFFFFFE400
5FFFFFFFFC2000
ENDCHAR
STARTCHAR Iogonek
ENCODING 302
SWIDTH 705 0
DWIDTH 13 0
BBX 13 20 0 -6
BITMAP
00443333333410
05F00000000030
4FF01334331030
7FF10003000020
7FFCB50304B500
7FFFF703067000
278FF703030000
001FF703030000
001FF703030000
001FF703030000
002A9403023300
03D01334341020
3EF00000030030
7FF53332031410
7FFFFFF9033610
5FFFFFF9041030
00000DFD300120
00000EFFFFF800
000009FFFF5000
00000023420000
ENDCHAR
STARTCHAR iogonek
ENCODING 303
SWIDTH 705 0
DWIDTH 13 0
BBX 13 20 0 -6
BITMAP
00443333333410
05F00000000030
4FF01334331030
7FF10003000020
7FFCB50304B500
7FFFF703067000
278FF703030000
001FF703030000
001FF703030000
001FF703030000
002A9403023300
03D01334341020
3EF00000030030
7FF53332031410
7FFFFFF9033610
5FFFFFF9041030
00000DFD300120
00000EFFFFF800
000009FFFF5000
00000023420000
ENDCHAR
STARTCHAR Idotaccent
ENCODING 304
SWIDTH 705 0
DWIDTH 13 0
BBX 13 21 0 -2
BITMAP
00000333330000
00007700030000
0009F702030000
001FF700030000
001FF900010000
00453333333410
04F00000000030
4FF01334331030
7FF10003000120
7FFCB50304B500
7FFFF703067000
278FF703030000
001FF703030000
001FF703030000
001FF703030000
002A9403023300
03D11334331020
3EF00000000030
7FF53333333520
7FFFFFFFFFE400
5FFFFFFFFC2000
ENDCHAR
STARTCHAR dotlessi
ENCODING 305
SWIDTH 705 0
DWIDTH 13 0
BBX 13 16 0 -2
BITMAP
00443333333410
05F00000000030
4FF01334331030
7FF10003000120
7FFCB50304B500
7FFFF703067000
278FF703030000
001FF703030000
001FF703030000
001FF703030000
002A9403023300
03D11334331020
3EF00000000030
7FF53333333520
7FFFFFFFFFE400
5FFFFFFFFC2000
ENDCHAR
STARTCHAR IJ
ENCODING 306
SWIDTH 844 0
DWIDTH 15 0
BBX 15 16 0 -2
BITMAP
0026333302533320
03D500033E300030
1EF50306EF303030
3FF50309FF303030
3FF50309FF303030
3FF50309FF303030
3FF50109FF303030
3FF5000AFF303030
3FFECCACFF303030
2FFFFD2AFF203030
067A620464031030
02C5033333320120
1EF5000000000300
3FF8333333355000
3FFFFFFFFFF80000
1EFFFFFFEC500000
ENDCHAR
STARTCHAR ij
ENCODING 307
SWIDTH 844 0
DWIDTH 15 0
BBX 15 16 0 -2
BITMAP
0026333302533320
03D500033E300030
1EF50306EF303030
3FF50309FF303030
3FF50309FF303030
3FF50309FF303030
3FF50109FF303030
3FF5000AFF303030
3FFECCACFF303030
2FFFFD2AFF203030
067A620464031030
02C5033333320120
1EF5000000000300
3FF8333333355000
3FFFFFFFFFF80000
1EFFFFFFEC500000
ENDCHAR
STARTCHAR Jcircumflex
ENCODING 308
SWIDTH 788 0
DWIDTH 14 0
BBX 16 21 0 -2
BITMAP
0000000002332000
0000000222333220
0000009502001121
00000BF502673021
00002FFCDFFFFE90
00003FFFF4000810
00001957F3010300
0000003FF3030300
0000005FF3030300
0000005FF3030300
0000005FF3030300
0023337FF3030300
04C0004FF3030300
5FC0204FF3030300
AFC0302CC1030300
AFD0130000310300
AFF1013333100200
9FF9000000004000
5FFFD85445870000
0BFFFFFFFF700000
006BEFEDA3000000
ENDCHAR
STARTCHAR jcircumflex
ENCODING 309
SWIDTH 788 0
DWIDTH 14 0
BBX 16 21 0 -2
BITMAP
0000000002332000
0000000222333220
0000009502001121
00000BF502673021
00002FFCDFFFFE90
00003FFFF4000810
00001957F3010300
0000003FF3030300
0000005FF3030300
0000005FF3030300
0000005FF3030300
0023337FF3030300
04C0004FF3030300
5FC0204FF3030300
AFC0302CC1030300
AFD0130000310300
AFF1013333100200
9FF9000000004000
5FFFD85445870000
0BFFFFFFFF700000
006BEFEDA3000000
ENDCHAR
STARTCHAR Kcommaaccent
ENCODING 310
SWIDTH 846 0
DWIDTH 15 0
BBX 15 23 0 -9
BITMAP
0026333304433330
03E5000369000200
1EF50308F3030300
3FF50309B0302100
3FF5030840304000
3FF5030002100310
3FF5043334330030
3FF5030000002030
3FF5030599203030
3FF50309FF503030
3FF50309FF503030
3FF50305FF503030
3FF50005FF500030
3FF83335FF933330
3FFFFF9499BFF700
1EFFEBA1332F5000
00007FB003210000
0000CFFB93210000
0000CFE003200000
0000CFE132300000
00005FFA97100000
00009FFF80000000
0000377300000000
ENDCHAR
STARTCHAR kcommaaccent
ENCODING 311
SWIDTH 846 0
DWIDTH 15 0
BBX 15 23 0 -9
BITMAP
0026333304433330
03E5000369000200
1EF50308F3030300
3FF50309B0302100
3FF5030840304000
3FF5030002100310
3FF5043334330030
3FF5030000002030
3FF5030599203030
3FF50309FF503030
3FF50309FF503030
3FF50305FF503030
3FF50005FF500030
3FF83335FF933330
3FFFFF9499BFF700
1EFFEBA1332F5000
00007FB003210000
0000CFFB93210000
0000CFE003200000
0000CFE132300000
00005FFA97100000
00009FFF80000000
0000377300000000
ENDCHAR
STARTCHAR kgreenlandic
ENCODING 312
SWIDTH 846 0
DWIDTH 15 0
BBX 15 16 0 -2
BITMAP
0026333303433330
03E500034A000210
1EF50306E5030300
3FF50309E0211200
3FF5030980303000
3FF5030520304200
3FF5030003000220
3FF5043334330030
3FF5030000003030
3FF50308DD303030
3FF50309FF503030
3FF50306FF503030
3FF50005FF500030
3FF83336FF933340
3FFFFF82FFFFF800
1EFFE601EFFF6000
ENDCHAR
STARTCHAR Lacute
ENCODING 313
SWIDTH 795 0
DWIDTH 14 0
BBX 14 20 0 -2
BITMAP
0002579BBBB000
005B6443312000
08F50310002000
2FF50000232000
3FF8246DD30000
2EF50004100000
1DF50303000000
3FF50303000000
3FF50303000000
3FF50303000000
3FF50303023333
3FF503035C0003
3FF50307FD0203
3FF50308EC0303
3FF50300000303
3FF50333333403
3FF50000000003
3FF83333333335
3FFFFFFFFFFFC1
1EFFFFFFFFFA10
ENDCHAR
STARTCHAR lacute
ENCODING 314
SWIDTH 795 0
DWIDTH 14 0
BBX 14 20 0 -2
BITMAP
0002579BBBB000
005B6443312000
08F50310002000
2FF50000232000
3FF8246DD30000
2EF50004100000
1DF50303000000
3FF50303000000
3FF50303000000
3FF50303000000
3FF50303023333
3FF503035C0003
3FF50307FD0203
3FF50308EC0303
3FF50300000303
3FF50333333403
3FF50000000003
3FF83333333335
3FFFFFFFFFFFC1
1EFFFFFFFFFA10
ENDCHAR
STARTCHAR Lcommaaccent
ENCODING 315
SWIDTH 795 0
DWIDTH 14 0
BBX 14 23 0 -9
BITMAP
00263333000000
03E50103000000
1EF50303000000
3FF50303000000
3FF50303000000
3FF50303023333
3FF503032B0003
3FF50305DD0103
3FF50309FD0303
3FF50306980303
3FF50300000303
3FF50333333403
3FF50000000004
3FFFEEECCCDEEA
3FFFFF90005FA0
1EFFFF81324A00
00009F90033000
0000EFFB733000
0000FFC0033000
0000EFB1323000
00007FE9960000
0000BFFF600000
00004772000000
ENDCHAR
STARTCHAR lcommaaccent
ENCODING 316
SWIDTH 795 0
DWIDTH 14 0
BBX 14 23 0 -9
BITMAP
00263333000000
03E50103000000
1EF50303000000
3FF50303000000
3FF50303000000
3FF50303023333
3FF503032B0003
3FF50305DD0103
3FF50309FD0303
3FF50306980303
3FF50300000303
3FF50333333403
3FF50000000004
3FFFEEECCCDEEA
3FFFFF90005FA0
1EFFFF81324A00
00009F90033000
0000EFFB733000
0000FFC0033000
0000EFB1323000
00007FE9960000
0000BFFF600000
00004772000000
ENDCHAR
STARTCHAR Lcaron
ENCODING 317
SWIDTH 795 0
DWIDTH 14 0
BBX 14 16 0 -2
BITMAP
00263333053334
03E500037B0003
1EF50308F90303
3FF50309F70203
3FF50309F50021
3FF50309FCAA50
3FF50309FF9733
3FF50306CD0003
3FF50307FD0203
3FF50308EC0303
3FF50300000303
3FF50333333403
3FF50000000003
3FF83333333335
3FFFFFFFFFFFC1
1EFFFFFFFFFA10
ENDCHAR
STARTCHAR lcaron
ENCODING 318
SWIDTH 795 0
DWIDTH 14 0
BBX 14 16 0 -2
BITMAP
00263333053334
03E500037B0003
1EF50308F90303
3FF50309F70203
3FF50309F50021
3FF50309FCAA50
3FF50309FF9733
3FF50306CD0003
3FF50307FD0203
3FF50308EC0303
3FF50300000303
3FF50333333403
3FF50000000003
3FF83333333335
3FFFFFFFFFFFC1
1EFFFFFFFFFA10
ENDCHAR
STARTCHAR Ldot
ENCODING 319
SWIDTH 795 0
DWIDTH 14 0
BBX 14 16 0 -2
BITMAP
00263333000000
03E50103000000
1EF50303023332
3FF503034A0003
3FF50307FA0203
3FF50309FB0003
3FF50309FEA993
3FF50309FFA963
3FF50306CD0003
3FF50304BA0203
3FF50300000303
3FF50333333403
3FF50000000003
3FF83333333334
3FFFFFFFFFFFB1
1EFFFFFFFFFA00
ENDCHAR
STARTCHAR ldot
ENCODING 320
SWIDTH 795 0
DWIDTH 14 0
BBX 14 16 0 -2
BITMAP
00263333000000
03E50103000000
1EF50303023332
3FF503034A0003
3FF50307FA0203
3FF50309FB0003
3FF50309FEA993
3FF50309FFA963
3FF50306CD0003
3FF50304BA0203
3FF50300000303
3FF50333333403
3FF50000000003
3FF83333333334
3FFFFFFFFFFFB1
1EFFFFFFFFFA00
ENDCHAR
STARTCHAR Lslash
ENCODING 321
SWIDTH 805 0
DWIDTH 14 0
BBX 16 16 -1 -2
BITMAP
0001633340000000
001C700030000000
00DF703030000000
00FF703030000000
00FF703023300000
00F9103000300000
03F7035320433330
1EF7003038E10012
1FFD50306FF11112
1FFF70306EE12112
04FF703000002112
00FF703333333112
00FF700000000012
00FFA33333333341
00FFFFFFFFFFFD30
00DFFFFFFFFFC100
ENDCHAR
STARTCHAR lslash
ENCODING 322
SWIDTH 805 0
DWIDTH 14 0
BBX 16 16 -1 -2
BITMAP
0001633340000000
001C700030000000
00DF703030000000
00FF703030000000
00FF703023300000
00F9103000300000
03F7035320433330
1EF7003038E10012
1FFD50306FF11112
1FFF70306EE12112
04FF703000002112
00FF703333333112
00FF700000000012
00FFA33333333341
00FFFFFFFFFFFD30
00DFFFFFFFFFC100
ENDCHAR
STARTCHAR Nacute
ENCODING 323
SWIDTH 853 0
DWIDTH 15 0
BBX 15 21 0 -2
BITMAP
0000000000243000
000006ABDFECB000
0001AB6753303000
001CF40000001000
004FF40000205000
0048311BDF933330
03D500066E600030
1EF505109F603030
3FF503300C603030
3FF5030402403030
3FF5030040003030
3FF5030013003030
3FF5030601203030
3FF5030A80223030
3FF5030AF5034030
3FF5030AFE203030
3FF5030AFF603030
3FF50009FF600030
3FF83345FF933330
3FFFFF72FFFFF700
1EFFE501EFFE5000
ENDCHAR
STARTCHAR nacute
ENCODING 324
SWIDTH 853 0
DWIDTH 15 0
BBX 15 21 0 -2
BITMAP
0000000000243000
000006ABDFECB000
0001AB6753303000
001CF40000001000
004FF40000205000
0048311BDF933330
03D500066E600030
1EF505109F603030
3FF503300C603030
3FF5030402403030
3FF5030040003030
3FF5030013003030
3FF5030601203030
3FF5030A80223030
3FF5030AF5034030
3FF5030AFE203030
3FF5030AFF603030
3FF50009FF600030
3FF83345FF933330
3FFFFF72FFFFF700
1EFFE501EFFE5000
ENDCHAR
STARTCHAR Ncommaaccent
ENCODING 325
SWIDTH 853 0
DWIDTH 15 0
BBX 15 23 0 -9
BITMAP
0026333102633330
03E501033D600030
1EF505209F603030
3FF503310B603030
3FF5030301303030
3FF5030040003030
3FF5030004003030
3FF5030811303030
3FF5030AA0123030
3FF5030AF7024030
3FF5030AFF303030
3FF5030AFF603030
3FF50008FF600030
3FF83344FF933330
3FFFFF8499BFF700
1EFFE9B1331E5000
00006FC003120000
0000BFFC93120000
0000BFF003210000
0000BFF132300000
00004FFA97100000
00008FFF80000000
0000277300000000
ENDCHAR
STARTCHAR ncommaaccent
ENCODING 326
SWIDTH 853 0
DWIDTH 15 0
BBX 15 23 0 -9
BITMAP
0026333102633330
03E501033D600030
1EF505209F603030
3FF503310B603030
3FF5030301303030
3FF5030040003030
3FF5030004003030
3FF5030811303030
3FF5030AA0123030
3FF5030AF7024030
3FF5030AFF303030
3FF5030AFF603030
3FF50008FF600030
3FF83344FF933330
3FFFFF8499BFF700
1EFFE9B1331E5000
00006FC003120000
0000BFFC93120000
0000BFF003210000
0000BFF132300000
00004FFA97100000
00008FFF80000000
0000277300000000
ENDCHAR
STARTCHAR Ncaron
ENCODING 327
SWIDTH 853 0
DWIDTH 15 0
BBX 15 21 0 -2
BITMAP
0000685000132000
0007D01433203000
007FD01233103000
009FE20000012000
009FFFB503840000
0068337FFE933330
03D500065D600030
1EF505109F603030
3FF503300C603030
3FF5030402403030
3FF5030040003030
3FF5030013003030
3FF5030601203030
3FF5030A80223030
3FF5030AF5034030
3FF5030AFE203030
3FF5030AFF603030
3FF50009FF600030
3FF83345FF933330
3FFFFF72FFFFF700
1EFFE501EFFE5000
ENDCHAR
STARTCHAR ncaron
ENCODING 328
SWIDTH 853 0
DWIDTH 15 0
BBX 15 21 0 -2
BITMAP
0000685000132000
0007D01433203000
007FD01233103000
009FE20000012000
009FFFB503840000
0068337FFE933330
03D500065D600030
1EF505109F603030
3FF503300C603030
3FF5030402403030
3FF5030040003030
3FF5030013003030
3FF5030601203030
3FF5030A80223030
3FF5030AF5034030
3FF5030AFE203030
3FF5030AFF603030
3FF50009FF600030
3FF83345FF933330
3FFFFF72FFFFF700
1EFFE501EFFE5000
ENDCHAR
STARTCHAR napostrophe
ENCODING 329
SWIDTH 853 0
DWIDTH 15 0
BBX 15 23 0 -2
BITMAP
0013333200000000
01C1000300000000
1DF1232300000000
6FF2003300000000
6FFDA32200000000
6FF5330100000000
2DF6010000000000
3FFC999101999950
2EF500062D600030
1EF50511BF603030
3FF503301D603030
3FF5030402403030
3FF5030040003030
3FF5030013003030
3FF5030601203030
3FF5030A80223030
3FF5030AF5034030
3FF5030AFE203030
3FF5030AFF603030
3FF50009FF600030
3FF83345FF933330
3FFFFF72FFFFF700
1EFFE501EFFE5000
ENDCHAR
STARTCHAR Eng
ENCODING 330
SWIDTH 846 0
DWIDTH 15 0
BBX 15 18 0 -4
BITMAP
0000233333333000
0004202333310400
0077031000030030
07F4030132003030
1FF3030AFF203030
3FF3030BFF303030
4FF30308FF303030
4FF30307FF303030
4FF30307FF303030
4FF30307FF303030
4FF30307FF303030
4FF30307FF203030
4FF3000880012030
4FF7334D70330220
4FFFFFFF70001200
2EFFE5FFD89A4000
000001FFFFD30000
0000005764000000
ENDCHAR
STARTCHAR eng
ENCODING 331
SWIDTH 846 0
DWIDTH 15 0
BBX 15 18 0 -4
BITMAP
0000233333333000
0004202333310400
0077031000030030
07F4030132003030
1FF3030AFF203030
3FF3030BFF303030
4FF30308FF303030
4FF30307FF303030
4FF30307FF303030
4FF30307FF303030
4FF30307FF303030
4FF30307FF203030
4FF3000880012030
4FF7334D70330220
4FFFFFFF70001200
2EFFE5FFD89A4000
000001FFFFD30000
0000005764000000
ENDCHAR
STARTCHAR Omacron
ENCODING 332
SWIDTH 837 0
DWIDTH 15 0
BBX 15 20 0 -2
BITMAP
0000233333332000
0004D01333303000
005FE00000003000
009FE10000003000
009FFDA8789B3000
004E503333312400
03E7030000030120
0DF30307CA103030
4FF2030CFF303030
6FF2030BFF303030
6FF20307FF303030
6FF20307FF303030
6FF20307FF303030
6FF20306FD203030
6FF2030000030030
6FF5003333310030
4FFD200000000500
1EFFEA6444588100
05FFFFFFFFF80000
0029DEFED9300000
ENDCHAR
STARTCHAR omacron
ENCODING 333
SWIDTH 837 0
DWIDTH 15 0
BBX 15 20 0 -2
BITMAP
0000233333332000
0004D01333303000
005FE00000003000
009FE10000003000
009FFDA8789B3000
004E503333312400
03E7030000030120
0DF30307CA103030
4FF2030CFF303030
6FF2030BFF303030
6FF20307FF303030
6FF20307FF303030
6FF20307FF303030
6FF20306FD203030
6FF2030000030030
6FF5003333310030
4FFD200000000500
1EFFEA6444588100
05FFFFFFFFF80000
0029DEFED9300000
ENDCHAR
STARTCHAR Obreve
ENCODING 334
SWIDTH 837 0
DWIDTH 15 0
BBX 15 21 0 -2
BITMAP
0000233303332000
0005B0036B003000
006FC04021123000
00BFF11333303000
00AFFC5101351000
004FFC8666732000
001A303333311400
02C6030000030130
0CF30307CA103030
3FF2030CFF303030
5FF2030BFF303030
6FF20307FF303030
6FF20307FF303030
6FF20307FF303030
6FF20306FD203030
6FF3030000030030
6FF5003333310030
4FFD200000000500
1EFFEA6444588100
05FFFFFFFFF70000
0029DEFED9300000
ENDCHAR
STARTCHAR obreve
ENCODING 335
SWIDTH 837 0
DWIDTH 15 0
BBX 15 21 0 -2
BITMAP
0000233303332000
0005B0036B003000
006FC04021123000
00BFF11333303000
00AFFC5101351000
004FFC8666732000
001A303333311400
02C6030000030130
0CF30307CA103030
3FF2030CFF303030
5FF2030BFF303030
6FF20307FF303030
6FF20307FF303030
6FF20307FF303030
6FF20306FD203030
6FF3030000030030
6FF5003333310030
4FFD200000000500
1EFFEA6444588100
05FFFFFFFFF70000
0029DEFED9300000
ENDCHAR
STARTCHAR Ohungarumlaut
ENCODING 336
SWIDTH 837 0
DWIDTH 15 0
BBX 15 23 0 -2
BITMAP
0000023340333300
0000490035500300
0004F7105F210300
000CF4309E030300
001FF130CB032100
004FD000E8003000
008FC004F8003000
00BFFDA8789B3000
005E503333312400
03D7030000030120
0DF30307CA103030
4FF2030CFF303030
5FF2030BFF303030
6FF20307FF303030
6FF20307FF303030
6FF20307FF303030
6FF20306FD203030
6FF2030000030030
6FF5003333310030
4FFD200000000500
1EFFEA6444588100
05FFFFFFFFF80000
0029DEFED9300000
ENDCHAR
STARTCHAR ohungarumlaut
ENCODING 337
SWIDTH 837 0
DWIDTH 15 0
BBX 15 23 0 -2
BITMAP
0000023340333300
0000490035500300
0004F7105F210300
000CF4309E030300
001FF130CB032100
004FD000E8003000
008FC004F8003000
00BFFDA8789B3000
005E503333312400
03D7030000030120
0DF30307CA103030
4FF2030CFF303030
5FF2030BFF303030
6FF20307FF303030
6FF20307FF303030
6FF20307FF303030
6FF20306FD203030
6FF2030000030030
6FF5003333310030
4FFD200000000500
1EFFEA6444588100
05FFFFFFFFF80000
0029DEFED9300000
ENDCHAR
STARTCHAR OE
ENCODING 338
SWIDTH 1115 0
DWIDTH 20 0
BBX 20 16 0 -2
BITMAP
00002333333333333333
00061000000000000003
00A60033333343333203
0AF30400000120222224
2FF20307CC0120EFFFA0
5FF2030CFF0120455610
6FF2030CFF0143330030
6FF2030CFF0120000030
6FF2030CFF0120666720
6FF2030CFF0120EFF500
6FF30405990120896332
6FF60033333343333203
4FFD1000000000000003
1FFFD743333333333334
07FFFFFFFFFFFFFFFFA0
005CEFFFFFFFFFFFF700
ENDCHAR
STARTCHAR oe
ENCODING 339
SWIDTH 1115 0
DWIDTH 20 0
BBX 20 16 0 -2
BITMAP
00002333333333333333
00061000000000000003
00A60033333343333203
0AF30400000120222224
2FF20307CC0120EFFFA0
5FF2030CFF0120455610
6FF2030CFF0143330030
6FF2030CFF0120000030
6FF2030CFF0120666720
6FF2030CFF0120EFF500
6FF30405990120896332
6FF60033333343333203
4FFD1000000000000003
1FFFD743333333333334
07FFFFFFFFFFFFFFFFA0
005CEFFFFFFFFFFFF700
ENDCHAR
STARTCHAR Racute
ENCODING 340
SWIDTH 843 0
DWIDTH 15 0
BBX 15 20 0 -2
BITMAP
00000468ABBB5000
0001B75443203000
002DC02200002000
00AFC00001301000
00BB713567832000
00C5000000002200
0BF5033333300300
3FF5030461120300
3FF50309F7030300
3FF50309F6030300
3FF5030000132300
3FF5042223520030
3FF5030000003030
3FF5030243103030
3FF50309FF803030
3FF50309FF903030
3FF50103EF901030
3FF83334EFB33340
3FFFFF90EFFFFB10
1EFFE600BFFF9000
ENDCHAR
STARTCHAR racute
ENCODING 341
SWIDTH 843 0
DWIDTH 15 0
BBX 15 20 0 -2
BITMAP
00000468ABBB5000
0001B75443203000
002DC02200002000
00AFC00001301000
00BB713567832000
00C5000000002200
0BF5033333300300
3FF5030461120300
3FF50309F7030300
3FF50309F6030300
3FF5030000132300
3FF5042223520030
3FF5030000003030
3FF5030243103030
3FF50309FF803030
3FF50309FF903030
3FF50103EF901030
3FF83334EFB33340
3FFFFF90EFFFFB10
1EFFE600BFFF9000
ENDCHAR
STARTCHAR Rcommaaccent
ENCODING 342
SWIDTH 843 0
DWIDTH 15 0
BBX 15 23 0 -9
BITMAP
0026333333333000
03E5033333201300
1EF5030000220300
3FF50309F6030300
3FF50309F7030300
3FF5030461032200
3FF5030000120320
3FF5042223520030
3FF5030000003030
3FF50309FF703030
3FF50309FF903030
3FF50205FF902030
3FF50003EF900030
3FF83332EFC33330
3FFFFF7389AFFA00
1EFFE9C0330F9000
00005FD003030000
0000AFFCA3030000
0000AFF103120000
00009FF132300000
00003EFA97100000
00007FFF90000000
0000277400000000
ENDCHAR
STARTCHAR rcommaaccent
ENCODING 343
SWIDTH 843 0
DWIDTH 15 0
BBX 15 23 0 -9
BITMAP
0026333333333000
03E5033333201300
1EF5030000220300
3FF50309F6030300
3FF50309F7030300
3FF5030461032200
3FF5030000120320
3FF5042223520030
3FF5030000003030
3FF50309FF703030
3FF50309FF903030
3FF50205FF902030
3FF50003EF900030
3FF83332EFC33330
3FFFFF7389AFFA00
1EFFE9C0330F9000
00005FD003030000
0000AFFCA3030000
0000AFF103120000
00009FF132300000
00003EFA97100000
00007FFF90000000
0000277400000000
ENDCHAR
STARTCHAR Rcaron
ENCODING 344
SWIDTH 843 0
DWIDTH 15 0
BBX 15 21 0 -2
BITMAP
00007B7100132000
0007F01433203000
005FF01233203000
008FF30000003000
008FFFB513980000
007DAAAAAA941000
0095000000003100
0BF5033333300300
3FF5030461120300
3FF50309F7030300
3FF50309F6030300
3FF5030000132300
3FF5042223520030
3FF5030000003030
3FF5030243103030
3FF50309FF803030
3FF50309FF903030
3FF50103EF901030
3FF83334EFB33340
3FFFFF90EFFFFB10
1EFFE600BFFF9000
ENDCHAR
STARTCHAR rcaron
ENCODING 345
SWIDTH 843 0
DWIDTH 15 0
BBX 15 21 0 -2
BITMAP
00007B7100132000
0007F01433203000
005FF01233203000
008FF30000003000
008FFFB513980000
007DAAAAAA941000
0095000000003100
0BF5033333300300
3FF5030461120300
3FF50309F7030300
3FF50309F6030300
3FF5030000132300
3FF5042223520030
3FF5030000003030
3FF5030243103030
3FF50309FF803030
3FF50309FF903030
3FF50103EF901030
3FF83334EFB33340
3FFFFF90EFFFFB10
1EFFE600BFFF9000
ENDCHAR
STARTCHAR Sacute
ENCODING 346
SWIDTH 750 0
DWIDTH 14 0
BBX 14 21 0 -2
BITMAP
00000000024400
000069BDFECC00
0009B675331210
00BF5000000100
03FF5000021500
03FF8001333330
02FA0000000030
00A30233332030
08F00300000030
4FF0120CFFFA00
7FF00201468300
8FF20222100130
8FF80000222021
6FFFA520002103
1EFFFFFFB01103
02C76666403003
07F01333332022
6FF00000000040
8FF53333346710
8FFFFFFFFF8000
5FFFFFFEB40000
ENDCHAR
STARTCHAR sacute
ENCODING 347
SWIDTH 750 0
DWIDTH 14 0
BBX 14 21 0 -2
BITMAP
00000000024400
000069BDFECC00
0009B675331210
00BF5000000100
03FF5000021500
03FF8001333330
02FA0000000030
00A30233332030
08F00300000030
4FF0120CFFFA00
7FF00201468300
8FF20222100130
8FF80000222021
6FFFA520002103
1EFFFFFFB01103
02C76666403003
07F01333332022
6FF00000000040
8FF53333346710
8FFFFFFFFF8000
5FFFFFFEB40000
ENDCHAR
STARTCHAR Scircumflex
ENCODING 348
SWIDTH 750 0
DWIDTH 14 0
BBX 14 21 0 -2
BITMAP
00000023320000
00002310014300
00082033320300
00AF2001000300
05FF67CFFB7300
05FFC643333330
05FA0000000030
01A30233332030
09F00300000030
4FF0120CFFFA00
7FF00201468300
8FF20222100130
8FF80000222021
6FFFA520002103
1EFFFFFFB01103
02C76666403003
07F01333332022
6FF00000000040
8FF53333346710
8FFFFFFFFF8000
5FFFFFFEB40000
ENDCHAR
STARTCHAR scircumflex
ENCODING 349
SWIDTH 750 0
DWIDTH 14 0
BBX 14 21 0 -2
BITMAP
00000023320000
00002310014300
00082033320300
00AF2001000300
05FF67CFFB7300
05FFC643333330
05FA0000000030
01A30233332030
09F00300000030
4FF0120CFFFA00
7FF00201468300
8FF20222100130
8FF80000222021
6FFFA520002103
1EFFFFFFB01103
02C76666403003
07F01333332022
6FF00000000040
8FF53333346710
8FFFFFFFFF8000
5FFFFFFEB40000
ENDCHAR
STARTCHAR Scedilla
ENCODING 350
SWIDTH 750 0
DWIDTH 14 0
BBX 14 19 0 -5
BITMAP
00003333333330
00160000000030
02D30233332030
0CF00300000030
6FF0120CFFFA00
8FF00201468200
8FF20222100030
8FF80000222011
6FFFA520002103
1EFFFFFFB01103
02C76666403003
07F01333432031
6FF00001200150
8FF97603049800
8FFFF9010B7000
5FFFF600240000
000CFFFF500000
002FFFE4000000
00034310000000
ENDCHAR
STARTCHAR scedilla
ENCODING 351
SWIDTH 750 0
DWIDTH 14 0
BBX 14 19 0 -5
BITMAP
00003333333330
00160000000030
02D30233332030
0CF00300000030
6FF0120CFFFA00
8FF00201468200
8FF20222100030
8FF80000222011
6FFFA520002103
1EFFFFFFB01103
02C76666403003
07F01333432031
6FF00001200150
8FF97603049800
8FFFF9010B7000
5FFFF600240000
000CFFFF500000
002FFFE4000000
00034310000000
ENDCHAR
STARTCHAR Scaron
ENCODING 352
SWIDTH 750 0
DWIDTH 14 0
BBX 14 21 0 -2
BITMAP
0003B930002300
003E5034330210
01EF5023320210
03FF8000000100
03FFFD82176000
01EFC643333330
00170000000030
00A30233332030
0AF00300000030
5FF0120CFFFA00
7FF00201468300
8FF20222100130
8FF80000222021
6FFFA520002103
1EFFFFFFB01103
02C76666403003
07F01333332022
6FF00000000040
8FF53333346710
8FFFFFFFFF8000
5FFFFFFEB40000
ENDCHAR
STARTCHAR scaron
ENCODING 353
SWIDTH 750 0
DWIDTH 14 0
BBX 14 21 0 -2
BITMAP
0003B930002300
003E5034330210
01EF5023320210
03FF8000000100
03FFFD82176000
01EFC643333330
00170000000030
00A30233332030
0AF00300000030
5FF0120CFFFA00
7FF00201468300
8FF20222100130
8FF80000222021
6FFFA520002103
1EFFFFFFB01103
02C76666403003
07F01333332022
6FF00000000040
8FF53333346710
8FFFFFFFFF8000
5FFFFFFEB40000
ENDCHAR
STARTCHAR Tcommaaccent
ENCODING 354
SWIDTH 756 0
DWIDTH 14 0
BBX 14 23 0 -9
BITMAP
01633333333333
1C902334333203
CF900002100003
EFC44302103443
EFFFFD0210EF70
BFFFFD0210D500
000AFD02103000
000AFD02103000
000AFD02103000
000AFD02103000
000AFD02103000
000AFD01003000
000AFE00003000
000AFFDCCA0000
000AFE00003000
0007FD03303000
0004FE00203000
0009FFCA302000
0009FF20311000
0008FF23210000
0003EFB9600000
0006FFF9000000
00027740000000
ENDCHAR
STARTCHAR tcommaaccent
ENCODING 355
SWIDTH 756 0
DWIDTH 14 0
BBX 14 23 0 -9
BITMAP
01633333333333
1C902334333203
CF900002100003
EFC44302103443
EFFFFD0210EF70
BFFFFD0210D500
000AFD02103000
000AFD02103000
000AFD02103000
000AFD02103000
000AFD02103000
000AFD01003000
000AFE00003000
000AFFDCCA0000
000AFE00003000
0007FD03303000
0004FE00203000
0009FFCA302000
0009FF20311000
0008FF23210000
0003EFB9600000
0006FFF9000000
00027740000000
ENDCHAR
STARTCHAR Tcaron
ENCODING 356
SWIDTH 756 0
DWIDTH 14 0
BBX 14 21 0 -2
BITMAP
0004B820003300
005F3044330300
03FF3023320300
05FF6000000100
05FFFD71275000
02B33333333333
0A900000000003
AF902334333203
EFA00002100003
EFFFFD0210EFA0
DFFFFD0210E900
244BFD02105000
000AFD02103000
000AFD02103000
000AFD02103000
000AFD02103000
000AFD02103000
000AFD00003000
000AFE43342000
000AFFFFE40000
0007FFFD200000
ENDCHAR
STARTCHAR tcaron
ENCODING 357
SWIDTH 756 0
DWIDTH 14 0
BBX 14 21 0 -2
BITMAP
0004B820003300
005F3044330300
03FF3023320300
05FF6000000100
05FFFD71275000
02B33333333333
0A900000000003
AF902334333203
EFA00002100003
EFFFFD0210EFA0
DFFFFD0210E900
244BFD02105000
000AFD02103000
000AFD02103000
000AFD02103000
000AFD02103000
000AFD02103000
000AFD00003000
000AFE43342000
000AFFFFE40000
0007FFFD200000
ENDCHAR
STARTCHAR Tbar
ENCODING 358
SWIDTH 756 0
DWIDTH 14 0
BBX 14 16 0 -2
BITMAP
00633333333333
1B900000000003
BF902334333203
EF900002100002
EFFCCA0210BC91
EFFFFD0210EB10
477C9802108310
007C0234431030
07FD0002100030
0AFFB90210AA20
0AFFFD0210B200
05BDFD02103000
000AFD00003000
000AFE43332000
000AFFFFE30000
0007FFFD200000
ENDCHAR
STARTCHAR tbar
ENCODING 359
SWIDTH 756 0
DWIDTH 14 0
BBX 14 16 0 -2
BITMAP
00633333333333
1B900000000003
BF902334333203
EF900002100002
EFFCCA0210BC91
EFFFFD0210EB10
477C9802108310
007C0234431030
07FD0002100030
0AFFB90210AA20
0AFFFD0210B200
05BDFD02103000
000AFD00003000
000AFE43332000
000AFFFFE30000
0007FFFD200000
ENDCHAR
STARTCHAR Utilde
ENCODING 360
SWIDTH 846 0
DWIDTH 15 0
BBX 15 21 0 -2
BITMAP
0000023333243000
0000620000103000
0007F01332103000
005FF00001302000
008FF36752011000
0087333CFF833330
05E30107DF501030
3FF30305FF503030
4FF30306FF503030
4FF30306FF503030
4FF30306FF503030
4FF30306FF503030
4FF30306FF503030
4FF30306FF503030
4FF30303BA203030
4FF4031000031030
4FF7002333310030
2FFE300000000400
0DFFFA6444587000
04EFFFFFFFF70000
0028CEFEDA300000
ENDCHAR
STARTCHAR utilde
ENCODING 361
SWIDTH 846 0
DWIDTH 15 0
BBX 15 21 0 -2
BITMAP
0000023333243000
0000620000103000
0007F01332103000
005FF00001302000
008FF36752011000
0087333CFF833330
05E30107DF501030
3FF30305FF503030
4FF30306FF503030
4FF30306FF503030
4FF30306FF503030
4FF30306FF503030
4FF30306FF503030
4FF30306FF503030
4FF30303BA203030
4FF4031000031030
4FF7002333310030
2FFE300000000400
0DFFFA6444587000
04EFFFFFFFF70000
0028CEFEDA300000
ENDCHAR
STARTCHAR Umacron
ENCODING 362
SWIDTH 846 0
DWIDTH 15 0
BBX 15 20 0 -2
BITMAP
0000133333332000
0001C01333303000
002DF00000003000
007FF20000001000
008DCCCFFFECCC50
00B4000AFF500030
1CF30204CF502030
4FF30306FF503030
4FF30306FF503030
4FF30306FF503030
4FF30306FF503030
4FF30306FF503030
4FF30306FF503030
4FF30304CB203030
4FF4031000031030
4FF7002333310030
2FFE300000000400
0EFFFA6444587000
04FFFFFFFFF70000
0029CEFEDA300000
ENDCHAR
STARTCHAR umacron
ENCODING 363
SWIDTH 846 0
DWIDTH 15 0
BBX 15 20 0 -2
BITMAP
0000133333332000
0001C01333303000
002DF00000003000
007FF20000001000
008DCCCFFFECCC50
00B4000AFF500030
1CF30204CF502030
4FF30306FF503030
4FF30306FF503030
4FF30306FF503030
4FF30306FF503030
4FF30306FF503030
4FF30306FF503030
4FF30304CB203030
4FF4031000031030
4FF7002333310030
2FFE300000000400
0EFFFA6444587000
04FFFFFFFFF70000
0029CEFEDA300000
ENDCHAR
STARTCHAR Ubreve
ENCODING 364
SWIDTH 846 0
DWIDTH 15 0
BBX 15 21 0 -2
BITMAP
0000233303333000
0003C0026C003000
004EE03021122000
009FF21333301000
009FFD5100200000
0057333CFF833330
03D3000AFF500030
2EF30204CF502030
4FF30306FF503030
4FF30306FF503030
4FF30306FF503030
4FF30306FF503030
4FF30306FF503030
4FF30306FF503030
4FF30304CB203030
4FF4031000021030
4FF7002333310030
2FFE300000000400
0DFFFA6444587000
04EFFFFFFFF70000
0029CEFEDA300000
ENDCHAR
STARTCHAR ubreve
ENCODING 365
SWIDTH 846 0
DWIDTH 15 0
BBX 15 21 0 -2
BITMAP
0000233303333000
0003C0026C003000
004EE03021122000
009FF21333301000
009FFD5100200000
0057333CFF833330
03D3000AFF500030
2EF30204CF502030
4FF30306FF503030
4FF30306FF503030
4FF30306FF503030
4FF30306FF503030
4FF30306FF503030
4FF30306FF503030
4FF30304CB203030
4FF4031000021030
4FF7002333310030
2FFE300000000400
0DFFFA6444587000
04EFFFFFFFF70000
0029CEFEDA300000
ENDCHAR
STARTCHAR Uring
ENCODING 366
SWIDTH 846 0
DWIDTH 15 0
BBX 15 24 0 -2
BITMAP
0000003333320000
0000151333323000
0002D03031223000
002ED033FC033000
008FD032EB033000
009FE03000122000
009FF21333300000
009FFD5100200000
0057333CFF833330
04E30008CF500030
2FF30304DF503030
4FF30306FF503030
4FF30306FF503030
4FF30306FF503030
4FF30306FF503030
4FF30306FF503030
4FF30306FF503030
4FF30306FF503030
4FF40313BA131030
4FF7002333310030
2FFE300000000400
0DFFFA6444587000
04EFFFFFFFF70000
0029CEFEDA300000
ENDCHAR
STARTCHAR uring
ENCODING 367
SWIDTH 846 0
DWIDTH 15 0
BBX 15 24 0 -2
BITMAP
0000003333320000
0000151333323000
0002D03031223000
002ED033FC033000
008FD032EB033000
009FE03000122000
009FF21333300000
009FFD5100200000
0057333CFF833330
04E30008CF500030
2FF30304DF503030
4FF30306FF503030
4FF30306FF503030
4FF30306FF503030
4FF30306FF503030
4FF30306FF503030
4FF30306FF503030
4FF30306FF503030
4FF40313BA131030
4FF7002333310030
2FFE300000000400
0DFFFA6444587000
04EFFFFFFFF70000
0029CEFEDA300000
ENDCHAR
STARTCHAR Uhungarumlaut
ENCODING 368
SWIDTH 846 0
DWIDTH 15 0
BBX 15 23 0 -2
BITMAP
0000013331333300
00001A0016700300
0001C9013E510200
0009F6126F230200
000CF3309E030200
001FF100CB001000
004FE102FA002000
007DCCCFFFECCC50
00B4000AFF500030
1BF30204CF502030
4FF30306FF503030
4FF30306FF503030
4FF30306FF503030
4FF30306FF503030
4FF30306FF503030
4FF30306FF503030
4FF30304CB203030
4FF4031000031030
4FF7002333310030
2FFE300000000400
0EFFFA6444587000
04FFFFFFFFF70000
0029CEFEDA300000
ENDCHAR
STARTCHAR uhungarumlaut
ENCODING 369
SWIDTH 846 0
DWIDTH 15 0
BBX 15 23 0 -2
BITMAP
0000013331333300
00001A0016700300
0001C9013E510200
0009F6126F230200
000CF3309E030200
001FF100CB001000
004FE102FA002000
007DCCCFFFECCC50
00B4000AFF500030
1BF30204CF502030
4FF30306FF503030
4FF30306FF503030
4FF30306FF503030
4FF30306FF503030
4FF30306FF503030
4FF30306FF503030
4FF30304CB203030
4FF4031000031030
4FF7002333310030
2FFE300000000400
0EFFFA6444587000
04FFFFFFFFF70000
0029CEFEDA300000
ENDCHAR
STARTCHAR Uogonek
ENCODING 370
SWIDTH 846 0
DWIDTH 15 0
BBX 15 20 0 -6
BITMAP
0035333302533330
04E300032D500030
2FF30304EF503030
4FF30306FF503030
4FF30306FF503030
4FF30306FF503030
4FF30306FF503030
4FF30306FF503030
4FF30306FF503030
4FF30306FF503030
4FF4030388103020
4FF6021000031020
2FFC002333310000
0EFFC51030143000
06FFFFF130B90000
005CFFF032030000
00006FF710030000
00007FFFFFC20000
00003EFFFB100000
0000013440000000
ENDCHAR
STARTCHAR uogonek
ENCODING 371
SWIDTH 846 0
DWIDTH 15 0
BBX 15 20 0 -6
BITMAP
0035333302533330
04E300032D500030
2FF30304EF503030
4FF30306FF503030
4FF30306FF503030
4FF30306FF503030
4FF30306FF503030
4FF30306FF503030
4FF30306FF503030
4FF30306FF503030
4FF4030388103020
4FF6021000031020
2FFC002333310000
0EFFC51030143000
06FFFFF130B90000
005CFFF032030000
00006FF710030000
00007FFFFFC20000
00003EFFFB100000
0000013440000000
ENDCHAR
STARTCHAR Wcircumflex
ENCODING 372
SWIDTH 931 0
DWIDTH 17 0
BBX 17 21 0 -2
BITMAP
000000013331000000
000002430003420000
00004B013331030000
0006FC000100030000
000BFD59DFE9520000
0056334DFFFF433410
07F2010327FF000120
4FF2030307FF021120
5FF2030308FF021120
5FF2030336CF021120
5FF20308201E021120
5FF203080008021120
5FF203021322021120
5FF203003030030120
5FF403031403030210
5FF703030F12130300
4FFC01304F50320300
1FFF20008F90001100
0AFFA334DFE4334000
05FFFFF5EFFFFA0000
01CFFE408FFF800000
ENDCHAR
STARTCHAR wcircumflex
ENCODING 373
SWIDTH 931 0
DWIDTH 17 0
BBX 17 21 0 -2
BITMAP
000000013331000000
000002430003420000
00004B013331030000
0006FC000100030000
000BFD59DFE9520000
0056334DFFFF433410
07F2010327FF000120
4FF2030307FF021120
5FF2030308FF021120
5FF2030336CF021120
5FF20308201E021120
5FF203080008021120
5FF203021322021120
5FF203003030030120
5FF403031403030210
5FF703030F12130300
4FFC01304F50320300
1FFF20008F90001100
0AFFA334DFE4334000
05FFFFF5EFFFFA0000
01CFFE408FFF800000
ENDCHAR
STARTCHAR Ycircumflex
ENCODING 374
SWIDTH 805 0
DWIDTH 14 0
BBX 15 21 0 -2
BITMAP
0000001333000000
0000243000451000
0004901333103000
006F901000103000
00DFB48CEB731000
00D4335FFF433410
08D00016DF000120
7FD03017FF021120
9FD0301AFF021120
9FD0200AFE020120
9FE00309F8030210
9FF60211A1210400
8FFE203001202100
3FFFC00242012000
08FFF90030030000
00CFFF3030300000
002EFF5030300000
0006FF5000300000
0003FF9333300000
0003FFFFF9000000
0001EFFF70000000
ENDCHAR
STARTCHAR ycircumflex
ENCODING 375
SWIDTH 805 0
DWIDTH 14 0
BBX 15 21 0 -2
BITMAP
0000001333000000
0000243000451000
0004901333103000
006F901000103000
00DFB48CEB731000
00D4335FFF433410
08D00016DF000120
7FD03017FF021120
9FD0301AFF021120
9FD0200AFE020120
9FE00309F8030210
9FF60211A1210400
8FFE203001202100
3FFFC00242012000
08FFF90030030000
00CFFF3030300000
002EFF5030300000
0006FF5000300000
0003FF9333300000
0003FFFFF9000000
0001EFFF70000000
ENDCHAR
STARTCHAR Ydieresis
ENCODING 376
SWIDTH 805 0
DWIDTH 14 0
BBX 15 21 0 -2
BITMAP
0000433323332000
001B3002C0003000
01CF3122D0203000
05FF3002D0002000
05FF5003E1001000
05FCCCDFFFCCCB10
1BE0001FFF000120
8FD02016EF020120
9FD0301AFF021120
9FD0200AFE020120
9FE00307F6030110
9FF4021050210200
8FFE103001201000
2FFFB00242011000
07FFF80030030000
00CFFF3030300000
002EFF5030300000
0006FF5000300000
0003FF9333300000
0003FFFFF9000000
0001EFFF70000000
ENDCHAR
STARTCHAR Zacute
ENCODING 377
SWIDTH 760 0
DWIDTH 14 0
BBX 14 21 0 -2
BITMAP
00000000024400
000059BDFECC10
0008C676431120
00AF6000000010
01FF6000021600
01F70311333340
04F30000000030
2FF30333333030
4FF50000003030
4FFFFFF5021030
3FFFFF80120120
03447B00300300
0001B103003000
000B2030021000
00950210120000
06E01200433331
3FD00333333103
9FD00000000003
9FF43333333343
9FFFFFFFFFFF60
7FFFFFFFFFD300
ENDCHAR
STARTCHAR zacute
ENCODING 378
SWIDTH 760 0
DWIDTH 14 0
BBX 14 21 0 -2
BITMAP
00000000024400
000059BDFECC10
0008C676431120
00AF6000000010
01FF6000021600
01F70311333340
04F30000000030
2FF30333333030
4FF50000003030
4FFFFFF5021030
3FFFFF80120120
03447B00300300
0001B103003000
000B2030021000
00950210120000
06E01200433331
3FD00333333103
9FD00000000003
9FF43333333343
9FFFFFFFFFFF60
7FFFFFFFFFD300
ENDCHAR
STARTCHAR Zdotaccent
ENCODING 379
SWIDTH 760 0
DWIDTH 14 0
BBX 14 21 0 -2
BITMAP
00000133331000
00002C00003000
0003EE01203000
0008FE00003000
0008FF10010000
00363333333340
04E30000000030
2EF30333333030
4FF50000003030
4FFFFFF5021030
3FFFFF80120120
03447B00300300
0001B103003000
000B2030021000
00950210120000
06E01200433331
3FD00333333103
9FD00000000003
9FF43333333343
9FFFFFFFFFFF60
7FFFFFFFFFD300
ENDCHAR
STARTCHAR zdotaccent
ENCODING 380
SWIDTH 760 0
DWIDTH 14 0
BBX 14 21 0 -2
BITMAP
00000133331000
00002C00003000
0003EE01203000
0008FE00003000
0008FF10010000
00363333333340
04E30000000030
2EF30333333030
4FF50000003030
4FFFFFF5021030
3FFFFF80120120
03447B00300300
0001B103003000
000B2030021000
00950210120000
06E01200433331
3FD00333333103
9FD00000000003
9FF43333333343
9FFFFFFFFFFF60
7FFFFFFFFFD300
ENDCHAR
STARTCHAR Zcaron
ENCODING 381
SWIDTH 760 0
DWIDTH 14 0
BBX 14 21 0 -2
BITMAP
0004B930003300
004F4044330300
02FF4023320300
04FF7000000100
04FFFD71275000
02D73333333340
02D30000000030
2EF30333333030
4FF50000003030
4FFFFFF5021030
3FFFFF80120120
03447B00300300
0001B103003000
000B2030021000
00950210120000
06E01200433331
3FD00333333103
9FD00000000003
9FF43333333343
9FFFFFFFFFFF60
7FFFFFFFFFD300
ENDCHAR
STARTCHAR zcaron
ENCODING 382
SWIDTH 760 0
DWIDTH 14 0
BBX 14 21 0 -2
BITMAP
0004B930003300
004F4044330300
02FF4023320300
04FF7000000100
04FFFD71275000
02D73333333340
02D30000000030
2EF30333333030
4FF50000003030
4FFFFFF5021030
3FFFFF80120120
03447B00300300
0001B103003000
000B2030021000
00950210120000
06E01200433331
3FD00333333103
9FD00000000003
9FF43333333343
9FFFFFFFFFFF60
7FFFFFFFFFD300
ENDCHAR
STARTCHAR Schwa
ENCODING 399
SWIDTH 815 0
DWIDTH 15 0
BBX 15 16 0 -2
BITMAP
0002633333333000
003E603333310500
01FF600000040310
01FFD99998021020
01FFFFFFFF211030
00D2000000011030
09F0133333341030
6FF0210000011030
7FF02109AA111030
7FF0120AFD121030
7FF2040000040020
7FF5013333310200
6FFD200000001300
3FFFEA6444585000
0AFFFFFFFFE40000
005BDFFEC8200000
ENDCHAR
STARTCHAR florin
ENCODING 402
SWIDTH 674 0
DWIDTH 12 0
BBX 12 16 0 -2
BITMAP
000000333334
000006200003
000098013303
0008F4040002
001FF30307A2
007A92030653
08D000030003
7FD013353203
9FE320030124
9FFFF2030BB1
5CF540120700
1BD013301300
8FD000004000
9FE434661000
9FFFFF900000
7FFEB5000000
ENDCHAR
STARTCHAR Ohorn
ENCODING 416
SWIDTH 847 0
DWIDTH 15 0
BBX 16 18 0 -2
BITMAP
0000000000004332
00000000000A2003
0000222222220303
0004101101363141
0095020000042030
0AF20207CA103030
2FF2030CFF303030
5FF2030BFF303030
6FF20307FF303030
6FF20307FF303030
6FF20307FF303030
6FF20306FD202030
6FF3030000030030
6FF5003333310120
5FFD200000001300
2FFFFA6444586000
09FFFFFFFFF60000
005ADEFED9300000
ENDCHAR
STARTCHAR ohorn
ENCODING 417
SWIDTH 847 0
DWIDTH 15 0
BBX 16 18 0 -2
BITMAP
0000000000004332
00000000000A2003
0000222222220303
0004101101363141
0095020000042030
0AF20207CA103030
2FF2030CFF303030
5FF2030BFF303030
6FF20307FF303030
6FF20307FF303030
6FF20307FF303030
6FF20306FD202030
6FF3030000030030
6FF5003333310120
5FFD200000001300
2FFFFA6444586000
09FFFFFFFFF60000
005ADEFED9300000
ENDCHAR
STARTCHAR Uhorn
ENCODING 431
SWIDTH 856 0
DWIDTH 15 0
BBX 16 18 0 -2
BITMAP
0000000000004332
00000000001B4003
0035333303730303
04E301034E503403
3FF30305FF503040
4FF30306FF503030
4FF30306FF503030
4FF30306FF503030
4FF30306FF503030
4FF30306FF503030
4FF30306FF503030
4FF30303BA203030
4FF4031000031030
4FF7002333310030
4FFE300000000400
1EFFFA6444587000
06FFFFFFFFF70000
0039DEFEDA300000
ENDCHAR
STARTCHAR uhorn
ENCODING 432
SWIDTH 856 0
DWIDTH 15 0
BBX 16 18 0 -2
BITMAP
0000000000004332
00000000001B4003
0035333303730303
04E301034E503403
3FF30305FF503040
4FF30306FF503030
4FF30306FF503030
4FF30306FF503030
4FF30306FF503030
4FF30306FF503030
4FF30306FF503030
4FF30303BA203030
4FF4031000031030
4FF7002333310030
4FFE300000000400
1EFFFA6444587000
06FFFFFFFFF70000
0039DEFEDA300000
ENDCHAR
STARTCHAR Acaron
ENCODING 461
SWIDTH 830 0
DWIDTH 15 0
BBX 15 21 0 -2
BITMAP
00008A7100132000
0009D01433203000
007FD01233102000
00AFE20000001000
00AFFFB503830000
007FF93333341000
0003D10000003000
0009B01333103000
004F502020201200
00AE0011F4110300
01F90106F8010300
06F5010AFD010120
0CF2020000002030
2FF1143333333030
5FF1120000003030
7FF1120444103030
7FF1120FFF303030
7FF1010FFF301030
7FF53357FF733430
7FFFFE55FFFFF500
5FFFC203EFFE4000
ENDCHAR
STARTCHAR acaron
ENCODING 462
SWIDTH 830 0
DWIDTH 15 0
BBX 15 21 0 -2
BITMAP
00008A7100132000
0009D01433203000
007FD01233102000
00AFE20000001000
00AFFFB503830000
007FF93333341000
0003D10000003000
0009B01333103000
004F502020201200
00AE0011F4110300
01F90106F8010300
06F5010AFD010120
0CF2020000002030
2FF1143333333030
5FF1120000003030
7FF1120444103030
7FF1120FFF303030
7FF1010FFF301030
7FF53357FF733430
7FFFFE55FFFFF500
5FFFC203EFFE4000
ENDCHAR
STARTCHAR Icaron
ENCODING 463
SWIDTH 705 0
DWIDTH 13 0
BBX 13 21 0 -2
BITMAP
0009A600013200
00BB0143310300
09FB0123310300
0BFD1000000100
0BFFFA40482000
08F53333333410
03E00000000030
3EF01334331030
7FF10003000120
7FFCB50304B500
7FFFF703067000
278FF703030000
001FF703030000
001FF703030000
001FF703030000
002A9403023300
03D11334331020
3EF00000000030
7FF53333333520
7FFFFFFFFFE400
5FFFFFFFFC2000
ENDCHAR
STARTCHAR icaron
ENCODING 464
SWIDTH 705 0
DWIDTH 13 0
BBX 13 21 0 -2
BITMAP
0009A600013200
00BB0143310300
09FB0123310300
0BFD1000000100
0BFFFA40482000
08F53333333410
03E00000000030
3EF01334331030
7FF10003000120
7FFCB50304B500
7FFFF703067000
278FF703030000
001FF703030000
001FF703030000
001FF703030000
002A9403023300
03D11334331020
3EF00000000030
7FF53333333520
7FFFFFFFFFE400
5FFFFFFFFC2000
ENDCHAR
STARTCHAR Ocaron
ENCODING 465
SWIDTH 837 0
DWIDTH 15 0
BBX 15 22 0 -2
BITMAP
0000030000132000
0000711123203000
0009E01000203000
007FE00333103000
009FF81000042000
009FFFE714B50000
003CE96434433000
0018203333310300
01C5030000030030
0CF30307CA103030
3FF2030CFF303030
5FF2030BFF303030
6FF20307FF303030
6FF20307FF303030
6FF20307FF303030
6FF20306FD203030
6FF3030000030030
6FF5003333310030
4FFD200000000500
1EFFFA6444588000
05FFFFFFFFF70000
0029DEFED9300000
ENDCHAR
STARTCHAR ocaron
ENCODING 466
SWIDTH 837 0
DWIDTH 15 0
BBX 15 22 0 -2
BITMAP
0000030000132000
0000711123203000
0009E01000203000
007FE00333103000
009FF81000042000
009FFFE714B50000
003CE96434433000
0018203333310300
01C5030000030030
0CF30307CA103030
3FF2030CFF303030
5FF2030BFF303030
6FF20307FF303030
6FF20307FF303030
6FF20307FF303030
6FF20306FD203030
6FF3030000030030
6FF5003333310030
4FFD200000000500
1EFFFA6444588000
05FFFFFFFFF70000
0029DEFED9300000
ENDCHAR
STARTCHAR Ucaron
ENCODING 467
SWIDTH 846 0
DWIDTH 15 0
BBX 15 22 0 -2
BITMAP
0000030000132000
0000433023203000
0006F01100203000
005FF00333102000
007FF91000020000
007FFFE713A30000
0067333CFD833330
05E301055E501030
3FF30305FF503030
4FF30306FF503030
4FF30306FF503030
4FF30306FF503030
4FF30306FF503030
4FF30306FF503030
4FF30306FF503030
4FF30303BA203030
4FF4031000031030
4FF7002333310030
2FFE300000000400
0DFFFA6444587000
04EFFFFFFFF70000
0028CEFEDA300000
ENDCHAR
STARTCHAR ucaron
ENCODING 468
SWIDTH 846 0
DWIDTH 15 0
BBX 15 22 0 -2
BITMAP
0000030000132000
0000433023203000
0006F01100203000
005FF00333102000
007FF91000020000
007FFFE713A30000
0067333CFD833330
05E301055E501030
3FF30305FF503030
4FF30306FF503030
4FF30306FF503030
4FF30306FF503030
4FF30306FF503030
4FF30306FF503030
4FF30306FF503030
4FF30303BA203030
4FF4031000031030
4FF7002333310030
2FFE300000000400
0DFFFA6444587000
04EFFFFFFFF70000
0028CEFEDA300000
ENDCHAR
STARTCHAR Udieresismacron
ENCODING 469
SWIDTH 846 0
DWIDTH 15 0
BBX 15 25 0 -2
BITMAP
0000133333332000
0001C00000003000
002DE01333203000
008FF00000003000
008FFA99CB995000
008F9000C4002100
007F9020B4021100
00EF9000B4001100
00EFA000C5001000
00EDCCCFFFECCC50
07F4000AFF500030
3FF30204CF502030
4FF30306FF503030
4FF30306FF503030
4FF30306FF503030
4FF30306FF503030
4FF30306FF503030
4FF30306FF503030
4FF30304CB203030
4FF4031000031030
4FF7002333310030
2FFE300000000400
0DFFFA6444587000
04EFFFFFFFF70000
0028CEFEDA300000
ENDCHAR
STARTCHAR udieresismacron
ENCODING 470
SWIDTH 846 0
DWIDTH 15 0
BBX 15 25 0 -2
BITMAP
0000133333332000
0001C00000003000
002DE01333203000
008FF00000003000
008FFA99CB995000
008F9000C4002100
007F9020B4021100
00EF9000B4001100
00EFA000C5001000
00EDCCCFFFECCC50
07F4000AFF500030
3FF30204CF502030
4FF30306FF503030
4FF30306FF503030
4FF30306FF503030
4FF30306FF503030
4FF30306FF503030
4FF30306FF503030
4FF30304CB203030
4FF4031000031030
4FF7002333310030
2FFE300000000400
0DFFFA6444587000
04EFFFFFFFF70000
0028CEFEDA300000
ENDCHAR
STARTCHAR Udieresisacute
ENCODING 471
SWIDTH 846 0
DWIDTH 15 0
BBX 15 25 0 -2
BITMAP
000000027AD30000
0000004EFFA50000
000007FA31030000
00001FF600310000
0000499003823000
0007900273002100
008F9020B4021100
00EF9000B4001100
00EFA000C5001000
00EDCCCFFFECCC50
09F4000AFF500030
4FF30204CF502030
4FF30306FF503030
4FF30306FF503030
4FF30306FF503030
4FF30306FF503030
4FF30306FF503030
4FF30306FF503030
4FF30304CB203030
4FF4031000031030
4FF7002333310030
2FFE300000000400
0DFFFA6444587000
04EFFFFFFFF70000
0028CEFEDA300000
ENDCHAR
STARTCHAR udieresisacute
ENCODING 472
SWIDTH 846 0
DWIDTH 15 0
BBX 15 25 0 -2
BITMAP
000000027AD30000
0000004EFFA50000
000007FA31030000
00001FF600310000
0000499003823000
0007900273002100
008F9020B4021100
00EF9000B4001100
00EFA000C5001000
00EDCCCFFFECCC50
09F4000AFF500030
4FF30204CF502030
4FF30306FF503030
4FF30306FF503030
4FF30306FF503030
4FF30306FF503030
4FF30306FF503030
4FF30306FF503030
4FF30304CB203030
4FF4031000031030
4FF7002333310030
2FFE300000000400
0DFFFA6444587000
04EFFFFFFFF70000
0028CEFEDA300000
ENDCHAR
STARTCHAR Udieresiscaron
ENCODING 473
SWIDTH 846 0
DWIDTH 15 0
BBX 15 26 0 -2
BITMAP
0000001000133000
0001B01233203000
001CF01100203000
007FF20333103000
008FFFA401791000
007FE999DB833000
001B9000B4002100
007F9020B4021100
00EF9000B4001100
00EFA000C5001000
00EDCCCFFFECCC50
08F4000AFF500030
3FF30204CF502030
4FF30306FF503030
4FF30306FF503030
4FF30306FF503030
4FF30306FF503030
4FF30306FF503030
4FF30306FF503030
4FF30304CB203030
4FF4031000031030
4FF7002333310030
2FFE300000000400
0DFFFA6444587000
04EFFFFFFFF70000
0028CEFEDA300000
ENDCHAR
STARTCHAR udieresiscaron
ENCODING 474
SWIDTH 846 0
DWIDTH 15 0
BBX 15 26 0 -2
BITMAP
0000001000133000
0001B01233203000
001CF01100203000
007FF20333103000
008FFFA401791000
007FE999DB833000
001B9000B4002100
007F9020B4021100
00EF9000B4001100
00EFA000C5001000
00EDCCCFFFECCC50
08F4000AFF500030
3FF30204CF502030
4FF30306FF503030
4FF30306FF503030
4FF30306FF503030
4FF30306FF503030
4FF30306FF503030
4FF30306FF503030
4FF30304CB203030
4FF4031000031030
4FF7002333310030
2FFE300000000400
0DFFFA6444587000
04EFFFFFFFF70000
0028CEFEDA300000
ENDCHAR
STARTCHAR Udieresisgrave
ENCODING 475
SWIDTH 846 0
DWIDTH 15 0
BBX 15 25 0 -2
BITMAP
0000009DA6100000
00001BEBFF800000
0000BFB023500000
0000CFB000200000
0000B96303333000
00069000A1102100
008F9020B4021100
00EF9000B4001100
00EFA000C5001000
00EDCCCFFFECCC50
08F4000AFF500030
4FF30204CF502030
4FF30306FF503030
4FF30306FF503030
4FF30306FF503030
4FF30306FF503030
4FF30306FF503030
4FF30306FF503030
4FF30304CB203030
4FF4031000031030
4FF7002333310030
2FFE300000000400
0DFFFA6444587000
04EFFFFFFFF70000
0028CEFEDA300000
ENDCHAR
STARTCHAR udieresisgrave
ENCODING 476
SWIDTH 846 0
DWIDTH 15 0
BBX 15 25 0 -2
BITMAP
0000009DA6100000
00001BEBFF800000
0000BFB023500000
0000CFB000200000
0000B96303333000
00069000A1102100
008F9020B4021100
00EF9000B4001100
00EFA000C5001000
00EDCCCFFFECCC50
08F4000AFF500030
4FF30204CF502030
4FF30306FF503030
4FF30306FF503030
4FF30306FF503030
4FF30306FF503030
4FF30306FF503030
4FF30306FF503030
4FF30304CB203030
4FF4031000031030
4FF7002333310030
2FFE300000000400
0DFFFA6444587000
04EFFFFFFFF70000
0028CEFEDA300000
ENDCHAR
STARTCHAR Gcaron
ENCODING 486
SWIDTH 808 0
DWIDTH 15 0
BBX 15 21 0 -2
BITMAP
0000AA6000132000
001BA02433103000
00AFA01232103000
00CFD10000001000
00CFFFA404720000
009FD74333334000
0005100000003000
0065013333303000
06F2030000003000
1FF20309FFFD2000
5FF2030CFFC10000
6FF2030546333300
6FF203035B000210
6FF20309FC020210
6FF20308DA030210
6FF2040000030210
6FF5013333340210
4FFD100000000210
1EFFE84333333500
07FFFFFFFFFFD200
005CEFFFFFFB1000
ENDCHAR
STARTCHAR gcaron
ENCODING 487
SWIDTH 808 0
DWIDTH 15 0
BBX 15 21 0 -2
BITMAP
0000AA6000132000
001BA02433103000
00AFA01232103000
00CFD10000001000
00CFFFA404720000
009FD74333334000
0005100000003000
0065013333303000
06F2030000003000
1FF20309FFFD2000
5FF2030CFFC10000
6FF2030546333300
6FF203035B000210
6FF20309FC020210
6FF20308DA030210
6FF2040000030210
6FF5013333340210
4FFD100000000210
1EFFE84333333500
07FFFFFFFFFFD200
005CEFFFFFFB1000
ENDCHAR
STARTCHAR Scommaaccent
ENCODING 536
SWIDTH 750 0
DWIDTH 14 0
BBX 14 23 0 -9
BITMAP
00003333333330
00160233332030
02D20300000030
1DF01204666630
6FF01209DFF500
8FF00400002210
8FF20023331020
7FFB1000004012
5FFFE974202103
0CFFFFFFD02103
00C10000003013
0AF01333332051
7FF10000001650
8FFEEEDCCDF600
8FFFFF10004000
5FFFFF03303000
0003EF10023000
0007FFDA223000
0007FF40212000
0007FF33320000
0002EFB9810000
0004FFFB100000
00017750000000
ENDCHAR
STARTCHAR scommaaccent
ENCODING 537
SWIDTH 750 0
DWIDTH 14 0
BBX 14 23 0 -9
BITMAP
00003333333330
00160233332030
02D20300000030
1DF01204666630
6FF01209DFF500
8FF00400002210
8FF20023331020
7FFB1000004012
5FFFE974202103
0CFFFFFFD02103
00C10000003013
0AF01333332051
7FF10000001650
8FFEEEDCCDF600
8FFFFF10004000
5FFFFF03303000
0003EF10023000
0007FFDA223000
0007FF40212000
0007FF33320000
0002EFB9810000
0004FFFB100000
00017750000000
ENDCHAR
STARTCHAR uni021A
ENCODING 538
SWIDTH 756 0
DWIDTH 14 0
BBX 14 23 0 -9
BITMAP
01633333333333
1C902334333203
CF900002100003
EFC44302103443
EFFFFD0210EF70
BFFFFD0210D500
000AFD02103000
000AFD02103000
000AFD02103000
000AFD02103000
000AFD02103000
000AFD01003000
000AFE00003000
000AFFDCCA0000
000AFE00003000
0007FD03303000
0004FE00203000
0009FFCA302000
0009FF20311000
0008FF23210000
0003EFB9600000
0006FFF9000000
00027740000000
ENDCHAR
STARTCHAR uni021B
ENCODING 539
SWIDTH 756 0
DWIDTH 14 0
BBX 14 23 0 -9
BITMAP
01633333333333
1C902334333203
CF900002100003
EFC44302103443
EFFFFD0210EF70
BFFFFD0210D500
000AFD02103000
000AFD02103000
000AFD02103000
000AFD02103000
000AFD02103000
000AFD01003000
000AFE00003000
000AFFDCCA0000
000AFE00003000
0007FD03303000
0004FE00203000
0009FFCA302000
0009FF20311000
0008FF23210000
0003EFB9600000
0006FFF9000000
00027740000000
ENDCHAR
STARTCHAR dotlessj
ENCODING 567
SWIDTH 788 0
DWIDTH 14 0
BBX 14 16 0 -2
BITMAP
00000000353333
00000004E30003
0000003FF30303
0000005FF30303
0000005FF30303
0000005FF30303
0023337FF30303
04C0004FF30303
5FC0204FF30303
AFC0302CC10303
AFD01300003103
AFF10133331003
9FF90000000040
5FFFD854457700
0BFFFFFFFF8000
006BEFEDA40000
ENDCHAR
STARTCHAR ascript
ENCODING 593
SWIDTH 846 0
DWIDTH 15 0
BBX 15 16 0 -2
BITMAP
0000233333333000
0004103333310400
0085030000030120
09F3030487003030
2FF2030CFF203030
5FF2030CFF303030
6FF20308FF303030
6FF20308FF303030
6FF20308FF303030
6FF20307FF303030
6FF2030000003030
6FF5003333332030
5FFD100000000030
3FFFD74333333430
0AFFFFFFFFFFF600
007CEFFFFFFE4000
ENDCHAR
STARTCHAR schwa
ENCODING 601
SWIDTH 815 0
DWIDTH 15 0
BBX 15 16 0 -2
BITMAP
0002633333333000
003E603333310500
01FF600000040310
01FFD99998021020
01FFFFFFFF211030
00D2000000011030
09F0133333341030
6FF0210000011030
7FF02109AA111030
7FF0120AFD121030
7FF2040000040020
7FF5013333310200
6FFD200000001300
3FFFEA6444585000
0AFFFFFFFFE40000
005BDFFEC8200000
ENDCHAR
STARTCHAR gscript
ENCODING 609
SWIDTH 815 0
DWIDTH 15 0
BBX 15 18 0 -4
BITMAP
0000233333332000
0004100000001300
0094013333310210
0AF1040000040020
4FF0120BFC011030
7FF0110EFF012030
8FF01107A9012030
8FF2030000012030
7FF9023333332030
6FFFA31000012030
1EFFFFFFFE012030
03CFD88885011030
000A600000030210
00AF603333310400
01FF800000135100
01FFFFFFFFF90000
01FFFFFFFE700000
0024444320000000
ENDCHAR
STARTCHAR commaturnedmod
ENCODING 699
SWIDTH 600 0
DWIDTH 11 0
BBX 7 9 2 5
BITMAP
00143330
03913230
3E835A40
CF730030
FF723230
FF900040
FFFFFE40
FFFFC200
24431000
ENDCHAR
STARTCHAR apostrophemod
ENCODING 700
SWIDTH 600 0
DWIDTH 11 0
BBX 7 9 2 6
BITMAP
00333330
08713230
AF800330
FFFB7330
FFB00320
EFB13120
8FE99500
CFFE5000
47620000
ENDCHAR
STARTCHAR ringhalfright
ENCODING 702
SWIDTH 412 0
DWIDTH 7 0
BBX 8 9 0 5
BITMAP
01733340
2DA03302
CFFC5303
DFFF6303
6AB00303
1CA02202
BFC44440
DFFFF700
BFFD5000
ENDCHAR
STARTCHAR ringhalfleft
ENCODING 703
SWIDTH 412 0
DWIDTH 7 0
BBX 8 9 0 5
BITMAP
00243332
02A03203
3EA03252
BFA03A40
DFA03331
DFB03203
DFF84442
BFFFFF60
4DFFE400
ENDCHAR
STARTCHAR circumflex
ENCODING 710
SWIDTH 600 0
DWIDTH 11 0
BBX 11 8 0 11
BITMAP
000003331000
001430003410
02A013331030
3DC010001030
AFD26ADB7230
BFFFFFFFFA00
AEA648CF8000
100000000000
ENDCHAR
STARTCHAR caron
ENCODING 711
SWIDTH 600 0
DWIDTH 11 0
BBX 11 7 0 12
BITMAP
002320001320
05B013332030
6FC020002030
BFE203331120
BFFFA4049500
7FFFFFFE4000
017CEA500000
ENDCHAR
STARTCHAR verticallinemod
ENCODING 712
SWIDTH 456 0
DWIDTH 8 0
BBX 8 10 0 4
BITMAP
00453333
06F30003
4FF30303
5FF30303
5FF30303
5FF30203
5FF40003
5FFFFFB1
4FFFFA00
03443000
ENDCHAR
STARTCHAR firsttonechinese
ENCODING 713
SWIDTH 600 0
DWIDTH 11 0
BBX 11 7 0 11
BITMAP
002333333320
03B000000030
3EC023332030
BFD000000030
BFFFFFFFF900
AFFFFFFF8000
144444430000
ENDCHAR
STARTCHAR secondtonechinese
ENCODING 714
SWIDTH 600 0
DWIDTH 11 0
BBX 11 7 0 11
BITMAP
000000133310
003333100030
06C023332030
7FC000013530
BFE9ACEFE500
BFFFFFEB3000
486431000000
ENDCHAR
STARTCHAR fourthtonechinese
ENCODING 715
SWIDTH 600 0
DWIDTH 11 0
BBX 11 7 0 11
BITMAP
002333100000
03B000133320
5FC023332030
BFE531000030
BFFFFFECA820
6DFFFFFFD300
000245781000
ENDCHAR
STARTCHAR verticallinelowmod
ENCODING 716
SWIDTH 456 0
DWIDTH 8 0
BBX 8 10 0 -5
BITMAP
00453333
06F30003
4FF30303
5FF30303
5FF30303
5FF30203
5FF40003
5FFFFFB1
4FFFFA00
03443000
ENDCHAR
STARTCHAR breve
ENCODING 728
SWIDTH 600 0
DWIDTH 11 0
BBX 11 7 0 12
BITMAP
003333033320
05A003890030
7FB040212130
DFE023332020
CFFB41013200
8FFFFFFE5000
07CEFEA30000
ENDCHAR
STARTCHAR dotaccent
ENCODING 729
SWIDTH 600 0
DWIDTH 11 0
BBX 7 7 2 11
BITMAP
00333320
08800030
AF802030
FF900040
FFFFFE40
EFFFC200
24441000
ENDCHAR
STARTCHAR ring
ENCODING 730
SWIDTH 600 0
DWIDTH 11 0
BBX 11 10 0 12
BITMAP
000033333100
002300000320
04B013332030
4FA035F82130
BFA036F90230
DFB030312130
DFD023332020
CFFB41013200
8FFFFFFE5000
07CEFEA30000
ENDCHAR
STARTCHAR ogonek
ENCODING 731
SWIDTH 600 0
DWIDTH 11 0
BBX 8 8 2 -6
BITMAP
00434310
06C03300
6FA03241
AF905103
DFD30013
EFFFFF80
9FFFF600
02342000
ENDCHAR
STARTCHAR tilde
ENCODING 732
SWIDTH 600 0
DWIDTH 11 0
BBX 11 6 0 12
BITMAP
001210011120
02A000000030
3EC013332030
BFD255310320
BFFFFFFFD300
9C9ACEEA1000
ENDCHAR
STARTCHAR hungarumlaut
ENCODING 733
SWIDTH 600 0
DWIDTH 11 0
BBX 12 9 -1 11
BITMAP
000133312333
001B00079003
02DB022F6203
08F7126F2303
0CF3109E0103
1FF201DC0030
4FFFFEFFFE30
7FFF6BFFD200
034201441000
ENDCHAR
STARTCHAR gravecmb
ENCODING 768
SWIDTH 100 0
DWIDTH 2 0
BBX 11 7 -5 11
BITMAP
000333210000
009500023330
1BF403333130
3FF942000030
3FFFFFFDBA60
1BEFFFFFF800
000135685000
ENDCHAR
STARTCHAR acutecmb
ENCODING 769
SWIDTH 100 0
DWIDTH 2 0
BBX 11 7 -5 11
BITMAP
000000023330
000433210030
01B403333130
1DF400002450
3FFB9BDFFB10
3FFFFFFD8000
187542000000
ENDCHAR
STARTCHAR circumflexcmb
ENCODING 770
SWIDTH 100 0
DWIDTH 2 0
BBX 11 8 -5 11
BITMAP
000002332000
000342001430
007502333030
08F401001130
3FF648CD9430
3FFFFFFFFE40
3FC846AED200
010000000000
ENDCHAR
STARTCHAR tildecmb
ENCODING 771
SWIDTH 100 0
DWIDTH 2 0
BBX 11 6 -5 12
BITMAP
000210001130
007500000030
09F502333130
3FF646420140
3FFFFFFFF900
2DAABDFD6000
ENDCHAR
STARTCHAR uni0304
ENCODING 772
SWIDTH 600 0
DWIDTH 11 0
BBX 11 7 0 11
BITMAP
002333333320
03B000000030
3EC023332030
BFD000000030
BFFFFFFFF900
AFFFFFFF8000
144444430000
ENDCHAR
STARTCHAR brevecmb
ENCODING 774
SWIDTH 100 0
DWIDTH 2 0
BBX 12 7 -5 12
BITMAP
000433114340
01C3005D2012
1DF330120311
5FF703333120
4FFE72002300
1EFFFFFFB100
03AEFEC70000
ENDCHAR
STARTCHAR dotaccentcmb
ENCODING 775
SWIDTH 100 0
DWIDTH 2 0
BBX 8 7 -3 11
BITMAP
00133331
03D00003
3EF00203
7FF10013
8FFFFF90
7FFFF700
04442000
ENDCHAR
STARTCHAR dieresiscmb
ENCODING 776
SWIDTH 100 0
DWIDTH 2 0
BBX 12 7 -5 11
BITMAP
002333233331
03C000580003
4EE020680203
9FE1007A0003
9FFFFFFFFFA0
8FFFCEFFF800
144402443000
ENDCHAR
STARTCHAR hookcmb
ENCODING 777
SWIDTH 100 0
DWIDTH 2 0
BBX 9 8 -3 12
BITMAP
0023333300
04E0333120
5FF8870320
8FFD312230
3AFD121320
0AFFACD400
0AFFFD2000
0486400000
ENDCHAR
STARTCHAR ringcmb
ENCODING 778
SWIDTH 100 0
DWIDTH 2 0
BBX 12 10 -5 12
BITMAP
000023333300
000410000140
00A403333021
0BF230CE1312
3FF230DF1302
5FF330220311
5FF603333120
4FFE72002300
1EFFFFFFB100
03BEFEC70000
ENDCHAR
STARTCHAR hungarumlautcmb
ENCODING 779
SWIDTH 100 0
DWIDTH 2 0
BBX 13 9 -5 11
BITMAP
00004332133310
000A2005B00120
00BE020E902300
05FA033F621300
09F7016F210300
0CF500BF101200
1FFFFEFFFF6000
3FFF98FFE50000
03430144200000
ENDCHAR
STARTCHAR caroncmb
ENCODING 780
SWIDTH 100 0
DWIDTH 2 0
BBX 11 7 -5 12
BITMAP
000430000230
01B503333030
1CF402001130
3FF802332030
3FFFD7217910
1DFFFFFF9000
004AEC720000
ENDCHAR
STARTCHAR horncmb
ENCODING 795
SWIDTH 100 0
DWIDTH 2 0
BBX 7 7 -3 9
BITMAP
00043330
00880030
0AD12130
4FD23040
AFD67700
AFFF8000
AEB50000
ENDCHAR
STARTCHAR dotbelowcmb
ENCODING 803
SWIDTH 100 0
DWIDTH 2 0
BBX 8 7 -3 -8
BITMAP
00133331
03D00003
3EF00203
7FF10013
8FFFFF90
7FFFF700
04442000
ENDCHAR
STARTCHAR dieresisbelowcmb
ENCODING 804
SWIDTH 100 0
DWIDTH 2 0
BBX 12 7 -5 -7
BITMAP
002333233331
03C000580003
4EE020680203
9FE1007A0003
9FFFFFFFFFA0
8FFFCEFFF800
144402443000
ENDCHAR
STARTCHAR commaaccent
ENCODING 806
SWIDTH 600 0
DWIDTH 11 0
BBX 7 9 2 -9
BITMAP
00333330
08713230
AF800330
FFFB7330
FFB00320
EFB13120
8FE99500
CFFE5000
47620000
ENDCHAR
STARTCHAR cedillacmb
ENCODING 807
SWIDTH 100 0
DWIDTH 2 0
BBX 8 8 -3 -5
BITMAP
00012100
002B0112
02E80303
09F22121
1EB00030
5FA44430
BFFFF500
DFFD3000
ENDCHAR
STARTCHAR ogonekcmb
ENCODING 808
SWIDTH 100 0
DWIDTH 2 0
BBX 9 8 -3 -6
BITMAP
0004344000
008A033000
08F8123400
0DF7141210
0FFC200310
1FFFFFF600
0BFFFE4000
0024410000
ENDCHAR
STARTCHAR brevebelowcmb
ENCODING 814
SWIDTH 100 0
DWIDTH 2 0
BBX 12 7 -5 -7
BITMAP
000433114340
01C3005D2012
1DF330120311
5FF703333120
4FFE72002300
1EFFFFFFB100
03AEFEC70000
ENDCHAR
STARTCHAR macronbelowcmb
ENCODING 817
SWIDTH 100 0
DWIDTH 2 0
BBX 11 7 -5 -7
BITMAP
000433333330
009500000030
0AF503333120
3FF600000030
3FFFFFFFFE30
2FFFFFFFD200
034444441000
ENDCHAR
STARTCHAR uni0394
ENCODING 916
SWIDTH 830 0
DWIDTH 15 0
BBX 15 17 0 -3
BITMAP
0000002222210000
0000341111132000
0005D00333003000
004FA03000303000
009F603050302100
00DF3121F3020300
01FE0304F6030300
05FA0307FA030300
09F6030BFD030210
0DF3030EFF112030
2FF1030999103030
5FF1030000003030
6FF1033333331030
7FF2000000000030
7FFFFFFFFFFFF900
6FFFFFFFFFFF6000
0222222222210000
ENDCHAR
STARTCHAR uni03A9
ENCODING 937
SWIDTH 877 0
DWIDTH 16 0
BBX 16 17 0 -3
BITMAP
0000002333320000
0000330000003300
0007101333320030
01A9012000022030
09F70302AA403030
0DF70307FF903030
0FF70305FF903030
0FF70303EF903030
0FF70303EF903030
0FF90303EF903030
0FE80302DE403042
0EB0004069041003
6FB0233068033203
CFC000008A000003
CFFFFFFFFFFFFFB1
BFFFFFADFFFFF800
0222220122222000
ENDCHAR
STARTCHAR uni03BC
ENCODING 956
SWIDTH 813 0
DWIDTH 15 0
BBX 15 16 0 -4
BITMAP
0004333101333300
01B300031A000210
1CF30003AD000210
5FF3030AFD030210
5FF3030BFD030210
5FF3030BFD030210
5FF3030BFD030210
5FF30309FA030210
5FF3060000030200
5FF3032333300100
5FF3030000000000
5FF3030000021000
5FF3000ADDD30000
5FFECCCEC8100000
5FFFFA0000000000
1777600000000000
ENDCHAR
STARTCHAR pi
ENCODING 960
SWIDTH 821 0
DWIDTH 15 0
BBX 15 14 0 -3
BITMAP
0003333333333300
00A3000000000110
1CF3043333340120
5FF3030000030120
5FF3030ADB030120
5FF3030BFD030120
5FF3030BFD030120
5FF3030BFD030120
5FF3030BFD030120
5FF3010BFD010120
5FF4000CFE100210
5FFFFF9AFFFFE500
4FFFF608FFFD3000
0222100022210000
ENDCHAR
STARTCHAR Ddotbelow
ENCODING 7692
SWIDTH 846 0
DWIDTH 15 0
BBX 15 21 0 -7
BITMAP
0026333333334100
03E5000000000310
1EF5033333330030
3FF5030000022030
3FF50307BA203030
3FF50309FF603030
3FF50308FF603030
3FF50305FF603030
3FF50304FF603030
3FF50304FF603030
3FF5030498112030
3FF5033333330020
3FF5000000000110
3FF5000000014200
3FFFDDDCBBDD3000
1EFFFFB000320000
00006FB030200000
0000CFC000300000
0000CFFFFF700000
0000BFFFE4000000
0000144410000000
ENDCHAR
STARTCHAR ddotbelow
ENCODING 7693
SWIDTH 846 0
DWIDTH 15 0
BBX 15 21 0 -7
BITMAP
0026333333334100
03E5000000000310
1EF5033333330030
3FF5030000022030
3FF50307BA203030
3FF50309FF603030
3FF50308FF603030
3FF50305FF603030
3FF50304FF603030
3FF50304FF603030
3FF5030498112030
3FF5033333330020
3FF5000000000110
3FF5000000014200
3FFFDDDCBBDD3000
1EFFFFB000320000
00006FB030200000
0000CFC000300000
0000CFFFFF700000
0000BFFFE4000000
0000144410000000
ENDCHAR
STARTCHAR Dlinebelow
ENCODING 7694
SWIDTH 846 0
DWIDTH 15 0
BBX 15 21 0 -7
BITMAP
0026333333334100
03E5000000000310
1EF5033333330030
3FF5030000022030
3FF50307BA203030
3FF50309FF603030
3FF50308FF603030
3FF50305FF603030
3FF50304FF603030
3FF50304FF603030
3FF5030498112030
3FF5033333330030
3FF5000000000210
3FF6000000015200
3FFFEEEEEEEE3000
1EFFE22222223000
001CE01333203000
008FE10000004000
009FFFFFFFFC2000
008FFFFFFFA10000
0013444443000000
ENDCHAR
STARTCHAR dlinebelow
ENCODING 7695
SWIDTH 846 0
DWIDTH 15 0
BBX 15 21 0 -7
BITMAP
0026333333334100
03E5000000000310
1EF5033333330030
3FF5030000022030
3FF50307BA203030
3FF50309FF603030
3FF50308FF603030
3FF50305FF603030
3FF50304FF603030
3FF50304FF603030
3FF5030498112030
3FF5033333330030
3FF5000000000210
3FF6000000015200
3FFFEEEEEEEE3000
1EFFE22222223000
001CE01333203000
008FE10000004000
009FFFFFFFFC2000
008FFFFFFFA10000
0013444443000000
ENDCHAR
STARTCHAR Gmacron
ENCODING 7712
SWIDTH 808 0
DWIDTH 15 0
BBX 15 20 0 -2
BITMAP
0000043333333000
0001B21333303000
001CF20000003000
005FF40000001000
005FFFDCCCCC9000
004F710000003000
0038013333303000
04E3030000003000
1EF20309FFFD2000
4FF2030CFFC10000
6FF2030546333300
6FF203035B000210
6FF20309FC020210
6FF20308DA030210
6FF2040000030210
6FF5013333340210
4FFC100000000210
1EFFD74333333500
07FFFFFFFFFFD200
005CEFFFFFFB1000
ENDCHAR
STARTCHAR gmacron
ENCODING 7713
SWIDTH 808 0
DWIDTH 15 0
BBX 15 20 0 -2
BITMAP
0000043333333000
0001B21333303000
001CF20000003000
005FF40000001000
005FFFDCCCCC9000
004F710000003000
0038013333303000
04E3030000003000
1EF20309FFFD2000
4FF2030CFFC10000
6FF2030546333300
6FF203035B000210
6FF20309FC020210
6FF20308DA030210
6FF2040000030210
6FF5013333340210
4FFC100000000210
1EFFD74333333500
07FFFFFFFFFFD200
005CEFFFFFFB1000
ENDCHAR
STARTCHAR Hdotbelow
ENCODING 7716
SWIDTH 859 0
DWIDTH 15 0
BBX 15 21 0 -7
BITMAP
0026333302633330
03E500034E600030
1EF50304FF603030
3FF50304FF603030
3FF5030399403030
3FF5030000003030
3FF5030000003030
3FF5043333334030
3FF5030000003030
3FF50309FF603030
3FF50309FF603030
3FF50305FF603030
3FF50004FF600030
3FF83335FF933340
3FFFFFA499AFF900
1EFFEAC0000F7000
00005FD030020000
0000AFE000220000
0000AFFFFF700000
00009FFFE5000000
0000144420000000
ENDCHAR
STARTCHAR hdotbelow
ENCODING 7717
SWIDTH 859 0
DWIDTH 15 0
BBX 15 21 0 -7
BITMAP
0026333302633330
03E500034E600030
1EF50304FF603030
3FF50304FF603030
3FF5030399403030
3FF5030000003030
3FF5030000003030
3FF5043333334030
3FF5030000003030
3FF50309FF603030
3FF50309FF603030
3FF50305FF603030
3FF50004FF600030
3FF83335FF933340
3FFFFFA499AFF900
1EFFEAC0000F7000
00005FD030020000
0000AFE000220000
0000AFFFFF700000
00009FFFE5000000
0000144420000000
ENDCHAR
STARTCHAR Hbrevebelow
ENCODING 7722
SWIDTH 859 0
DWIDTH 15 0
BBX 15 21 0 -7
BITMAP
0026333302633330
03E500034E600030
1EF50304FF603030
3FF50304FF603030
3FF5030399403030
3FF5030000003030
3FF5043333334030
3FF5030000003030
3FF5030244103030
3FF50309FF603030
3FF50309FF603030
3FF50304FF603030
3FF50004FF600030
3FF83335FF933330
3FFFFA85FFA9B800
1EFFF001ED003000
003EF13000033000
007FF61333303000
007FFF9544661000
003FFFFFFF900000
0004BEFEC6000000
ENDCHAR
STARTCHAR hbrevebelow
ENCODING 7723
SWIDTH 859 0
DWIDTH 15 0
BBX 15 21 0 -7
BITMAP
0026333302633330
03E500034E600030
1EF50304FF603030
3FF50304FF603030
3FF5030399403030
3FF5030000003030
3FF5043333334030
3FF5030000003030
3FF5030244103030
3FF50309FF603030
3FF50309FF603030
3FF50304FF603030
3FF50004FF600030
3FF83335FF933330
3FFFFA85FFA9B800
1EFFF001ED003000
003EF13000033000
007FF61333303000
007FFF9544661000
003FFFFFFF900000
0004BEFEC6000000
ENDCHAR
STARTCHAR Ldotbelow
ENCODING 7734
SWIDTH 795 0
DWIDTH 14 0
BBX 14 21 0 -7
BITMAP
00263333000000
03E50003000000
1EF50303000000
3FF50303000000
3FF50303000000
3FF50303000000
3FF50303023333
3FF503035C0003
3FF50307FD0203
3FF50308EC0303
3FF50300000303
3FF50333333403
3FF50000000003
3FF50000000002
3FFFDDDBBBDDA1
1EFFFF90005A10
00009F80203000
0000FF90004000
0000FFFFFE4000
0000EFFFD20000
00002444100000
ENDCHAR
STARTCHAR ldotbelow
ENCODING 7735
SWIDTH 795 0
DWIDTH 14 0
BBX 14 21 0 -7
BITMAP
00263333000000
03E50003000000
1EF50303000000
3FF50303000000
3FF50303000000
3FF50303000000
3FF50303023333
3FF503035C0003
3FF50307FD0203
3FF50308EC0303
3FF50300000303
3FF50333333403
3FF50000000003
3FF50000000002
3FFFDDDBBBDDA1
1EFFFF90005A10
00009F80203000
0000FF90004000
0000FFFFFE4000
0000EFFFD20000
00002444100000
ENDCHAR
STARTCHAR Ldotbelowmacron
ENCODING 7736
SWIDTH 795 0
DWIDTH 14 0
BBX 14 25 0 -7
BITMAP
00003333333310
00069023332030
008F9000000030
00EFA000000120
00EECCCFFFF500
01E5000AFE4000
1DF50204210000
3FF50303000000
3FF50303000000
3FF50303000000
3FF50303023333
3FF503035C0003
3FF50307FD0203
3FF50308EC0303
3FF50300000303
3FF50333333403
3FF50000000003
3FF50000000002
3FFFDDDBBBDDA1
1EFFFF90005A10
00009F80203000
0000FF90004000
0000FFFFFE4000
0000EFFFD20000
00002444100000
ENDCHAR
STARTCHAR ldotbelowmacron
ENCODING 7737
SWIDTH 795 0
DWIDTH 14 0
BBX 14 25 0 -7
BITMAP
00003333333310
00069023332030
008F9000000030
00EFA000000120
00EECCCFFFF500
01E5000AFE4000
1DF50204210000
3FF50303000000
3FF50303000000
3FF50303000000
3FF50303023333
3FF503035C0003
3FF50307FD0203
3FF50308EC0303
3FF50300000303
3FF50333333403
3FF50000000003
3FF50000000002
3FFFDDDBBBDDA1
1EFFFF90005A10
00009F80203000
0000FF90004000
0000FFFFFE4000
0000EFFFD20000
00002444100000
ENDCHAR
STARTCHAR Llinebelow
ENCODING 7738
SWIDTH 795 0
DWIDTH 14 0
BBX 14 20 0 -6
BITMAP
00263333000000
03E50003000000
1EF50303000000
3FF50303000000
3FF50303000000
3FF50303000000
3FF50303023333
3FF503035C0003
3FF50307FD0203
3FF50308EC0303
3FF50300000303
3FF50333333403
3FF50000000003
3FFEDBBBBBBCD7
3FFF9000000060
1EFF8023331030
009F8000000030
00EFC444444310
00EFFFFFFFD200
00CFFFFFFD2000
ENDCHAR
STARTCHAR llinebelow
ENCODING 7739
SWIDTH 795 0
DWIDTH 14 0
BBX 14 20 0 -6
BITMAP
00263333000000
03E50003000000
1EF50303000000
3FF50303000000
3FF50303000000
3FF50303000000
3FF50303023333
3FF503035C0003
3FF50307FD0203
3FF50308EC0303
3FF50300000303
3FF50333333403
3FF50000000003
3FFEDBBBBBBCD7
3FFF9000000060
1EFF8023331030
009F8000000030
00EFC444444310
00EFFFFFFFD200
00CFFFFFFD2000
ENDCHAR
STARTCHAR Mdotbelow
ENCODING 7746
SWIDTH 949 0
DWIDTH 17 0
BBX 17 21 0 -7
BITMAP
002633330004333320
03E500012065000030
1EF5033026D0240030
3FF503220D60321030
3FF503030303021030
3FF503003021021030
3FF503021321021030
3FF503080008121030
3FF5030B702E121030
3FF5030BFEFF121030
3FF5030BEAFF121030
3FF5030527FF121030
3FF5000307FF100030
3FF8334307FF533420
3FFFFF63369CFFE400
1EFFE4690004FD3000
000008F90303000000
00000DFB0004000000
00000DFFFFE5000000
00000CFFFD30000000
000002444100000000
ENDCHAR
STARTCHAR mdotbelow
ENCODING 7747
SWIDTH 949 0
DWIDTH 17 0
BBX 17 21 0 -7
BITMAP
002633330004333320
03E500012065000030
1EF5033026D0240030
3FF503220D60321030
3FF503030303021030
3FF503003021021030
3FF503021321021030
3FF503080008121030
3FF5030B702E121030
3FF5030BFEFF121030
3FF5030BEAFF121030
3FF5030527FF121030
3FF5000307FF100030
3FF8334307FF533420
3FFFFF63369CFFE400
1EFFE4690004FD3000
000008F90303000000
00000DFB0004000000
00000DFFFFE5000000
00000CFFFD30000000
000002444100000000
ENDCHAR
STARTCHAR Ndotaccent
ENCODING 7748
SWIDTH 853 0
DWIDTH 15 0
BBX 15 21 0 -2
BITMAP
0000002333300000
000003B000120000
00004FC030120000
0000BFC000120000
0000BFD100210000
0026337FFF933330
03E50007FF600030
1EF50510AF603030
3FF503300C603030
3FF5030402403030
3FF5030040003030
3FF5030013003030
3FF5030601203030
3FF5030A80223030
3FF5030AF5034030
3FF5030AFE203030
3FF5030AFF603030
3FF50009FF600030
3FF83345FF933330
3FFFFF72FFFFF700
1EFFE501EFFE5000
ENDCHAR
STARTCHAR ndotaccent
ENCODING 7749
SWIDTH 853 0
DWIDTH 15 0
BBX 15 21 0 -2
BITMAP
0000002333300000
000003B000120000
00004FC030120000
0000BFC000120000
0000BFD100210000
0026337FFF933330
03E50007FF600030
1EF50510AF603030
3FF503300C603030
3FF5030402403030
3FF5030040003030
3FF5030013003030
3FF5030601203030
3FF5030A80223030
3FF5030AF5034030
3FF5030AFE203030
3FF5030AFF603030
3FF50009FF600030
3FF83345FF933330
3FFFFF72FFFFF700
1EFFE501EFFE5000
ENDCHAR
STARTCHAR Ndotbelow
ENCODING 7750
SWIDTH 853 0
DWIDTH 15 0
BBX 15 21 0 -7
BITMAP
0026333101633330
03E500032D600030
1EF505109F603030
3FF503300C603030
3FF5030402403030
3FF5030040003030
3FF5030013003030
3FF5030601203030
3FF5030A80223030
3FF5030AF5034030
3FF5030AFE203030
3FF5030AFF603030
3FF50009FF600030
3FF83345FF933330
3FFFFF9499BFF700
1EFFE9B0001E5000
00006FC030120000
0000BFD000310000
0000BFFFFF700000
0000AFFFE4000000
0000144410000000
ENDCHAR
STARTCHAR ndotbelow
ENCODING 7751
SWIDTH 853 0
DWIDTH 15 0
BBX 15 21 0 -7
BITMAP
0026333101633330
03E500032D600030
1EF505109F603030
3FF503300C603030
3FF5030402403030
3FF5030040003030
3FF5030013003030
3FF5030601203030
3FF5030A80223030
3FF5030AF5034030
3FF5030AFE203030
3FF5030AFF603030
3FF50009FF600030
3FF83345FF933330
3FFFFF9499BFF700
1EFFE9B0001E5000
00006FC030120000
0000BFD000310000
0000BFFFFF700000
0000AFFFE4000000
0000144410000000
ENDCHAR
STARTCHAR Nlinebelow
ENCODING 7752
SWIDTH 853 0
DWIDTH 15 0
BBX 15 20 0 -6
BITMAP
0026333102633330
03E501033D600030
1EF505209F603030
3FF503310B603030
3FF5030301303030
3FF5030040003030
3FF5030004003030
3FF5030811303030
3FF5030AA0123030
3FF5030AF7024030
3FF5030AFF303030
3FF5030AFF603030
3FF50008FF600030
3FF82224FF922230
3FFFFB839999D700
1EFFF11333303000
002EF10000003000
006FF64444444000
006FFFFFFFFA0000
004FFFFFFF800000
ENDCHAR
STARTCHAR nlinebelow
ENCODING 7753
SWIDTH 853 0
DWIDTH 15 0
BBX 15 20 0 -6
BITMAP
0026333102633330
03E501033D600030
1EF505209F603030
3FF503310B603030
3FF5030301303030
3FF5030040003030
3FF5030004003030
3FF5030811303030
3FF5030AA0123030
3FF5030AF7024030
3FF5030AFF303030
3FF5030AFF603030
3FF50008FF600030
3FF82224FF922230
3FFFFB839999D700
1EFFF11333303000
002EF10000003000
006FF64444444000
006FFFFFFFFA0000
004FFFFFFF800000
ENDCHAR
STARTCHAR Rdotbelow
ENCODING 7770
SWIDTH 843 0
DWIDTH 15 0
BBX 15 21 0 -7
BITMAP
0026333333333000
03E5000000001200
1EF5033333300300
3FF5030461120300
3FF50309F7030300
3FF50309F6030300
3FF5030000132300
3FF5042223520030
3FF5030000003030
3FF5030243103030
3FF50309FF803030
3FF50309FF903030
3FF50103EF901030
3FF83334EFB33340
3FFFFFB489AFFB10
1EFFE9D0000D9000
00004EF012030000
00008FF100130000
00008FFFFF900000
00007FFFF6000000
0000144420000000
ENDCHAR
STARTCHAR rdotbelow
ENCODING 7771
SWIDTH 843 0
DWIDTH 15 0
BBX 15 21 0 -7
BITMAP
0026333333333000
03E5000000001200
1EF5033333300300
3FF5030461120300
3FF50309F7030300
3FF50309F6030300
3FF5030000132300
3FF5042223520030
3FF5030000003030
3FF5030243103030
3FF50309FF803030
3FF50309FF903030
3FF50103EF901030
3FF83334EFB33340
3FFFFFB489AFFB10
1EFFE9D0000D9000
00004EF012030000
00008FF100130000
00008FFFFF900000
00007FFFF6000000
0000144420000000
ENDCHAR
STARTCHAR Rdotbelowmacron
ENCODING 7772
SWIDTH 843 0
DWIDTH 15 0
BBX 15 25 0 -7
BITMAP
0000433333330000
000A403333030000
00BF400000030000
04FF500000030000
04FECCCCCCC50000
03F5000000003100
0AF5033333300300
3FF5030461120300
3FF50309F7030300
3FF50309F6030300
3FF5030000132300
3FF5042223520030
3FF5030000003030
3FF5030243103030
3FF50309FF803030
3FF50309FF903030
3FF50103EF901030
3FF83334EFB33340
3FFFFFB489AFFB10
1EFFE9D0000D9000
00004EF012030000
00008FF100130000
00008FFFFF900000
00007FFFF6000000
0000144420000000
ENDCHAR
STARTCHAR rdotbelowmacron
ENCODING 7773
SWIDTH 843 0
DWIDTH 15 0
BBX 15 25 0 -7
BITMAP
0000433333330000
000A403333030000
00BF400000030000
04FF500000030000
04FECCCCCCC50000
03F5000000003100
0AF5033333300300
3FF5030461120300
3FF50309F7030300
3FF50309F6030300
3FF5030000132300
3FF5042223520030
3FF5030000003030
3FF5030243103030
3FF50309FF803030
3FF50309FF903030
3FF50103EF901030
3FF83334EFB33340
3FFFFFB489AFFB10
1EFFE9D0000D9000
00004EF012030000
00008FF100130000
00008FFFFF900000
00007FFFF6000000
0000144420000000
ENDCHAR
STARTCHAR Rlinebelow
ENCODING 7774
SWIDTH 843 0
DWIDTH 15 0
BBX 15 20 0 -6
BITMAP
0026333333333000
03E5033333201200
1EF5030000220300
3FF5030461030300
3FF50309F7030300
3FF50309F6030300
3FF5030000122300
3FF5042223520030
3FF5030000003030
3FF50306AA403030
3FF50309FF903030
3FF50308FF903030
3FF50003EF900030
3FF82223EFB22230
3FFFFA838999DA10
1EFFF01333304000
003EF00000003000
008FF54444443000
008FFFFFFFF80000
005FFFFFFF700000
ENDCHAR
STARTCHAR rlinebelow
ENCODING 7775
SWIDTH 843 0
DWIDTH 15 0
BBX 15 20 0 -6
BITMAP
0026333333333000
03E5033333201200
1EF5030000220300
3FF5030461030300
3FF50309F7030300
3FF50309F6030300
3FF5030000122300
3FF5042223520030
3FF5030000003030
3FF50306AA403030
3FF50309FF903030
3FF50308FF903030
3FF50003EF900030
3FF82223EFB22230
3FFFFA838999DA10
1EFFF01333304000
003EF00000003000
008FF54444443000
008FFFFFFFF80000
005FFFFFFF700000
ENDCHAR
STARTCHAR Sdotaccent
ENCODING 7776
SWIDTH 750 0
DWIDTH 14 0
BBX 14 21 0 -2
BITMAP
00000133331000
00002C00003000
0003EE01203000
0008FE00003000
0008FF10010000
0008C643333330
00170000000030
02D30233332030
1DF00300000030
6FF0120CFFFA00
8FF00201468300
8FF20222100130
8FF80000222021
6FFFA520002103
1EFFFFFFB01103
02C76666403003
07F01333332022
6FF00000000040
8FF53333346710
8FFFFFFFFF8000
5FFFFFFEB40000
ENDCHAR
STARTCHAR sdotaccent
ENCODING 7777
SWIDTH 750 0
DWIDTH 14 0
BBX 14 21 0 -2
BITMAP
00000133331000
00002C00003000
0003EE01203000
0008FE00003000
0008FF10010000
0008C643333330
00170000000030
02D30233332030
1DF00300000030
6FF0120CFFFA00
8FF00201468300
8FF20222100130
8FF80000222021
6FFFA520002103
1EFFFFFFB01103
02C76666403003
07F01333332022
6FF00000000040
8FF53333346710
8FFFFFFFFF8000
5FFFFFFEB40000
ENDCHAR
STARTCHAR Sdotbelow
ENCODING 7778
SWIDTH 750 0
DWIDTH 14 0
BBX 14 21 0 -7
BITMAP
00003333333330
00160000000030
02D30233332030
0CF00300000030
6FF0120CFFFA00
8FF00202579400
8FF20222100150
8FF80000222021
6FFFA520002103
1EFFFFFFB01103
02C76666403003
07F01333332011
6FF00000000000
8FF10000001000
8FFEDDCBBC8000
5FFFFF10003000
0003EF00203000
0007FF10003000
0007FFFFF90000
0007FFFF600000
00003442000000
ENDCHAR
STARTCHAR sdotbelow
ENCODING 7779
SWIDTH 750 0
DWIDTH 14 0
BBX 14 21 0 -7
BITMAP
00003333333330
00160000000030
02D30233332030
0CF00300000030
6FF0120CFFFA00
8FF00202579400
8FF20222100150
8FF80000222021
6FFFA520002103
1EFFFFFFB01103
02C76666403003
07F01333332011
6FF00000000000
8FF10000001000
8FFEDDCBBC8000
5FFFFF10003000
0003EF00203000
0007FF10003000
0007FFFFF90000
0007FFFF600000
00003442000000
ENDCHAR
STARTCHAR Tdotbelow
ENCODING 7788
SWIDTH 756 0
DWIDTH 14 0
BBX 14 21 0 -7
BITMAP
00633333333333
1B900000000003
BF902334333203
EFA00002100003
EFFFFD0210EFA0
DFFFFD0210E900
244BFD02105000
000AFD02103000
000AFD02103000
000AFD02103000
000AFD02103000
000AFD02103000
000AFD01003000
000AFE00003000
000AFFCBB90000
0007FE00002000
0004EE02103000
0009FE10013000
0009FFFFF90000
0008FFFF600000
00014442000000
ENDCHAR
STARTCHAR tdotbelow
ENCODING 7789
SWIDTH 756 0
DWIDTH 14 0
BBX 14 21 0 -7
BITMAP
00633333333333
1B900000000003
BF902334333203
EFA00002100003
EFFFFD0210EFA0
DFFFFD0210E900
244BFD02105000
000AFD02103000
000AFD02103000
000AFD02103000
000AFD02103000
000AFD02103000
000AFD01003000
000AFE00003000
000AFFCBB90000
0007FE00002000
0004EE02103000
0009FE10013000
0009FFFFF90000
0008FFFF600000
00014442000000
ENDCHAR
STARTCHAR Tlinebelow
ENCODING 7790
SWIDTH 756 0
DWIDTH 14 0
BBX 14 20 0 -6
BITMAP
01633333333333
1C902334333203
CF900002100003
EFC44302103443
EFFFFD0210EF70
BFFFFD0210D500
000AFD02103000
000AFD02103000
000AFD02103000
000AFD02103000
000AFD02103000
000AFD02103000
000AFD00003000
000AFE32232000
000AB999963300
001D3033330300
01DF3000000300
04FF8444444500
04FFFFFFFFB100
02EFFFFFFA0000
ENDCHAR
STARTCHAR tlinebelow
ENCODING 7791
SWIDTH 756 0
DWIDTH 14 0
BBX 14 20 0 -6
BITMAP
01633333333333
1C902334333203
CF900002100003
EFC44302103443
EFFFFD0210EF70
BFFFFD0210D500
000AFD02103000
000AFD02103000
000AFD02103000
000AFD02103000
000AFD02103000
000AFD02103000
000AFD00003000
000AFE32232000
000AB999963300
001D3033330300
01DF3000000300
04FF8444444500
04FFFFFFFFB100
02EFFFFFFA0000
ENDCHAR
STARTCHAR Wgrave
ENCODING 7808
SWIDTH 931 0
DWIDTH 17 0
BBX 17 21 0 -2
BITMAP
000002531000000000
00004DBDFECA810000
0006F9023467840000
000EF9000000030000
000EFC431000100000
0036334EFECA233410
05E201068AFF000120
3FF2030307FF021120
5FF2030308FF021120
5FF2030336CF021120
5FF20308201E021120
5FF203080008021120
5FF203021322021120
5FF203003030030120
5FF403031403030210
5FF703030F12130300
4FFC01304F50320300
1FFF20008F90001100
0BFFA334DFE4334000
05FFFFF5EFFFFA0000
01CFFE408FFF800000
ENDCHAR
STARTCHAR wgrave
ENCODING 7809
SWIDTH 931 0
DWIDTH 17 0
BBX 17 21 0 -2
BITMAP
000002531000000000
00004DBDFECA810000
0006F9023467840000
000EF9000000030000
000EFC431000100000
0036334EFECA233410
05E201068AFF000120
3FF2030307FF021120
5FF2030308FF021120
5FF2030336CF021120
5FF20308201E021120
5FF203080008021120
5FF203021322021120
5FF203003030030120
5FF403031403030210
5FF703030F12130300
4FFC01304F50320300
1FFF20008F90001100
0BFFA334DFE4334000
05FFFFF5EFFFFA0000
01CFFE408FFF800000
ENDCHAR
STARTCHAR Wacute
ENCODING 7810
SWIDTH 931 0
DWIDTH 17 0
BBX 17 21 0 -2
BITMAP
000000000013420000
0000018ACEFDB80000
00002D877532030000
0003EE000000010000
0008FE000012230000
00353329CEEC433410
05E20105318F000120
3FF2030307FF021120
5FF2030308FF021120
5FF2030336CF021120
5FF20308201E021120
5FF203080008021120
5FF203021322021120
5FF203003030030120
5FF403031403030210
5FF703030F12130300
4FFC01304F50320300
1FFF20008F90001100
0BFFA334DFE4334000
05FFFFF5EFFFFA0000
01CFFE408FFF800000
ENDCHAR
STARTCHAR wacute
ENCODING 7811
SWIDTH 931 0
DWIDTH 17 0
BBX 17 21 0 -2
BITMAP
000000000013420000
0000018ACEFDB80000
00002D877532030000
0003EE000000010000
0008FE000012230000
00353329CEEC433410
05E20105318F000120
3FF2030307FF021120
5FF2030308FF021120
5FF2030336CF021120
5FF20308201E021120
5FF203080008021120
5FF203021322021120
5FF203003030030120
5FF403031403030210
5FF703030F12130300
4FFC01304F50320300
1FFF20008F90001100
0BFFA334DFE4334000
05FFFFF5EFFFFA0000
01CFFE408FFF800000
ENDCHAR
STARTCHAR Wdieresis
ENCODING 7812
SWIDTH 931 0
DWIDTH 17 0
BBX 17 21 0 -2
BITMAP
000003333133320000
000075000D00030000
0007F5020F02030000
002FF5000F00030000
003FF7001F10010000
003DCCCFFFFFDCCB10
01A30009EFFF000120
1CF2020304FF021120
5FF2030308FF021120
5FF2030336CF021120
5FF20308201E021120
5FF203080008021120
5FF203021322021120
5FF203003030030120
5FF303031403030210
5FF703030F12130200
4FFC01304F50320200
1FFF20008F90001100
0BFFA334DFE4334000
06FFFFF5EFFFFA0000
01CFFE408FFF800000
ENDCHAR
STARTCHAR wdieresis
ENCODING 7813
SWIDTH 931 0
DWIDTH 17 0
BBX 17 21 0 -2
BITMAP
000003333133320000
000075000D00030000
0007F5020F02030000
002FF5000F00030000
003FF7001F10010000
003DCCCFFFFFDCCB10
01A30009EFFF000120
1CF2020304FF021120
5FF2030308FF021120
5FF2030336CF021120
5FF20308201E021120
5FF203080008021120
5FF203021322021120
5FF203003030030120
5FF303031403030210
5FF703030F12130200
4FFC01304F50320200
1FFF20008F90001100
0BFFA334DFE4334000
06FFFFF5EFFFFA0000
01CFFE408FFF800000
ENDCHAR
STARTCHAR Ydotaccent
ENCODING 7822
SWIDTH 805 0
DWIDTH 14 0
BBX 15 21 0 -2
BITMAP
0000004333200000
0000096000300000
0000AF5030300000
0002FF5000300000
0002FF7000200000
0063335FFF433410
08D0001FFF000120
7FD0201AFF010120
9FD0301AFF021120
9FD0200AFD021120
9FE00306F5030210
9FF6021050210400
8FFE203001202100
3FFFC00342012000
08FFF90030030000
00CFFF3030300000
002EFF5030300000
0006FF5000300000
0003FF9333300000
0003FFFFF9000000
0001EFFF70000000
ENDCHAR
STARTCHAR ydotaccent
ENCODING 7823
SWIDTH 805 0
DWIDTH 14 0
BBX 15 21 0 -2
BITMAP
0000004333200000
0000096000300000
0000AF5030300000
0002FF5000300000
0002FF7000200000
0063335FFF433410
08D0001FFF000120
7FD0201AFF010120
9FD0301AFF021120
9FD0200AFD021120
9FE00306F5030210
9FF6021050210400
8FFE203001202100
3FFFC00342012000
08FFF90030030000
00CFFF3030300000
002EFF5030300000
0006FF5000300000
0003FF9333300000
0003FFFFF9000000
0001EFFF70000000
ENDCHAR
STARTCHAR Zdotbelow
ENCODING 7826
SWIDTH 760 0
DWIDTH 14 0
BBX 14 21 0 -7
BITMAP
00353333333340
04E30000000030
2EF30333333030
4FF50000003030
4FFFFFF5021030
3FFFFF80120120
03447C00300300
0001C203003000
000B4030021000
00970210120000
06E01200433331
3FD00333333103
9FD00000000003
9FE00000000002
9FFEDDCBBCDD50
7FFFFF2000A400
0002DF20303000
0006FF30003000
0006FFFFFB1000
0005FFFF800000
00003443000000
ENDCHAR
STARTCHAR zdotbelow
ENCODING 7827
SWIDTH 760 0
DWIDTH 14 0
BBX 14 21 0 -7
BITMAP
00353333333340
04E30000000030
2EF30333333030
4FF50000003030
4FFFFFF5021030
3FFFFF80120120
03447C00300300
0001C203003000
000B4030021000
00970210120000
06E01200433331
3FD00333333103
9FD00000000003
9FE00000000002
9FFEDDCBBCDD50
7FFFFF2000A400
0002DF20303000
0006FF30003000
0006FFFFFB1000
0005FFFF800000
00003443000000
ENDCHAR
STARTCHAR tdieresis
ENCODING 7831
SWIDTH 756 0
DWIDTH 14 0
BBX 14 21 0 -2
BITMAP
00023332333310
003B0006700030
04EC0208702030
0AFC0008700020
0AFD1009900100
0AB33333333333
1D900000000003
CF902334333203
EFA00002100003
EFFFFD0210EFA0
DFFFFD0210E900
244BFD02105000
000AFD02103000
000AFD02103000
000AFD02103000
000AFD02103000
000AFD02103000
000AFD00003000
000AFE43342000
000AFFFFE40000
0007FFFD200000
ENDCHAR
STARTCHAR Germandbls
ENCODING 7838
SWIDTH 859 0
DWIDTH 15 0
BBX 16 16 0 -2
BITMAP
0026333333344000
03E5000000001300
1EF5033333300300
3FF5030010030300
3FF50309F2210200
3FF50309E0301310
3FF50309B0332030
3FF5030980002102
3FF50309ECB00203
3FF50309FFE00203
3FF5030990002103
3FF5020970332012
3FF5000970000030
3FF8333CB3335610
3FFFFFFFFFFF9000
1EFFE6DFFEC60000
ENDCHAR
STARTCHAR Adotbelow
ENCODING 7840
SWIDTH 830 0
DWIDTH 15 0
BBX 15 21 0 -7
BITMAP
0000043333341000
0000A10000003000
0009B01333103000
004F502020201200
00AE0011F4110300
01F90106F8010300
06F5010AFD010120
0CF2020000002030
2FF1143333333030
5FF1120000003030
7FF1120444103030
7FF1120FFF303030
7FF1010FFF301030
7FF53357FF733430
7FFFFE8599CFF500
5FFFC980005E4000
00009F8030300000
0000EFA000400000
0000EFFFFE400000
0000DFFFD2000000
0000244410000000
ENDCHAR
STARTCHAR adotbelow
ENCODING 7841
SWIDTH 830 0
DWIDTH 15 0
BBX 15 21 0 -7
BITMAP
0000043333341000
0000A10000003000
0009B01333103000
004F502020201200
00AE0011F4110300
01F90106F8010300
06F5010AFD010120
0CF2020000002030
2FF1143333333030
5FF1120000003030
7FF1120444103030
7FF1120FFF303030
7FF1010FFF301030
7FF53357FF733430
7FFFFE8599CFF500
5FFFC980005E4000
00009F8030300000
0000EFA000400000
0000EFFFFE400000
0000DFFFD2000000
0000244410000000
ENDCHAR
STARTCHAR Ahookabove
ENCODING 7842
SWIDTH 830 0
DWIDTH 15 0
BBX 15 22 0 -2
BITMAP
0000014333300000
00002D2333120000
0003EF8660320000
0006FFE530330000
0004DFF033140000
00006FF9AC800000
0000993333341000
0000A10000003000
0009B01333103000
004F502020201200
00AE0011F4110300
01F90106F8010300
06F5010AFD010120
0CF2020000002030
2FF1143333333030
5FF1120000003030
7FF1120444103030
7FF1120FFF303030
7FF1010FFF301030
7FF53357FF733430
7FFFFE55FFFFF500
5FFFC203EFFE4000
ENDCHAR
STARTCHAR ahookabove
ENCODING 7843
SWIDTH 830 0
DWIDTH 15 0
BBX 15 22 0 -2
BITMAP
0000014333300000
00002D2333120000
0003EF8660320000
0006FFE530330000
0004DFF033140000
00006FF9AC800000
0000993333341000
0000A10000003000
0009B01333103000
004F502020201200
00AE0011F4110300
01F90106F8010300
06F5010AFD010120
0CF2020000002030
2FF1143333333030
5FF1120000003030
7FF1120444103030
7FF1120FFF303030
7FF1010FFF301030
7FF53357FF733430
7FFFFE55FFFFF500
5FFFC203EFFE4000
ENDCHAR
STARTCHAR Acircumflexacute
ENCODING 7844
SWIDTH 830 0
DWIDTH 15 0
BBX 15 25 0 -2
BITMAP
0000000000269100
000000002CD96400
00000003D7120300
0000001EF6001000
0000002D82025000
0000022001231000
0001A01333103000
002CD01000103000
009FE37BEC843000
00AFFD88888A1000
009FF30000003000
002BC01333103000
004F602020202100
00AF1011F4110300
01FA0106F8010300
06F6010AFD010120
0CF2020000002030
2FF1143333333030
5FF1120000003030
7FF1120444103030
7FF1120FFF303030
7FF1010FFF301030
7FF53357FF733430
7FFFFE55FFFFF600
5FFFC203EFFE4000
ENDCHAR
STARTCHAR acircumflexacute
ENCODING 7845
SWIDTH 830 0
DWIDTH 15 0
BBX 15 25 0 -2
BITMAP
0000000000269100
000000002CD96400
00000003D7120300
0000001EF6001000
0000002D82025000
0000022001231000
0001A01333103000
002CD01000103000
009FE37BEC843000
00AFFD88888A1000
009FF30000003000
002BC01333103000
004F602020202100
00AF1011F4110300
01FA0106F8010300
06F6010AFD010120
0CF2020000002030
2FF1143333333030
5FF1120000003030
7FF1120444103030
7FF1120FFF303030
7FF1010FFF301030
7FF53357FF733430
7FFFFE55FFFFF600
5FFFC203EFFE4000
ENDCHAR
STARTCHAR Acircumflexgrave
ENCODING 7846
SWIDTH 830 0
DWIDTH 15 0
BBX 15 25 0 -2
BITMAP
0000000002000000
000000008DEA5000
0000001AF1369000
0000007FF0002000
0000007D82001000
0000022000023000
0001A01333102000
001CD01000103000
009FE37BEC843000
00AFFD88888A1000
009FF30000003000
002BC01333103000
004F602020202100
00AF1011F4110300
01FA0106F8010300
06F6010AFD010120
0CF2020000002030
2FF1143333333030
5FF1120000003030
7FF1120444103030
7FF1120FFF303030
7FF1010FFF301030
7FF53357FF733430
7FFFFE55FFFFF600
5FFFC203EFFE4000
ENDCHAR
STARTCHAR acircumflexgrave
ENCODING 7847
SWIDTH 830 0
DWIDTH 15 0
BBX 15 25 0 -2
BITMAP
0000000002000000
000000008DEA5000
0000001AF1369000
0000007FF0002000
0000007D82001000
0000022000023000
0001A01333102000
001CD01000103000
009FE37BEC843000
00AFFD88888A1000
009FF30000003000
002BC01333103000
004F602020202100
00AF1011F4110300
01FA0106F8010300
06F6010AFD010120
0CF2020000002030
2FF1143333333030
5FF1120000003030
7FF1120444103030
7FF1120FFF303030
7FF1010FFF301030
7FF53357FF733430
7FFFFE55FFFFF600
5FFFC203EFFE4000
ENDCHAR
STARTCHAR Acircumflexhookabove
ENCODING 7848
SWIDTH 830 0
DWIDTH 15 0
BBX 15 26 0 -2
BITMAP
0000000004333300
00000001B5233230
0000001CF9662320
0000002FFF741330
0000002FFF333150
00000003BEA9BC20
00000331015BC200
0000901333103000
001BD01000103000
009FE37BEC843000
00AFFD88888A1000
009FF30000003000
002BC01333103000
004F602020202100
00AF1011F4110300
01FA0106F8010300
06F6010AFD010120
0CF2020000002030
2FF1143333333030
5FF1120000003030
7FF1120444103030
7FF1120FFF303030
7FF1010FFF301030
7FF53357FF733430
7FFFFE55FFFFF600
5FFFC203EFFE4000
ENDCHAR
STARTCHAR acircumflexhookabove
ENCODING 7849
SWIDTH 830 0
DWIDTH 15 0
BBX 15 26 0 -2
BITMAP
0000000004333300
00000001B5233230
0000001CF9662320
0000002FFF741330
0000002FFF333150
00000003BEA9BC20
00000331015BC200
0000901333103000
001BD01000103000
009FE37BEC843000
00AFFD88888A1000
009FF30000003000
002BC01333103000
004F602020202100
00AF1011F4110300
01FA0106F8010300
06F6010AFD010120
0CF2020000002030
2FF1143333333030
5FF1120000003030
7FF1120444103030
7FF1120FFF303030
7FF1010FFF301030
7FF53357FF733430
7FFFFE55FFFFF600
5FFFC203EFFE4000
ENDCHAR
STARTCHAR Acircumflextilde
ENCODING 7850
SWIDTH 830 0
DWIDTH 15 0
BBX 15 25 0 -2
BITMAP
0000033333343000
0000800000003000
000AD02333203000
008FD01100003000
00AFFDFFCBB80000
00AFFD7201531000
0046A01333103000
001BD01000103000
008FE37BEC843000
00AFFD88888A1000
009FF30000003000
002BC01333103000
004F602020202100
00AF1011F4110300
01FA0106F8010300
06F6010AFD010120
0CF2020000002030
2FF1143333333030
5FF1120000003030
7FF1120444103030
7FF1120FFF303030
7FF1010FFF301030
7FF53357FF733430
7FFFFE55FFFFF600
5FFFC203EFFE4000
ENDCHAR
STARTCHAR acircumflextilde
ENCODING 7851
SWIDTH 830 0
DWIDTH 15 0
BBX 15 25 0 -2
BITMAP
0000033333343000
0000800000003000
000AD02333203000
008FD01100003000
00AFFDFFCBB80000
00AFFD7201531000
0046A01333103000
001BD01000103000
008FE37BEC843000
00AFFD88888A1000
009FF30000003000
002BC01333103000
004F602020202100
00AF1011F4110300
01FA0106F8010300
06F6010AFD010120
0CF2020000002030
2FF1143333333030
5FF1120000003030
7FF1120444103030
7FF1120FFF303030
7FF1010FFF301030
7FF53357FF733430
7FFFFE55FFFFF600
5FFFC203EFFE4000
ENDCHAR
STARTCHAR Acircumflexdotbelow
ENCODING 7852
SWIDTH 830 0
DWIDTH 15 0
BBX 15 26 0 -7
BITMAP
0000000333100000
0000033000231000
0001A01333103000
001CD01000103000
009FE37BEC843000
00AFFD88888A1000
009FF30000003000
002BC01333103000
004F602020202100
00AF1011F4110300
01FA0106F8010300
06F6010AFD010120
0CF2020000002030
2FF1143333333030
5FF1120000003030
7FF1120444103030
7FF1120FFF303030
7FF1010FFF301030
7FF53357FF733430
7FFFFE8599CFF600
5FFFC980005E4000
00009F8030300000
0000EFA000400000
0000EFFFFE400000
0000DFFFD2000000
0000244410000000
ENDCHAR
STARTCHAR acircumflexdotbelow
ENCODING 7853
SWIDTH 830 0
DWIDTH 15 0
BBX 15 26 0 -7
BITMAP
0000000333100000
0000033000231000
0001A01333103000
001CD01000103000
009FE37BEC843000
00AFFD88888A1000
009FF30000003000
002BC01333103000
004F602020202100
00AF1011F4110300
01FA0106F8010300
06F6010AFD010120
0CF2020000002030
2FF1143333333030
5FF1120000003030
7FF1120444103030
7FF1120FFF303030
7FF1010FFF301030
7FF53357FF733430
7FFFFE8599CFF600
5FFFC980005E4000
00009F8030300000
0000EFA000400000
0000EFFFFE400000
0000DFFFD2000000
0000244410000000
ENDCHAR
STARTCHAR Abreveacute
ENCODING 7854
SWIDTH 830 0
DWIDTH 15 0
BBX 15 25 0 -2
BITMAP
0000000025940000
00000009EA760000
000001BC13130000
00000BFB00010000
0000289902112000
0004A005EA003000
005FC03021222000
00BFE11333301000
00BFFC4101310000
008FFEAAAAAA1000
001BF30000005000
0008D01333105000
004F702020203200
00AF1011F4110500
01FB0106F8010500
06F6010AFD010220
0CF2020000002030
2FF1143333333030
5FF1120000003030
7FF1120444103030
7FF1120FFF303030
7FF1010FFF301030
7FF53357FF733430
7FFFFE55FFFFF500
5FFFC203EFFE4000
ENDCHAR
STARTCHAR abreveacute
ENCODING 7855
SWIDTH 830 0
DWIDTH 15 0
BBX 15 25 0 -2
BITMAP
0000000025940000
00000009EA760000
000001BC13130000
00000BFB00010000
0000289902112000
0004A005EA003000
005FC03021222000
00BFE11333301000
00BFFC4101310000
008FFEAAAAAA1000
001BF30000005000
0008D01333105000
004F702020203200
00AF1011F4110500
01FB0106F8010500
06F6010AFD010220
0CF2020000002030
2FF1143333333030
5FF1120000003030
7FF1120444103030
7FF1120FFF303030
7FF1010FFF301030
7FF53357FF733430
7FFFFE55FFFFF500
5FFFC203EFFE4000
ENDCHAR
STARTCHAR Abrevegrave
ENCODING 7856
SWIDTH 830 0
DWIDTH 15 0
BBX 15 25 0 -2
BITMAP
0000039630000000
00005E69DA000000
0005FE0314000000
0009FE0002000000
0009E92101332000
0008B00599003000
005FC03021222000
00BFE11333301000
00BFFC4101210000
008FFEAAAAAA1000
001BF30000005000
0008D01333105000
004F702020203200
00AF1011F4110500
01FB0106F8010500
06F6010AFD010220
0CF2020000002030
2FF1143333333030
5FF1120000003030
7FF1120444103030
7FF1120FFF303030
7FF1010FFF301030
7FF53357FF733430
7FFFFE55FFFFF500
5FFFC203EFFE4000
ENDCHAR
STARTCHAR abrevegrave
ENCODING 7857
SWIDTH 830 0
DWIDTH 15 0
BBX 15 25 0 -2
BITMAP
0000039630000000
00005E69DA000000
0005FE0314000000
0009FE0002000000
0009E92101332000
0008B00599003000
005FC03021222000
00BFE11333301000
00BFFC4101210000
008FFEAAAAAA1000
001BF30000005000
0008D01333105000
004F702020203200
00AF1011F4110500
01FB0106F8010500
06F6010AFD010220
0CF2020000002030
2FF1143333333030
5FF1120000003030
7FF1120444103030
7FF1120FFF303030
7FF1010FFF301030
7FF53357FF733430
7FFFFE55FFFFF500
5FFFC203EFFE4000
ENDCHAR
STARTCHAR Abrevehookabove
ENCODING 7858
SWIDTH 830 0
DWIDTH 15 0
BBX 15 27 0 -2
BITMAP
0000003333320000
000006A133240000
00006FA000312000
0000DFFCA5302000
0000DFF713311000
00004BF912550000
0000399CFE832000
0004A005FA003000
004EC03021222000
00BFE11333301000
00BFFC4101210000
008FFEAAAAAA1000
001BF30000005000
0008D01333105000
004F702020203200
00AF1011F4110500
01FB0106F8010500
06F6010AFD010220
0CF2020000002030
2FF1143333333030
5FF1120000003030
7FF1120444103030
7FF1120FFF303030
7FF1010FFF301030
7FF53357FF733430
7FFFFE55FFFFF500
5FFFC203EFFE4000
ENDCHAR
STARTCHAR abrevehookabove
ENCODING 7859
SWIDTH 830 0
DWIDTH 15 0
BBX 15 27 0 -2
BITMAP
0000003333320000
000006A133240000
00006FA000312000
0000DFFCA5302000
0000DFF713311000
00004BF912550000
0000399CFE832000
0004A005FA003000
004EC03021222000
00BFE11333301000
00BFFC4101210000
008FFEAAAAAA1000
001BF30000005000
0008D01333105000
004F702020203200
00AF1011F4110500
01FB0106F8010500
06F6010AFD010220
0CF2020000002030
2FF1143333333030
5FF1120000003030
7FF1120444103030
7FF1120FFF303030
7FF1010FFF301030
7FF53357FF733430
7FFFFE55FFFFF500
5FFFC203EFFE4000
ENDCHAR
STARTCHAR Abrevetilde
ENCODING 7860
SWIDTH 830 0
DWIDTH 15 0
BBX 15 25 0 -2
BITMAP
0000032221222000
0001A00000003000
002DD01223203000
009FE46653243000
00AFE99CFE962000
009FB005FA003000
005FC03021222000
00BFE11333301000
00BFFC4101310000
008FFEAAAAAA1000
001BF30000005000
0008D01333105000
004F702020203200
00AF1011F4110500
01FB0106F8010500
06F6010AFD010220
0CF2020000002030
2FF1143333333030
5FF1120000003030
7FF1120444103030
7FF1120FFF303030
7FF1010FFF301030
7FF53357FF733430
7FFFFE55FFFFF500
5FFFC203EFFE4000
ENDCHAR
STARTCHAR abrevetilde
ENCODING 7861
SWIDTH 830 0
DWIDTH 15 0
BBX 15 25 0 -2
BITMAP
0000032221222000
0001A00000003000
002DD01223203000
009FE46653243000
00AFE99CFE962000
009FB005FA003000
005FC03021222000
00BFE11333301000
00BFFC4101310000
008FFEAAAAAA1000
001BF30000005000
0008D01333105000
004F702020203200
00AF1011F4110500
01FB0106F8010500
06F6010AFD010220
0CF2020000002030
2FF1143333333030
5FF1120000003030
7FF1120444103030
7FF1120FFF303030
7FF1010FFF301030
7FF53357FF733430
7FFFFE55FFFFF500
5FFFC203EFFE4000
ENDCHAR
STARTCHAR Abrevedotbelow
ENCODING 7862
SWIDTH 830 0
DWIDTH 15 0
BBX 15 26 0 -7
BITMAP
0000233303332000
0004A0037A003000
005FC03021222000
00BFE11333301000
00BFFC4101210000
008FFEAAAAAA1000
001BF30000005000
0008D01333105000
004F702020203200
00AF1011F4110500
01FB0106F8010500
06F6010AFD010220
0CF2020000002030
2FF1143333333030
5FF1120000003030
7FF1120444103030
7FF1120FFF303030
7FF1010FFF301030
7FF53357FF733430
7FFFFE8599CFF500
5FFFC980005E4000
00009F8030300000
0000EFA000400000
0000EFFFFE400000
0000DFFFD2000000
0000244410000000
ENDCHAR
STARTCHAR abrevedotbelow
ENCODING 7863
SWIDTH 830 0
DWIDTH 15 0
BBX 15 26 0 -7
BITMAP
0000233303332000
0004A0037A003000
005FC03021222000
00BFE11333301000
00BFFC4101210000
008FFEAAAAAA1000
001BF30000005000
0008D01333105000
004F702020203200
00AF1011F4110500
01FB0106F8010500
06F6010AFD010220
0CF2020000002030
2FF1143333333030
5FF1120000003030
7FF1120444103030
7FF1120FFF303030
7FF1010FFF301030
7FF53357FF733430
7FFFFE8599CFF500
5FFFC980005E4000
00009F8030300000
0000EFA000400000
0000EFFFFE400000
0000DFFFD2000000
0000244410000000
ENDCHAR
STARTCHAR Edotbelow
ENCODING 7864
SWIDTH 754 0
DWIDTH 14 0
BBX 14 21 0 -7
BITMAP
00263333333341
03E50000000012
1EF50333333112
3FF50301222241
3FF5030AFFFE30
3FF50303555500
3FF50433320300
3FF50300000300
3FF50304666600
3FF5030AFFB100
3FF50306993330
3FF50333333112
3FF50000000012
3FF50000000011
3FFFDDCBBCDD40
1EFFFF2000A300
0002DF20303000
0006FF30003000
0006FFFFFB1000
0005FFFF800000
00003443000000
ENDCHAR
STARTCHAR edotbelow
ENCODING 7865
SWIDTH 754 0
DWIDTH 14 0
BBX 14 21 0 -7
BITMAP
00263333333341
03E50000000012
1EF50333333112
3FF50301222241
3FF5030AFFFE30
3FF50303555500
3FF50433320300
3FF50300000300
3FF50304666600
3FF5030AFFB100
3FF50306993330
3FF50333333112
3FF50000000012
3FF50000000011
3FFFDDCBBCDD40
1EFFFF2000A300
0002DF20303000
0006FF30003000
0006FFFFFB1000
0005FFFF800000
00003443000000
ENDCHAR
STARTCHAR Ehookabove
ENCODING 7866
SWIDTH 754 0
DWIDTH 14 0
BBX 14 22 0 -2
BITMAP
00000433331000
00008913323000
000AFC66332100
000EFF94132100
000BEF72315000
0001DFC9BC2000
00263333333341
03E50000000012
1EF50333333112
3FF50301222241
3FF5030AFFFE30
3FF50303555500
3FF50433320300
3FF50300000300
3FF50304666600
3FF5030AFFB100
3FF50306993330
3FF50333333112
3FF50000000012
3FF83333333351
3FFFFFFFFFFE40
1EFFFFFFFFC200
ENDCHAR
STARTCHAR ehookabove
ENCODING 7867
SWIDTH 754 0
DWIDTH 14 0
BBX 14 22 0 -2
BITMAP
00000433331000
00008913323000
000AFC66332100
000EFF94132100
000BEF72315000
0001DFC9BC2000
00263333333341
03E50000000012
1EF50333333112
3FF50301222241
3FF5030AFFFE30
3FF50303555500
3FF50433320300
3FF50300000300
3FF50304666600
3FF5030AFFB100
3FF50306993330
3FF50333333112
3FF50000000012
3FF83333333351
3FFFFFFFFFFE40
1EFFFFFFFFC200
ENDCHAR
STARTCHAR Etilde
ENCODING 7868
SWIDTH 754 0
DWIDTH 14 0
BBX 14 21 0 -2
BITMAP
00001333323500
00036000011210
004E5043310210
01FF5000031200
02FF7576311000
02F83333333341
07F50000000012
2FF50333333112
3FF50301222241
3FF5030AFFFE30
3FF50303555500
3FF50433320300
3FF50300000300
3FF50304666600
3FF5030AFFB100
3FF50306993330
3FF50333333112
3FF50000000012
3FF83333333351
3FFFFFFFFFFE40
1EFFFFFFFFC200
ENDCHAR
STARTCHAR etilde
ENCODING 7869
SWIDTH 754 0
DWIDTH 14 0
BBX 14 21 0 -2
BITMAP
00001333323500
00036000011210
004E5043310210
01FF5000031200
02FF7576311000
02F83333333341
07F50000000012
2FF50333333112
3FF50301222241
3FF5030AFFFE30
3FF50303555500
3FF50433320300
3FF50300000300
3FF50304666600
3FF5030AFFB100
3FF50306993330
3FF50333333112
3FF50000000012
3FF83333333351
3FFFFFFFFFFE40
1EFFFFFFFFC200
ENDCHAR
STARTCHAR Ecircumflexacute
ENCODING 7870
SWIDTH 754 0
DWIDTH 14 0
BBX 14 25 0 -2
BITMAP
00000000014860
000000006EB770
00000009E13130
0000008FD00000
0000009A712130
00002210014200
00065023330210
009F5000100210
02FF86BFFC7400
02F83333333341
03F50000000012
1DF50333333112
3FF50301222241
3FF5030AFFFE30
3FF50303555500
3FF50433320300
3FF50300000300
3FF50304666600
3FF5030AFFB100
3FF50306993330
3FF50333333112
3FF50000000012
3FF83333333351
3FFFFFFFFFFE40
1EFFFFFFFFC200
ENDCHAR
STARTCHAR ecircumflexacute
ENCODING 7871
SWIDTH 754 0
DWIDTH 14 0
BBX 14 25 0 -2
BITMAP
00000000014860
000000006EB770
00000009E13130
0000008FD00000
0000009A712130
00002210014200
00065023330210
009F5000100210
02FF86BFFC7400
02F83333333341
03F50000000012
1DF50333333112
3FF50301222241
3FF5030AFFFE30
3FF50303555500
3FF50433320300
3FF50300000300
3FF50304666600
3FF5030AFFB100
3FF50306993330
3FF50333333112
3FF50000000012
3FF83333333351
3FFFFFFFFFFE40
1EFFFFFFFFC200
ENDCHAR
STARTCHAR Ecircumflexgrave
ENCODING 7872
SWIDTH 754 0
DWIDTH 14 0
BBX 14 25 0 -2
BITMAP
00000000110000
00000003CDC820
0000004E815650
000000EF800020
000000EA310010
00002210010110
00065023330210
008F5000100210
02FF86BFFC7400
02F83333333341
03F50000000012
1DF50333333112
3FF50301222241
3FF5030AFFFE30
3FF50303555500
3FF50433320300
3FF50300000300
3FF50304666600
3FF5030AFFB100
3FF50306993330
3FF50333333112
3FF50000000012
3FF83333333351
3FFFFFFFFFFE40
1EFFFFFFFFC200
ENDCHAR
STARTCHAR ecircumflexgrave
ENCODING 7873
SWIDTH 754 0
DWIDTH 14 0
BBX 14 25 0 -2
BITMAP
00000000110000
00000003CDC820
0000004E815650
000000EF800020
000000EA310010
00002210010110
00065023330210
008F5000100210
02FF86BFFC7400
02F83333333341
03F50000000012
1DF50333333112
3FF50301222241
3FF5030AFFFE30
3FF50303555500
3FF50433320300
3FF50300000300
3FF50304666600
3FF5030AFFB100
3FF50306993330
3FF50333333112
3FF50000000012
3FF83333333351
3FFFFFFFFFFE40
1EFFFFFFFFC200
ENDCHAR
STARTCHAR Ecircumflexhookabove
ENCODING 7874
SWIDTH 754 0
DWIDTH 14 0
BBX 15 26 0 -2
BITMAP
0000000033333200
00000005C1333210
0000005FE6642130
000000AFFC522130
0000009FFA133230
00000018DE8AC800
00002330028D7000
0005502333021000
007F500010021000
02FF86BFFC740000
02F8333333334100
03F5000000001200
1DF5033333311200
3FF5030122224100
3FF5030AFFFE3000
3FF5030355550000
3FF5043332030000
3FF5030000030000
3FF5030466660000
3FF5030AFFB10000
3FF5030699333000
3FF5033333311200
3FF5000000001200
3FF8333333335100
3FFFFFFFFFFE4000
1EFFFFFFFFC20000
ENDCHAR
STARTCHAR ecircumflexhookabove
ENCODING 7875
SWIDTH 754 0
DWIDTH 14 0
BBX 15 26 0 -2
BITMAP
0000000033333200
00000005C1333210
0000005FE6642130
000000AFFC522130
0000009FFA133230
00000018DE8AC800
00002330028D7000
0005502333021000
007F500010021000
02FF86BFFC740000
02F8333333334100
03F5000000001200
1DF5033333311200
3FF5030122224100
3FF5030AFFFE3000
3FF5030355550000
3FF5043332030000
3FF5030000030000
3FF5030466660000
3FF5030AFFB10000
3FF5030699333000
3FF5033333311200
3FF5000000001200
3FF8333333335100
3FFFFFFFFFFE4000
1EFFFFFFFFC20000
ENDCHAR
STARTCHAR Ecircumflextilde
ENCODING 7876
SWIDTH 754 0
DWIDTH 14 0
BBX 14 25 0 -2
BITMAP
00001333334500
00035000000210
004E5033331210
01FF6020000300
02FFEEFEBBB300
02FFFA40034200
00786023330210
005E5000100210
01FF86BFFC7400
02F83333333341
02F50000000012
0CF50333333112
3FF50301222241
3FF5030AFFFE30
3FF50303555500
3FF50433320300
3FF50300000300
3FF50304666600
3FF5030AFFB100
3FF50306993330
3FF50333333112
3FF50000000012
3FF83333333351
3FFFFFFFFFFE40
1EFFFFFFFFC200
ENDCHAR
STARTCHAR ecircumflextilde
ENCODING 7877
SWIDTH 754 0
DWIDTH 14 0
BBX 14 25 0 -2
BITMAP
00001333334500
00035000000210
004E5033331210
01FF6020000300
02FFEEFEBBB300
02FFFA40034200
00786023330210
005E5000100210
01FF86BFFC7400
02F83333333341
02F50000000012
0CF50333333112
3FF50301222241
3FF5030AFFFE30
3FF50303555500
3FF50433320300
3FF50300000300
3FF50304666600
3FF5030AFFB100
3FF50306993330
3FF50333333112
3FF50000000012
3FF83333333351
3FFFFFFFFFFE40
1EFFFFFFFFC200
ENDCHAR
STARTCHAR Ecircumflexdotbelow
ENCODING 7878
SWIDTH 754 0
DWIDTH 14 0
BBX 14 26 0 -7
BITMAP
00000023330000
00002320014400
00066023330210
009F5000100210
02FF86BFFC7400
02F83333333341
03F50000000012
1DF50333333112
3FF50301222241
3FF5030AFFFE30
3FF50303555500
3FF50433320300
3FF50300000300
3FF50304666600
3FF5030AFFB100
3FF50306993330
3FF50333333112
3FF50000000012
3FF50000000011
3FFFDDCBBCDC30
1EFFFE0000C200
0004FD02103000
0009FE10012000
0009FFFFF80000
0008FFFE500000
00014442000000
ENDCHAR
STARTCHAR ecircumflexdotbelow
ENCODING 7879
SWIDTH 754 0
DWIDTH 14 0
BBX 14 26 0 -7
BITMAP
00000023330000
00002320014400
00066023330210
009F5000100210
02FF86BFFC7400
02F83333333341
03F50000000012
1DF50333333112
3FF50301222241
3FF5030AFFFE30
3FF50303555500
3FF50433320300
3FF50300000300
3FF50304666600
3FF5030AFFB100
3FF50306993330
3FF50333333112
3FF50000000012
3FF50000000011
3FFFDDCBBCDC30
1EFFFE0000C200
0004FD02103000
0009FE10012000
0009FFFFF80000
0008FFFE500000
00014442000000
ENDCHAR
STARTCHAR Ihookabove
ENCODING 7880
SWIDTH 705 0
DWIDTH 13 0
BBX 13 22 0 -2
BITMAP
00003333320000
0005C133311000
006FE665112000
00AFFC52213000
007DFB13232000
000BFE9BC50000
00653333333410
06F00000000030
5FF01334331030
7FF10003000120
7FFCB50304B500
7FFFF703067000
278FF703030000
001FF703030000
001FF703030000
001FF703030000
002A9403023300
03D11334331020
3EF00000000030
7FF53333333520
7FFFFFFFFFE400
5FFFFFFFFC2000
ENDCHAR
STARTCHAR ihookabove
ENCODING 7881
SWIDTH 705 0
DWIDTH 13 0
BBX 13 22 0 -2
BITMAP
00003333320000
0005C133311000
006FE665112000
00AFFC52213000
007DFB13232000
000BFE9BC50000
00653333333410
06F00000000030
5FF01334331030
7FF10003000120
7FFCB50304B500
7FFFF703067000
278FF703030000
001FF703030000
001FF703030000
001FF703030000
002A9403023300
03D11334331020
3EF00000000030
7FF53333333520
7FFFFFFFFFE400
5FFFFFFFFC2000
ENDCHAR
STARTCHAR Idotbelow
ENCODING 7882
SWIDTH 705 0
DWIDTH 13 0
BBX 13 21 0 -7
BITMAP
00443333333410
05F00000000030
4FF01334331030
7FF10003000120
7FFCB50304B500
7FFFF703067000
278FF703030000
001FF703030000
001FF703030000
001FF703030000
002A9403023300
03D11334331020
3EF00000000030
7FF10000000120
7FFEDDBBBDD500
5FFFF700064000
000AF702030000
001FF800040000
001FFFFFE40000
000FFFFC200000
00024440000000
ENDCHAR
STARTCHAR idotbelow
ENCODING 7883
SWIDTH 705 0
DWIDTH 13 0
BBX 13 21 0 -7
BITMAP
00443333333410
05F00000000030
4FF01334331030
7FF10003000120
7FFCB50304B500
7FFFF703067000
278FF703030000
001FF703030000
001FF703030000
001FF703030000
002A9403023300
03D11334331020
3EF00000000030
7FF10000000120
7FFEDDBBBDD500
5FFFF700064000
000AF702030000
001FF800040000
001FFFFFE40000
000FFFFC200000
00024440000000
ENDCHAR
STARTCHAR Odotbelow
ENCODING 7884
SWIDTH 837 0
DWIDTH 15 0
BBX 15 21 0 -7
BITMAP
0000233333333000
0004100000000400
0076003333310020
08F3030000030030
2FF20309FD203030
5FF2030CFF303030
6FF2030AFF303030
6FF20307FF303030
6FF20307FF303030
6FF20307FF303030
6FF20305CA103030
6FF4030000030030
6FFA003333310310
4FFFA30000015200
1EFFFFE988BD2000
03CFFFA000310000
0003AFA020300000
0000DFA000300000
0000DFC444400000
0000DFFFFB100000
0000BFFFA0000000
ENDCHAR
STARTCHAR odotbelow
ENCODING 7885
SWIDTH 837 0
DWIDTH 15 0
BBX 15 21 0 -7
BITMAP
0000233333333000
0004100000000400
0076003333310020
08F3030000030030
2FF20309FD203030
5FF2030CFF303030
6FF2030AFF303030
6FF20307FF303030
6FF20307FF303030
6FF20307FF303030
6FF20305CA103030
6FF4030000030030
6FFA003333310310
4FFFA30000015200
1EFFFFE988BD2000
03CFFFA000310000
0003AFA020300000
0000DFA000300000
0000DFC444400000
0000DFFFFB100000
0000BFFFA0000000
ENDCHAR
STARTCHAR Ohookabove
ENCODING 7886
SWIDTH 837 0
DWIDTH 15 0
BBX 15 22 0 -2
BITMAP
0000014333300000
00002D2333130000
0002EF6440330000
0006FFE850330000
0004FFE033130000
00006FF78A900000
0000863101233100
0017103333310400
01C5030000030030
0CF20307CA103030
3FF2030CFF303030
5FF2030BFF303030
6FF20307FF303030
6FF20307FF303030
6FF20307FF303030
6FF20306FD203030
6FF3030000030030
6FF6003333310030
4FFD200000000400
1EFFFA6444587000
05FFFFFFFFF70000
0029DEFED9300000
ENDCHAR
STARTCHAR ohookabove
ENCODING 7887
SWIDTH 837 0
DWIDTH 15 0
BBX 15 22 0 -2
BITMAP
0000014333300000
00002D2333130000
0002EF6440330000
0006FFE850330000
0004FFE033130000
00006FF78A900000
0000863101233100
0017103333310400
01C5030000030030
0CF20307CA103030
3FF2030CFF303030
5FF2030BFF303030
6FF20307FF303030
6FF20307FF303030
6FF20307FF303030
6FF20306FD203030
6FF3030000030030
6FF6003333310030
4FFD200000000400
1EFFFA6444587000
05FFFFFFFFF70000
0029DEFED9300000
ENDCHAR
STARTCHAR Ocircumflexacute
ENCODING 7888
SWIDTH 837 0
DWIDTH 15 0
BBX 15 26 0 -2
BITMAP
0000000000003000
0000000006BFF500
000000009FEC7500
0000000BF8000200
0000001FF7007200
0000013515747000
0000511332103000
0008E01000103000
007FE37CFD944000
009FFA6434584000
009E300000000300
0066003333310120
03E3030000030030
0DF20307CA103030
4FF2030CFF303030
6FF2030BFF303030
6FF20307FF303030
6FF20307FF303030
6FF20307FF303030
6FF20306FD203030
6FF3030000030030
6FF6003333310120
4FFE300000001300
1EFFFA6444586000
05FFFFFFFFF60000
0029DEFED9300000
ENDCHAR
STARTCHAR ocircumflexacute
ENCODING 7889
SWIDTH 837 0
DWIDTH 15 0
BBX 15 26 0 -2
BITMAP
0000000000003000
0000000006BFF500
000000009FEC7500
0000000BF8000200
0000001FF7007200
0000013515747000
0000511332103000
0008E01000103000
007FE37CFD944000
009FFA6434584000
009E300000000300
0066003333310120
03E3030000030030
0DF20307CA103030
4FF2030CFF303030
6FF2030BFF303030
6FF20307FF303030
6FF20307FF303030
6FF20307FF303030
6FF20306FD203030
6FF3030000030030
6FF6003333310120
4FFE300000001300
1EFFFA6444586000
05FFFFFFFFF60000
0029DEFED9300000
ENDCHAR
STARTCHAR Ocircumflexgrave
ENCODING 7890
SWIDTH 837 0
DWIDTH 15 0
BBX 15 25 0 -2
BITMAP
000000003C961000
00000005EDFFE000
0000004FF2269000
0000007FF1002000
0000015519727000
0000611333162000
0008E01000103000
007FE37CFD944000
009FFA6434584000
009E300000000300
0066003333310120
03E3030000030030
0DF20307CA103030
4FF2030CFF303030
6FF2030BFF303030
6FF20307FF303030
6FF20307FF303030
6FF20307FF303030
6FF20306FD203030
6FF3030000030030
6FF6003333310120
4FFE300000001300
1EFFFA6444586000
05FFFFFFFFF60000
0029DEFED9300000
ENDCHAR
STARTCHAR ocircumflexgrave
ENCODING 7891
SWIDTH 837 0
DWIDTH 15 0
BBX 15 25 0 -2
BITMAP
000000003C961000
00000005EDFFE000
0000004FF2269000
0000007FF1002000
0000015519727000
0000611333162000
0008E01000103000
007FE37CFD944000
009FFA6434584000
009E300000000300
0066003333310120
03E3030000030030
0DF20307CA103030
4FF2030CFF303030
6FF2030BFF303030
6FF20307FF303030
6FF20307FF303030
6FF20307FF303030
6FF20306FD203030
6FF3030000030030
6FF6003333310120
4FFE300000001300
1EFFFA6444586000
05FFFFFFFFF60000
0029DEFED9300000
ENDCHAR
STARTCHAR Ocircumflexhookabove
ENCODING 7892
SWIDTH 837 0
DWIDTH 15 0
BBX 15 26 0 -2
BITMAP
0000000004333310
00000002C6233230
0000001EFC993330
0000002FFF522330
00000006EF410110
00000012136AD400
0000401333203000
0006D01000103000
006FE37CFD944000
009FFA6434584000
009E300000000300
0066003333310120
03E3030000030030
0DF20307CA103030
4FF2030CFF303030
6FF2030BFF303030
6FF20307FF303030
6FF20307FF303030
6FF20307FF303030
6FF20306FD203030
6FF3030000030030
6FF6003333310120
4FFE300000001300
1EFFFA6444586000
05FFFFFFFFF60000
0029DEFED9300000
ENDCHAR
STARTCHAR ocircumflexhookabove
ENCODING 7893
SWIDTH 837 0
DWIDTH 15 0
BBX 15 26 0 -2
BITMAP
0000000004333310
00000002C6233230
0000001EFC993330
0000002FFF522330
00000006EF410110
00000012136AD400
0000401333203000
0006D01000103000
006FE37CFD944000
009FFA6434584000
009E300000000300
0066003333310120
03E3030000030030
0DF20307CA103030
4FF2030CFF303030
6FF2030BFF303030
6FF20307FF303030
6FF20307FF303030
6FF20307FF303030
6FF20306FD203030
6FF3030000030030
6FF6003333310120
4FFE300000001300
1EFFFA6444586000
05FFFFFFFFF60000
0029DEFED9300000
ENDCHAR
STARTCHAR Ocircumflextilde
ENCODING 7894
SWIDTH 837 0
DWIDTH 15 0
BBX 15 25 0 -2
BITMAP
0000033333333000
0001A01100003000
003DE00122203000
009FF8AA97662000
009FFEA513830000
0047A11333203000
0009E01000103000
007FE37CFD944000
009FFA6434584000
009E300000000300
0066003333310120
03E3030000030030
0DF20307CA103030
4FF2030CFF303030
6FF2030BFF303030
6FF20307FF303030
6FF20307FF303030
6FF20307FF303030
6FF20306FD203030
6FF3030000030030
6FF6003333310120
4FFE300000001300
1EFFFA6444586000
05FFFFFFFFF60000
0029DEFED9300000
ENDCHAR
STARTCHAR ocircumflextilde
ENCODING 7895
SWIDTH 837 0
DWIDTH 15 0
BBX 15 25 0 -2
BITMAP
0000033333333000
0001A01100003000
003DE00122203000
009FF8AA97662000
009FFEA513830000
0047A11333203000
0009E01000103000
007FE37CFD944000
009FFA6434584000
009E300000000300
0066003333310120
03E3030000030030
0DF20307CA103030
4FF2030CFF303030
6FF2030BFF303030
6FF20307FF303030
6FF20307FF303030
6FF20307FF303030
6FF20306FD203030
6FF3030000030030
6FF6003333310120
4FFE300000001300
1EFFFA6444586000
05FFFFFFFFF60000
0029DEFED9300000
ENDCHAR
STARTCHAR Ocircumflexdotbelow
ENCODING 7896
SWIDTH 837 0
DWIDTH 15 0
BBX 15 26 0 -7
BITMAP
0000000233100000
0000022000232000
0000901333203000
001BE01000103000
008FE37CFD944000
009FFA6434584000
009D200000000300
0066003333310120
03E3030000030030
1EF20307CA103030
4FF2030CFF303030
6FF2030BFF303030
6FF20307FF303030
6FF20307FF303030
6FF20307FF303030
6FF20306FD203030
6FF4030000030030
6FF9003333310310
4FFFA30000015200
1EFFFFE988BD2000
03CFFFA000310000
0003AFA020300000
0000DFA000300000
0000DFC444400000
0000DFFFFB100000
0000BFFFA0000000
ENDCHAR
STARTCHAR ocircumflexdotbelow
ENCODING 7897
SWIDTH 837 0
DWIDTH 15 0
BBX 15 26 0 -7
BITMAP
0000000233100000
0000022000232000
0000901333203000
001BE01000103000
008FE37CFD944000
009FFA6434584000
009D200000000300
0066003333310120
03E3030000030030
1EF20307CA103030
4FF2030CFF303030
6FF2030BFF303030
6FF20307FF303030
6FF20307FF303030
6FF20307FF303030
6FF20306FD203030
6FF4030000030030
6FF9003333310310
4FFFA30000015200
1EFFFFE988BD2000
03CFFFA000310000
0003AFA020300000
0000DFA000300000
0000DFC444400000
0000DFFFFB100000
0000BFFFA0000000
ENDCHAR
STARTCHAR Ohornacute
ENCODING 7898
SWIDTH 847 0
DWIDTH 15 0
BBX 16 21 0 -2
BITMAP
0000000000210000
0000479BDDCB0000
0008A67533030000
00AF400000024332
04FF400002272003
04FF911100120303
019C101101363141
03E5020000042030
1EF20207CA103030
4FF2030CFF303030
6FF2030BFF303030
6FF20307FF303030
6FF20307FF303030
6FF20307FF303030
6FF20306FD202030
6FF3030000030030
6FF6003333310120
5FFD200000001300
2FFFFA6444586000
09FFFFFFFFF60000
005ADEFED9300000
ENDCHAR
STARTCHAR ohornacute
ENCODING 7899
SWIDTH 847 0
DWIDTH 15 0
BBX 16 21 0 -2
BITMAP
0000000000210000
0000479BDDCB0000
0008A67533030000
00AF400000024332
04FF400002272003
04FF911100120303
019C101101363141
03E5020000042030
1EF20207CA103030
4FF2030CFF303030
6FF2030BFF303030
6FF20307FF303030
6FF20307FF303030
6FF20307FF303030
6FF20306FD202030
6FF3030000030030
6FF6003333310120
5FFD200000001300
2FFFFA6444586000
09FFFFFFFFF60000
005ADEFED9300000
ENDCHAR
STARTCHAR Ohorngrave
ENCODING 7900
SWIDTH 847 0
DWIDTH 15 0
BBX 16 21 0 -2
BITMAP
0001875320000000
002D99BDFFD70000
03EF113334470000
07FF100000034332
07FF964200062003
02ADC62001210303
0018001101363141
02D5020000042030
0DF20207CA103030
3FF2030CFF303030
5FF2030BFF303030
6FF20307FF303030
6FF20307FF303030
6FF20307FF303030
6FF20306FD202030
6FF3030000030030
6FF6003333310120
5FFD200000001300
2FFFFA6444586000
09FFFFFFFFF60000
005ADEFED9300000
ENDCHAR
STARTCHAR ohorngrave
ENCODING 7901
SWIDTH 847 0
DWIDTH 15 0
BBX 16 21 0 -2
BITMAP
0001875320000000
002D99BDFFD70000
03EF113334470000
07FF100000034332
07FF964200062003
02ADC62001210303
0018001101363141
02D5020000042030
0DF20207CA103030
3FF2030CFF303030
5FF2030BFF303030
6FF20307FF303030
6FF20307FF303030
6FF20307FF303030
6FF20306FD202030
6FF3030000030030
6FF6003333310120
5FFD200000001300
2FFFFA6444586000
09FFFFFFFFF60000
005ADEFED9300000
ENDCHAR
STARTCHAR Ohornhookabove
ENCODING 7902
SWIDTH 847 0
DWIDTH 15 0
BBX 16 22 0 -2
BITMAP
0000014333300000
00002D2333230000
0003EF6440330000
0006FFE851330000
0004CFE032044332
00007FF78A9C2003
0000863100120303
0017101101363141
01C5020000042030
0CF20207CA103030
3FF2030CFF303030
5FF2030BFF303030
6FF20307FF303030
6FF20307FF303030
6FF20307FF303030
6FF20306FD202030
6FF3030000030030
6FF6003333310120
5FFD200000001300
2FFFFA6444586000
09FFFFFFFFF60000
005ADEFED9300000
ENDCHAR
STARTCHAR ohornhookabove
ENCODING 7903
SWIDTH 847 0
DWIDTH 15 0
BBX 16 22 0 -2
BITMAP
0000014333300000
00002D2333230000
0003EF6440330000
0006FFE851330000
0004CFE032044332
00007FF78A9C2003
0000863100120303
0017101101363141
01C5020000042030
0CF20207CA103030
3FF2030CFF303030
5FF2030BFF303030
6FF20307FF303030
6FF20307FF303030
6FF20307FF303030
6FF20306FD202030
6FF3030000030030
6FF6003333310120
5FFD200000001300
2FFFFA6444586000
09FFFFFFFFF60000
005ADEFED9300000
ENDCHAR
STARTCHAR Ohorntilde
ENCODING 7904
SWIDTH 847 0
DWIDTH 15 0
BBX 16 21 0 -2
BITMAP
0000233332340000
0004600000020000
005F503333120000
02FF500000024332
03FF757531292003
03FFD63100120303
006A101101363141
02D5020000042030
0DF20207CA103030
3FF2030CFF303030
5FF2030BFF303030
6FF20307FF303030
6FF20307FF303030
6FF20307FF303030
6FF20306FD202030
6FF3030000030030
6FF6003333310120
5FFD200000001300
2FFFFA6444586000
09FFFFFFFFF60000
005ADEFED9300000
ENDCHAR
STARTCHAR ohorntilde
ENCODING 7905
SWIDTH 847 0
DWIDTH 15 0
BBX 16 21 0 -2
BITMAP
0000233332340000
0004600000020000
005F503333120000
02FF500000024332
03FF757531292003
03FFD63100120303
006A101101363141
02D5020000042030
0DF20207CA103030
3FF2030CFF303030
5FF2030BFF303030
6FF20307FF303030
6FF20307FF303030
6FF20307FF303030
6FF20306FD202030
6FF3030000030030
6FF6003333310120
5FFD200000001300
2FFFFA6444586000
09FFFFFFFFF60000
005ADEFED9300000
ENDCHAR
STARTCHAR Ohorndotbelow
ENCODING 7906
SWIDTH 847 0
DWIDTH 15 0
BBX 16 23 0 -7
BITMAP
0000000000004332
00000000000A2003
0000122222220303
0003102332101303
0075031000113040
08F3030000001030
2FF20309FD202030
5FF2030CFF303030
6FF2030AFF303030
6FF20307FF303030
6FF20307FF303030
6FF20307FF303030
6FF20305CA103030
6FF4031000040030
6FFA003333310210
4FFFA30000015200
1EFFFFE988BD2000
03CFFFA000310000
0003AFA020300000
0000DFB000400000
0000DFFFFF600000
0000CFFFD3000000
0000244410000000
ENDCHAR
STARTCHAR ohorndotbelow
ENCODING 7907
SWIDTH 847 0
DWIDTH 15 0
BBX 16 23 0 -7
BITMAP
0000000000004332
00000000000A2003
0000122222220303
0003102332101303
0075031000113040
08F3030000001030
2FF20309FD202030
5FF2030CFF303030
6FF2030AFF303030
6FF20307FF303030
6FF20307FF303030
6FF20307FF303030
6FF20305CA103030
6FF4031000040030
6FFA003333310210
4FFFA30000015200
1EFFFFE988BD2000
03CFFFA000310000
0003AFA020300000
0000DFB000400000
0000DFFFFF600000
0000CFFFD3000000
0000244410000000
ENDCHAR
STARTCHAR Udotbelow
ENCODING 7908
SWIDTH 846 0
DWIDTH 15 0
BBX 15 21 0 -7
BITMAP
0035333302633330
04E300032D500030
2FF30304EF503030
4FF30306FF503030
4FF30306FF503030
4FF30306FF503030
4FF30306FF503030
4FF30306FF503030
4FF30306FF503030
4FF30306FF503030
4FF4030388103030
4FF6021000031030
4FFB002333310210
2FFFB30000015200
0AFFFFE988BD2000
01AFFFB000220000
00029FB030200000
0000CFC000300000
0000CFFFFF600000
0000BFFFE4000000
0000144410000000
ENDCHAR
STARTCHAR udotbelow
ENCODING 7909
SWIDTH 846 0
DWIDTH 15 0
BBX 15 21 0 -7
BITMAP
0035333302633330
04E300032D500030
2FF30304EF503030
4FF30306FF503030
4FF30306FF503030
4FF30306FF503030
4FF30306FF503030
4FF30306FF503030
4FF30306FF503030
4FF30306FF503030
4FF4030388103030
4FF6021000031030
4FFB002333310210
2FFFB30000015200
0AFFFFE988BD2000
01AFFFB000220000
00029FB030200000
0000CFC000300000
0000CFFFFF600000
0000BFFFE4000000
0000144410000000
ENDCHAR
STARTCHAR Uhookabove
ENCODING 7910
SWIDTH 846 0
DWIDTH 15 0
BBX 15 22 0 -2
BITMAP
0000003333320000
000007A133330000
00008FC664312000
0000DFFA41312000
0000AEF823240000
00000DFD9BC30000
0035333CFF833330
04E30106AF501030
3FF30305FF503030
4FF30306FF503030
4FF30306FF503030
4FF30306FF503030
4FF30306FF503030
4FF30306FF503030
4FF30306FF503030
4FF30303BA203030
4FF4031000031030
4FF7002333310030
2FFE300000000400
0DFFFA6444587000
04EFFFFFFFF70000
0028CEFEDA300000
ENDCHAR
STARTCHAR uhookabove
ENCODING 7911
SWIDTH 846 0
DWIDTH 15 0
BBX 15 22 0 -2
BITMAP
0000003333320000
000007A133330000
00008FC664312000
0000DFFA41312000
0000AEF823240000
00000DFD9BC30000
0035333CFF833330
04E30106AF501030
3FF30305FF503030
4FF30306FF503030
4FF30306FF503030
4FF30306FF503030
4FF30306FF503030
4FF30306FF503030
4FF30306FF503030
4FF30303BA203030
4FF4031000031030
4FF7002333310030
2FFE300000000400
0DFFFA6444587000
04EFFFFFFFF70000
0028CEFEDA300000
ENDCHAR
STARTCHAR Uhornacute
ENCODING 7912
SWIDTH 856 0
DWIDTH 15 0
BBX 16 21 0 -2
BITMAP
0000000002430000
000069BDFECB0000
001AA67533030000
01CF400000014332
04FF400002164003
04F7120AFC730303
06F300034E503303
3FF30305FF503040
4FF30306FF503030
4FF30306FF503030
4FF30306FF503030
4FF30306FF503030
4FF30306FF503030
4FF30306FF503030
4FF30303BA203030
4FF4031000031030
4FF7002333310030
4FFE300000000400
1EFFFA6444587000
06FFFFFFFFF70000
0039DEFEDA300000
ENDCHAR
ENDFONT
